<?xml version="1.0" standalone="no"?>
<!DOCTYPE svg PUBLIC "-//W3C//DTD SVG 1.1//EN" "http://www.w3.org/Graphics/SVG/1.1/DTD/svg11.dtd" >
<svg xmlns="http://www.w3.org/2000/svg" xmlns:xlink="http://www.w3.org/1999/xlink" version="1.1">
<metadata>
Created by FontForge 20170731 at Thu Apr  7 15:12:55 2022
 By Aleksey,,,
(c) 1988, 1991, 1995, 2001, 2002 Adobe Systems Incorporated. All rights reserved.
</metadata>
<defs>
<font id="Belwe-CondensedBold" horiz-adv-x="1024" >
  <font-face 
    font-family="Belwe"
    font-weight="700"
    font-stretch="condensed"
    units-per-em="2048"
    panose-1="2 6 8 6 5 3 5 2 5 4"
    ascent="1432"
    descent="-616"
    x-height="1006"
    cap-height="1399"
    bbox="-342 -512 2048 1905"
    underline-thickness="102"
    underline-position="-307"
    unicode-range="U+0020-2215"
  />
<missing-glyph 
d="M0 0v1434h1024v-1434h-1024zM512 809l348 522h-696zM573 717l349 -522v1044zM164 102h696l-348 523zM102 1239v-1044l349 522z" />
    <glyph glyph-name="f_i" unicode="fi" horiz-adv-x="1138" 
d="M1016 805v-682h74v-123h-447v123h74v682h-275v-682h74v-123h-446v123h73v682h-86l47 158h72q-26 71 -26 161q0 147 101.5 227.5t254.5 80.5q110 0 203.5 -56t150.5 -151l-258 -92q-23 61 -62 106t-81 45q-84 0 -84 -133q0 -81 92 -139t227 -58q202 0 330 82
q-8 -104 -8 -231z" />
    <glyph glyph-name="f_l" unicode="fl" horiz-adv-x="1138" 
d="M143 805h-86l47 158h72q-26 71 -26 161q0 147 101.5 227.5t254.5 80.5q152 0 270 -97l314 101v-119l-74 -23v-1167h74v-127h-447v127h74v1069l-115 -45q-23 52 -61.5 92.5t-77.5 40.5q-43 0 -65.5 -35t-22.5 -94q0 -82 74.5 -138.5t168.5 -53.5l-47 -158h-129v-682h74
v-123h-446v123h73v682z" />
    <glyph glyph-name=".notdef" 
d="M0 0v1434h1024v-1434h-1024zM512 809l348 522h-696zM573 717l349 -522v1044zM164 102h696l-348 523zM102 1239v-1044l349 522z" />
    <glyph glyph-name=".null" horiz-adv-x="0" 
 />
    <glyph glyph-name="nonmarkingreturn" horiz-adv-x="682" 
 />
    <glyph glyph-name="space" unicode=" " horiz-adv-x="415" 
 />
    <glyph glyph-name="exclam" unicode="!" horiz-adv-x="569" 
d="M166 145q0 58 33 110t88 52t88 -52t33 -110t-33 -109.5t-88 -51.5t-88 51.5t-33 109.5zM344 422h-119q-1 156 -27.5 328t-52.5 300t-26 177q0 84 44 144.5t122 60.5t122 -60.5t44 -144.5q0 -49 -26.5 -177t-53 -300t-27.5 -328z" />
    <glyph glyph-name="quotedbl" unicode="&#x22;" horiz-adv-x="681" 
d="M262 1266l-41 -418q-3 -25 -21 -44.5t-42 -19.5t-42.5 20t-21.5 44l-41 418q-4 32 -0.5 61.5t13 53t33 37.5t59.5 14q120 0 104 -166zM629 1266l-41 -418q-3 -24 -21.5 -44t-42.5 -20t-42 19.5t-21 44.5l-41 418q-4 32 -0.5 61.5t12.5 53t32.5 37.5t59.5 14
q121 0 105 -166z" />
    <glyph glyph-name="numbersign" unicode="#" horiz-adv-x="833" 
d="M764 467v-158h-150l-41 -309h-153l41 309h-160l-41 -309h-151l41 309h-130v158h150l37 283h-133v157h153l41 310h152l-41 -310h160l41 310h153l-41 -310h123v-157h-143l-37 -283h129zM518 750h-160l-36 -283h159z" />
    <glyph glyph-name="dollar" unicode="$" horiz-adv-x="833" 
d="M328 -168v182q-108 11 -188 55.5t-148 120.5l168 232q57 -93 141 -173.5t141 -80.5q44 0 71.5 25.5t27.5 62.5q0 29 -24.5 62.5t-64 67t-87.5 71t-95.5 81t-87 90.5t-64 107t-24.5 123q0 118 68 210.5t166 121.5v166h178v-160q82 -11 146 -53.5t102 -100.5l-136 -215
q-30 77 -92.5 151.5t-122.5 74.5q-43 0 -66.5 -23.5t-23.5 -66.5q0 -36 24.5 -72.5t64 -70.5t87 -70t95.5 -77.5t87.5 -86t64 -103t24.5 -121.5q0 -116 -76.5 -213t-177.5 -124v-193h-178z" />
    <glyph glyph-name="percent" unicode="%" horiz-adv-x="1251" 
d="M213 -31l725 1278h102l-725 -1278h-102zM258 1120q-41 0 -61.5 -30t-20.5 -80q0 -31 13.5 -87.5t36 -117.5t59 -105.5t75.5 -44.5q41 0 61.5 30.5t20.5 80.5q0 31 -13.5 87t-36 117t-59 105.5t-75.5 44.5zM891 561q-41 0 -61.5 -30t-20.5 -80q0 -31 13.5 -87.5t36 -117.5
t59 -105.5t75.5 -44.5q41 0 61.5 30.5t20.5 80.5q0 31 -13.5 87t-36 117t-59 105.5t-75.5 44.5zM332 1247q98 0 173 -95.5t75 -252.5q0 -189 -83.5 -280t-209.5 -91q-98 0 -173 96t-75 253q0 189 83.5 279.5t209.5 90.5zM965 688q98 0 172.5 -95.5t74.5 -252.5
q0 -98 -24 -171.5t-65.5 -116t-92.5 -63t-110 -20.5q-98 0 -173 95.5t-75 252.5q0 189 83.5 280t209.5 91z" />
    <glyph glyph-name="ampersand" unicode="&#x26;" horiz-adv-x="1251" 
d="M334 506q0 -61 26 -124t77.5 -109t113.5 -46q57 0 96 33q-68 83 -138.5 196t-117.5 224q-57 -67 -57 -174zM498 1174q0 -41 17 -93.5t40 -91.5q41 35 59.5 56.5t28.5 53t10 81.5q0 38 -17.5 64t-53.5 26q-39 0 -61.5 -28t-22.5 -68zM801 756v137h317v-141h-112
q3 -196 -76 -400q101 -127 160 -127q11 0 21 1.5t20.5 6t16 7t18.5 10t18 10.5l67 -88q-105 -205 -243 -205q-115 0 -234 137q-143 -137 -319 -137q-180 0 -284.5 117.5t-104.5 300.5q0 144 68.5 260.5t193.5 194.5q-47 113 -47 227q0 153 95.5 259t246.5 106
q117 0 196.5 -70t79.5 -186q0 -25 -5 -49t-12 -43t-22 -39.5t-25.5 -34.5t-32.5 -32t-34.5 -27.5t-39 -26t-38 -23.5t-40.5 -23.5t-38 -21.5q88 -209 211 -371q37 70 37 168q0 74 -59 103z" />
    <glyph glyph-name="quotesingle" unicode="'" horiz-adv-x="454" 
d="M332 1266l-41 -418q-3 -24 -21.5 -44t-42.5 -20t-42 19.5t-21 44.5l-41 418q-4 32 -0.5 61.5t12.5 53t32.5 37.5t59.5 14q121 0 105 -166z" />
    <glyph glyph-name="parenleft" unicode="(" horiz-adv-x="681" 
d="M434 1432l127 -95q-160 -308 -160 -762q0 -453 160 -761l-127 -95q-155 168 -233 394t-78 462t78 462.5t233 394.5z" />
    <glyph glyph-name="parenright" unicode=")" horiz-adv-x="681" 
d="M121 1339l127 95q155 -168 233 -394t78 -462t-78 -462.5t-233 -394.5l-127 95q160 308 160 762q0 453 -160 761z" />
    <glyph glyph-name="asterisk" unicode="*" 
d="M397 1399h230q-51 -127 -54 -297q173 70 263 158l71 -246q-164 5 -305 -25q67 -93 227 -198l-196 -152q-45 165 -121 305q-76 -140 -121 -305l-196 152q160 105 227 198q-141 30 -305 25l71 246q90 -88 263 -158q-3 170 -54 297z" />
    <glyph glyph-name="plus" unicode="+" horiz-adv-x="1228" 
d="M496 623v383h237v-383h381v-238h-381v-385h-237v385h-381v238h381z" />
    <glyph glyph-name="comma" unicode="," horiz-adv-x="415" 
d="M145 -172l-53 90q28 17 42 34t20 48q-32 19 -49 60.5t-17 84.5q0 60 32 111t89 51q55 0 88 -52t33 -110q0 -103 -48 -191t-137 -126z" />
    <glyph glyph-name="hyphen" unicode="-" horiz-adv-x="681" 
d="M594 391h-506v227h506v-227z" />
    <glyph glyph-name="period" unicode="." horiz-adv-x="415" 
d="M88 145q0 58 33 110t88 52t88 -52t33 -110t-33 -109.5t-88 -51.5t-88 51.5t-33 109.5z" />
    <glyph glyph-name="slash" unicode="/" horiz-adv-x="569" 
d="M-20 -31l479 1463h170l-479 -1463h-170z" />
    <glyph glyph-name="zero" unicode="0" horiz-adv-x="833" 
d="M332 1028q-88 0 -88 -168q0 -123 41 -282t103 -274.5t116 -115.5q88 0 88 160q0 127 -41 288t-103 276.5t-116 115.5zM434 1247q87 0 156.5 -57t111 -149.5t63 -200t21.5 -217.5q0 -192 -44.5 -338.5t-132.5 -231t-208 -84.5q-70 0 -129.5 38t-99.5 100.5t-68.5 143
t-41.5 166t-13 169.5q0 195 44.5 343.5t132 233t208.5 84.5z" />
    <glyph glyph-name="one" unicode="1" horiz-adv-x="833" 
d="M565 1217v-1094h66v-123h-402v123h62v782q-42 -30 -86 -41v129q72 36 139 95t117 129h104z" />
    <glyph glyph-name="two" unicode="2" horiz-adv-x="833" 
d="M633 0h-510l-19 180q146 152 194 210q142 174 172 349q9 56 9 115q0 51 -12.5 104t-43.5 95.5t-73 42.5q-43 0 -66.5 -32t-23.5 -83q0 -55 36 -102t101 -78l-151 -305q-195 97 -195 342q0 173 108.5 291t270.5 118q164 0 253 -91.5t89 -242.5q0 -91 -27.5 -179.5
t-80.5 -171.5t-109 -150t-135 -148h112q67 0 95 21.5t41 72.5h98l-23 -407h-114z" />
    <glyph glyph-name="three" unicode="3" horiz-adv-x="833" 
d="M305 1217h367l45 -154q-11 -8 -23.5 -21.5t-28.5 -32.5t-28.5 -35t-31 -41.5t-28.5 -39t-29 -40.5t-24 -34q106 -40 168 -133.5t62 -214.5q0 -126 -49 -239.5t-145.5 -188t-219.5 -74.5q-92 0 -178.5 47t-130.5 111l209 268q34 -90 91.5 -156.5t119.5 -66.5q48 -1 72 34
t24 95q0 123 -72.5 187.5t-198.5 64.5h-38l-56 86l219 313h-75q-56 0 -93 -20.5t-67 -71.5l-88 39l119 387l114 -37z" />
    <glyph glyph-name="four" unicode="4" horiz-adv-x="833" 
d="M721 0h-414v123h72v156h-332v161l408 777h211q-13 -83 -13 -197v-580h109l-29 -161h-80v-156h68v-123zM375 834l-205 -394h209v394h-4z" />
    <glyph glyph-name="five" unicode="5" horiz-adv-x="833" 
d="M55 137l195 264q122 -168 225 -168q98 0 98 121q0 101 -58.5 163.5t-143.5 62.5q-104 0 -148 -50l-121 48l129 639h347l8 47h110l-47 -312h-332l-22 -141q81 33 172 33q121 0 193.5 -109.5t72.5 -273.5q0 -105 -32.5 -198t-85.5 -156.5t-122 -100.5t-141 -37
q-91 0 -168.5 50t-128.5 118z" />
    <glyph glyph-name="six" unicode="6" horiz-adv-x="833" 
d="M408 631q-39 0 -56.5 -31.5t-17.5 -99.5q0 -42 12 -96.5t33 -109t57 -91.5t78 -37q80 0 80 133q0 41 -13 96t-35 108.5t-59 90.5t-79 37zM778 1141l-198 -226q-15 29 -20 39t-20.5 34t-27.5 34t-31.5 19.5t-40.5 9.5q-68 0 -102.5 -66t-34.5 -147q0 -58 8 -97
q84 74 197 74q125 0 202.5 -96t77.5 -236q0 -136 -43 -251.5t-129 -189t-200 -73.5q-78 0 -141.5 35t-105 91.5t-70 132t-40.5 153t-12 156.5q0 140 32 267t91 226t151.5 158t204.5 59q78 0 145 -30.5t107 -75.5z" />
    <glyph glyph-name="seven" unicode="7" horiz-adv-x="833" 
d="M92 866l74 420l108 -14v-55h416l66 -150q-130 -197 -195 -442.5t-65 -479.5v-145h-283v49q0 111 25.5 229.5t58 208t84.5 191.5t83 153.5t75 120.5h-189q-118 3 -176 -104z" />
    <glyph glyph-name="eight" unicode="8" horiz-adv-x="833" 
d="M272 432q0 -80 76.5 -157.5t149.5 -77.5q48 0 70 23.5t22 55.5t-19 66t-54 67t-64.5 57t-71 53.5t-53.5 39.5q-56 -29 -56 -127zM387 1106q-39 0 -60.5 -26t-21.5 -76q0 -66 65.5 -128t149.5 -100q31 50 31 119q0 68 -50 139.5t-114 71.5zM72 303q0 205 161 336
q-122 92 -122 281q0 136 103.5 231.5t240.5 95.5q124 0 201 -79.5t77 -200.5q0 -145 -110 -260q71 -63 106 -137t35 -171q0 -180 -113 -305t-282 -125q-137 0 -217 95t-80 239z" />
    <glyph glyph-name="nine" unicode="9" horiz-adv-x="833" 
d="M426 586q39 0 56.5 31.5t17.5 99.5q0 42 -12 96.5t-33.5 109t-57.5 91.5t-78 37q-79 0 -79 -133q0 -41 13 -96t35 -108.5t59 -90.5t79 -37zM55 76l199 225q18 -36 25.5 -49t26.5 -39t40 -36.5t47 -10.5q68 0 102.5 66t34.5 147q0 57 -8 96q-84 -74 -196 -74
q-125 0 -203 96t-78 236q0 136 43 252t129.5 189t200.5 73q78 0 141.5 -35t105 -91.5t69.5 -131.5t40 -152t12 -157q0 -140 -32 -267t-91 -226.5t-151.5 -158.5t-204.5 -59q-78 0 -145 31t-107 76z" />
    <glyph glyph-name="colon" unicode=":" horiz-adv-x="415" 
d="M88 651q0 58 33 110t88 52t88 -52t33 -110t-33 -110t-88 -52t-88 52t-33 110zM88 145q0 58 33 110t88 52t88 -52t33 -110t-33 -109.5t-88 -51.5t-88 51.5t-33 109.5z" />
    <glyph glyph-name="semicolon" unicode=";" horiz-adv-x="415" 
d="M145 -172l-53 90q28 17 42 34t20 48q-32 19 -49 60.5t-17 84.5q0 60 32 111t89 51q55 0 88 -52t33 -110q0 -103 -48 -191t-137 -126zM88 651q0 58 33 110t88 52t88 -52t33 -110t-33 -110t-88 -52t-88 52t-33 110z" />
    <glyph glyph-name="less" unicode="&#x3c;" horiz-adv-x="1228" 
d="M1135 205v-236l-1041 439v192l1041 436v-235l-721 -297z" />
    <glyph glyph-name="equal" unicode="=" horiz-adv-x="1228" 
d="M115 598v238h999v-238h-999zM115 168v238h999v-238h-999z" />
    <glyph glyph-name="greater" unicode="&#x3e;" horiz-adv-x="1228" 
d="M94 205l721 299l-721 297v235l1041 -436v-192l-1041 -439v236z" />
    <glyph glyph-name="question" unicode="?" horiz-adv-x="796" 
d="M438 422h-178q-1 117 18.5 205t48.5 140.5t58 98.5t49.5 107t20.5 139q0 65 -23 108.5t-63 43.5q-29 0 -47.5 -26.5t-18.5 -78.5q0 -82 49 -219l-252 -131q-17 35 -29 107t-12 139q0 156 108.5 266.5t264.5 110.5q90 0 162 -50t109.5 -128t37.5 -167q0 -70 -17.5 -129
t-45 -100t-60.5 -78t-66 -72.5t-59.5 -74.5t-41.5 -92.5t-13 -118.5zM236 145q0 59 32.5 110.5t87.5 51.5t88 -52t33 -110t-33 -109.5t-88 -51.5t-87.5 51.5t-32.5 109.5z" />
    <glyph glyph-name="at" unicode="@" horiz-adv-x="1638" 
d="M1028 848q0 54 -18.5 81t-61.5 27q-55 0 -109.5 -54.5t-87 -135.5t-32.5 -156q0 -82 21.5 -129t64.5 -47q54 0 98.5 41.5t70.5 106t40 134t14 132.5zM1081 985l17 70h162l-121 -500q-4 -14 -4 -41q0 -66 9.5 -86.5t49.5 -21.5q44 -1 90 69.5t74 165t28 166.5
q0 132 -75 239.5t-195.5 165.5t-257.5 58q-155 0 -273 -82t-179.5 -221.5t-61.5 -313.5q0 -149 77.5 -271t199.5 -187.5t260 -65.5q243 0 417 100l21 -129q-226 -133 -442 -133q-169 0 -317.5 57.5t-251.5 153.5t-162.5 224t-59.5 266q0 216 102 391.5t278.5 274t391.5 98.5
q137 0 262.5 -44t222 -123t154 -198t57.5 -260q0 -84 -26.5 -171.5t-75 -163t-125.5 -123.5t-168 -48q-67 0 -127.5 49t-62.5 105h-4q-27 -58 -106 -106t-142 -48q-87 0 -142 76.5t-55 185.5q0 69 18.5 141.5t55 141t85.5 122.5t116.5 86.5t142.5 32.5q106 0 139 -102h4z
" />
    <glyph glyph-name="A" unicode="A" horiz-adv-x="1138" 
d="M340 0h-307v162h69l330 1237h273l342 -1237h61v-162h-483v162h90l-45 174h-359l-37 -174h66v-162zM614 516l-131 494h-4l-125 -494h260z" />
    <glyph glyph-name="B" unicode="B" horiz-adv-x="1138" 
d="M494 729v-477q0 -63 26 -86t88 -23q25 0 46 13t41.5 43.5t32 92.5t11.5 150q0 153 -54 218.5t-191 68.5zM494 1237v-346q40 4 64.5 8t52 15t42.5 28.5t25 48t10 72.5q0 96 -44 135t-150 39zM84 0v162h74v1075h-74v162h539q185 0 280.5 -79.5t95.5 -227.5q0 -116 -60 -178
t-175 -87v-4q158 -36 234.5 -128t76.5 -253q0 -110 -25.5 -190.5t-81.5 -138t-149.5 -85.5t-226.5 -28h-508z" />
    <glyph glyph-name="C" unicode="C" 
d="M967 1194l-340 -336l-66 107q45 60 45 141q0 50 -29.5 95.5t-78.5 45.5q-39 0 -68 -25t-44.5 -61t-25 -87t-12 -91t-2.5 -84q0 -68 8 -143.5t30 -164t55.5 -157.5t91.5 -115.5t131 -46.5q17 0 34 3t30 6t29 12t25 13t25.5 18.5t22 18.5t23 22.5t20.5 22t21.5 25
t20.5 23.5l82 -100q-44 -69 -73 -111.5t-77.5 -97.5t-93 -85.5t-107.5 -52.5t-134 -22q-95 0 -174 41.5t-131 109t-89 154.5t-53 175.5t-16 175.5q0 61 8 130t27 148.5t47.5 153.5t73 143.5t99 120.5t130.5 82t164 31q55 0 105 -24.5t83 -56.5t72 -83l41 37z" />
    <glyph glyph-name="D" unicode="D" horiz-adv-x="1214" 
d="M98 0v162h74v1075h-74v162h379q111 0 209 -24.5t184.5 -78.5t148.5 -134.5t98 -199.5t36 -266q0 -189 -72.5 -346t-215 -253.5t-330.5 -96.5h-437zM508 1237v-1075q60 0 108.5 18.5t80 48t55 75.5t35.5 89.5t19.5 103t9 103.5t1.5 102q0 56 -4 107t-15 113.5t-33 113
t-54.5 95.5t-84.5 72.5t-118 33.5z" />
    <glyph glyph-name="E" unicode="E" horiz-adv-x="1062" 
d="M786 909v101h129v-361h-129v99h-276v-586h106q41 0 65 2t45 10.5t31 21t17 38t9 56t3 81.5h129v-371h-815v162h74v1075h-74v162h815v-281h-129q0 50 -23.5 84.5t-70.5 34.5h-182v-328h276z" />
    <glyph glyph-name="F" unicode="F" 
d="M584 0h-484v162h74v1075h-74v162h815v-281h-129q0 50 -23.5 84.5t-70.5 34.5h-182v-328h276v101h129v-361h-129v99h-276v-586h74v-162z" />
    <glyph glyph-name="G" unicode="G" horiz-adv-x="1175" 
d="M973 0l-60 121q-171 -154 -381 -154q-109 0 -201 59.5t-151 157t-92 221t-33 254.5q0 206 77.5 382.5t217.5 283.5t312 107q132 0 276 -136l47 37l84 -98l-346 -285l-76 90q47 31 47 88q0 51 -35 85t-86 34q-38 0 -69 -19.5t-51 -49.5t-34.5 -74t-22 -83.5t-11.5 -88.5
t-5 -79t-1 -65q0 -70 9.5 -143t35 -153t63 -141t100 -100t140.5 -38v440h-147v187h297q111 0 184 12l43 -66q-41 -81 -41 -188v-598h-90z" />
    <glyph glyph-name="H" unicode="H" horiz-adv-x="1290" 
d="M1192 0h-479v162h69v567h-274v-567h70v-162h-480v162h74v1075h-74v162h480v-162h-70v-328h274v328h-69v162h479v-162h-74v-1075h74v-162z" />
    <glyph glyph-name="I" unicode="I" horiz-adv-x="681" 
d="M584 0h-484v162h74v1075h-74v162h484v-162h-74v-1075h74v-162z" />
    <glyph glyph-name="J" unicode="J" horiz-adv-x="681" 
d="M195 1237h-74v162h483v-162h-74v-934q0 -151 -102 -243.5t-260 -92.5q-50 0 -117 19l-12 207q35 -5 45 -5q111 0 111 125v924z" />
    <glyph glyph-name="K" unicode="K" horiz-adv-x="1175" 
d="M584 0h-484v162h74v1075h-74v162h484v-162h-74v-420h4l297 420h-84v162h356v-162h-73l-215 -299l297 -776h82v-162h-375q-34 130 -123.5 363.5t-108.5 289.5h-4l-53 -82v-409h74v-162z" />
    <glyph glyph-name="L" unicode="L" horiz-adv-x="948" 
d="M176 162v1075h-74v162h484v-162h-74v-1075h78q101 0 146.5 51t45.5 166h123l-12 -434h-145v55h-646v162h74z" />
    <glyph glyph-name="M" unicode="M" horiz-adv-x="1402" 
d="M1262 1237h-72l72 -1075h71v-162h-465v162h76l-41 647h-4q-98 -271 -125.5 -382.5t-79.5 -426.5h-151q-18 108 -27.5 163.5t-24 127t-17.5 89.5t-22.5 88.5t-23.5 83.5t-35.5 115t-44.5 146h-4l-51 -651h78v-162h-299v162h69l86 1075h-69v162h346l196 -688h5
q10 29 72.5 194t103.5 292.5t49 201.5h332v-162z" />
    <glyph glyph-name="N" unicode="N" horiz-adv-x="1175" 
d="M416 0h-320v162h74v1075h-74v162h355l378 -715h5v553h-74v162h319v-162h-73v-1239h-199q-49 146 -124 298t-182 342.5t-155 285.5h-4v-762h74v-162z" />
    <glyph glyph-name="O" unicode="O" horiz-adv-x="1214" 
d="M526 1270q-68 0 -105.5 -71t-37.5 -238q0 -58 10.5 -153t34.5 -214t57.5 -222t87 -173t115.5 -70q68 0 105.5 71t37.5 238q0 58 -10.5 153t-34.5 214t-57.5 222t-87 173t-115.5 70zM582 -33q-107 0 -202.5 50.5t-166.5 140.5t-112.5 224.5t-41.5 293.5q0 174 44 317
t121.5 239t182.5 148t226 52q107 0 202.5 -50.5t166 -140.5t112 -224.5t41.5 -293.5q0 -174 -44 -317t-121 -239t-182 -148t-226 -52z" />
    <glyph glyph-name="P" unicode="P" horiz-adv-x="1138" 
d="M508 1237v-573q4 -67 27 -95t73 -28q140 0 140 295q0 80 -12 147.5t-38 126.5t-74.5 93t-115.5 34zM610 0h-512v162h74v1075h-74v162h365q116 0 205.5 -14t169.5 -50t132.5 -95t82.5 -152.5t30 -219.5q0 -236 -121.5 -353.5t-371.5 -117.5h-82v-235h102v-162z" />
    <glyph glyph-name="Q" unicode="Q" horiz-adv-x="1214" 
d="M526 1270q-68 0 -105.5 -71t-37.5 -238q0 -58 10.5 -153t34.5 -214t57.5 -222t87 -173t115.5 -70q68 0 105.5 71t37.5 238q0 58 -10.5 153t-34.5 214t-57.5 222t-87 173t-115.5 70zM340 -250l-57 137q16 5 76 27t110 38t68 15l4 4q-135 12 -243.5 99.5t-173.5 245.5
t-65 360q0 174 44 317t121.5 239t182.5 148t226 52q107 0 202.5 -50.5t166 -140.5t112 -224.5t41.5 -293.5q0 -319 -139.5 -520.5t-360.5 -231.5v-4q68 -3 144 -29.5t131 -56t119.5 -54t113.5 -24.5l-188 -223q-32 -8 -95.5 23t-125.5 73t-134 77.5t-118 35.5
q-85 0 -162 -39z" />
    <glyph glyph-name="R" unicode="R" horiz-adv-x="1175" 
d="M559 0h-475v162h74v1075h-74v162h418q309 0 445 -117.5t136 -372.5q0 -68 -21.5 -135.5t-71.5 -129t-120 -91.5l168 -391h74v-162h-369q-16 75 -44.5 155t-68 178.5t-57.5 149.5q-25 -10 -79 -14v-307h65v-162zM494 1237v-606q254 5 254 338q0 133 -58.5 199t-195.5 69z
" />
    <glyph glyph-name="S" unicode="S" 
d="M846 1399l104 -76l-159 -328q-14 14 -45.5 46.5t-52.5 53t-54 49t-60.5 45t-62 28.5t-67.5 12q-43 0 -79 -30t-36 -73q0 -49 34 -89t89 -69.5t121 -59.5t132.5 -68.5t121.5 -86.5t90 -122.5t36 -167.5q0 -138 -66.5 -252t-181.5 -179t-253 -65q-47 0 -99 15.5t-85.5 30.5
t-91 55t-74 52.5t-76.5 59.5l162 322q61 -63 129.5 -123.5t156 -115t142.5 -54.5q59 0 96 27.5t37 80.5q0 40 -21.5 74t-57.5 60t-83 51t-99 50.5t-103.5 53.5t-98.5 65.5t-83 81.5t-57.5 105.5t-21.5 134.5q0 178 131.5 308.5t308.5 130.5q100 0 236 -103z" />
    <glyph glyph-name="T" unicode="T" horiz-adv-x="1062" 
d="M774 0h-483v162h74v1075q-81 -6 -125.5 -68.5t-51.5 -152.5h-135l33 432h143l-4 -49h615l-4 49h143l33 -432h-135q-7 90 -51.5 152.5t-125.5 68.5v-1075h74v-162z" />
    <glyph glyph-name="U" unicode="U" horiz-adv-x="1214" 
d="M764 0l-31 117q-43 -68 -116.5 -109t-155.5 -41q-141 0 -225 84.5t-84 233.5v952h-74v162h409v-1071q0 -127 119 -127t119 127v909h-74v162h410v-1237h74v-162h-371z" />
    <glyph glyph-name="V" unicode="V" horiz-adv-x="1099" 
d="M434 1237l51 -223h4q88 226 154 310.5t174 84.5q22 0 57 -7t76 -7q34 0 58 6l55 -70l-344 -1186q-12 -40 -29 -145h-282q-1 9 -5 43t-7.5 56.5t-8.5 43.5l-281 1094h-67v162h455v-162h-60zM516 911l121 -485h4l176 635q-27 0 -71.5 15.5t-73.5 15.5q-48 0 -79.5 -39
t-76.5 -142z" />
    <glyph glyph-name="W" unicode="W" horiz-adv-x="1630" 
d="M995 1237l45 -199h4q4 11 19.5 52.5t26 67.5t30 68.5t39.5 70t46 56t57 42.5t65 14q24 0 59 -10t82 -10q40 0 80 6l51 -52q-24 -46 -59 -174l-256 -956q-37 -146 -39 -213h-293q0 91 -26 193l-90 352h-5l-108 -363q-22 -73 -33 -182h-282q-7 76 -50 252l-256 985h-69v162
h493v-162h-92l209 -801h4l119 406l-94 395h-84v162h483v-162h-76zM1192 424l162 641q-20 -4 -35 -4q-8 0 -38.5 18.5t-66.5 18.5q-26 0 -46.5 -13.5t-37 -41.5t-26.5 -50.5t-24 -60.5q-5 -13 -7 -19l115 -489h4z" />
    <glyph glyph-name="X" unicode="X" horiz-adv-x="1099" 
d="M358 0h-323v162h78l258 586l-215 489h-80v162h522v-162h-94l149 -348l154 348h-86v162h313v-162h-59l-244 -520l242 -555h94v-162h-526v162h82l-172 401l-175 -401h82v-162z" />
    <glyph glyph-name="Y" unicode="Y" horiz-adv-x="1062" 
d="M346 -23l-70 68l189 406l-375 786h-72v162h508v-162h-86l195 -410l180 410h-72v162h304v-162h-66l-418 -934q27 8 66 8q14 0 71.5 -7t73.5 -7q26 0 43.5 20.5t34.5 61.5l90 -27l-70 -348q-87 -37 -149 -37q-44 0 -127.5 24.5t-116.5 24.5q-20 0 -65.5 -14t-67.5 -25z" />
    <glyph glyph-name="Z" unicode="Z" horiz-adv-x="985" 
d="M737 0h-598l-67 231l524 869q-98 20 -141 20q-82 0 -130 -41.5t-85 -144.5h-129l55 530h147l-4 -65h533l65 -240q-38 -38 -84 -110l-415 -691q51 -20 155 -20q176 0 219 170h133l-41 -578h-141z" />
    <glyph glyph-name="bracketleft" unicode="[" horiz-adv-x="681" 
d="M147 -281v1680h412v-158h-151v-1364h151v-158h-412z" />
    <glyph glyph-name="backslash" unicode="\" horiz-adv-x="569" 
d="M-104 1432h170l610 -1463h-170z" />
    <glyph glyph-name="bracketright" unicode="]" horiz-adv-x="681" 
d="M123 1399h412v-1680h-412v158h151v1364h-151v158z" />
    <glyph glyph-name="asciicircum" unicode="^" horiz-adv-x="1228" 
d="M387 465h-237l356 752h217l356 -752h-239l-226 508z" />
    <glyph glyph-name="underscore" unicode="_" 
d="M1024 -256h-1024v102h1024v-102z" />
    <glyph glyph-name="grave" unicode="`" horiz-adv-x="569" 
d="M143 1495l367 -199l-41 -118l-408 106z" />
    <glyph glyph-name="a" unicode="a" horiz-adv-x="948" 
d="M569 0l-37 86q-35 -56 -101.5 -86.5t-139.5 -30.5q-120 0 -189 89.5t-69 222.5q0 117 54.5 203.5t139 127.5t183.5 41q56 0 120 -6q1 47 1 87t-21.5 66.5t-67.5 26.5q-59 0 -106 -38t-94 -101l-105 35l101 350l104 -31v-57q92 51 213 51q116 0 195 -72t79 -186v-655h74
v-123h-334zM530 276v250q-24 4 -34 4q-81 0 -122.5 -44t-41.5 -121q0 -177 110 -177q42 0 65 23t23 65z" />
    <glyph glyph-name="b" unicode="b" horiz-adv-x="985" 
d="M51 1178v110l443 144v-111l-72 -27v-387q46 41 77 64.5t79.5 44t97.5 20.5t90 -26t66.5 -66.5t43.5 -91.5t25.5 -98t7.5 -90q0 -71 -13.5 -148.5t-39 -155.5t-67.5 -148t-94.5 -124.5t-124 -86.5t-152.5 -32q-72 0 -163.5 36.5t-141.5 86.5q10 88 10 115v995zM422 741
v-395q0 -6 1.5 -26t2 -26.5t2.5 -23.5t4 -23.5t6.5 -20t9.5 -19t13 -14t17.5 -12t22.5 -6.5t29 -3q27 0 47.5 10t33 30t20.5 41t11 54t4 57t1 60q0 136 -18 220t-48 116.5t-73 32.5q-27 0 -56.5 -14t-29.5 -38z" />
    <glyph glyph-name="c" unicode="c" horiz-adv-x="796" 
d="M741 829l-204 -260q-7 30 -19.5 68t-33.5 87t-50 81.5t-59 32.5q-78 0 -78 -166q0 -45 5 -94.5t19.5 -107.5t36.5 -103t60 -75t86 -30q17 0 33.5 4t32.5 15t26 18t26.5 26t22 25t23.5 29.5t20 26.5l68 -64q-17 -69 -46.5 -131.5t-72.5 -118.5t-105 -89.5t-133 -33.5
q-91 0 -162 41t-112 109.5t-61.5 148t-20.5 166.5q0 113 30.5 221t84 193t135.5 136.5t178 51.5q52 0 103.5 -25.5t86 -60t56.5 -68t24 -53.5z" />
    <glyph glyph-name="d" unicode="d" 
d="M590 295v455q0 61 -27.5 100t-73.5 39q-75 0 -107 -64t-32 -215q0 -95 11.5 -167t28.5 -112.5t40.5 -65.5t44 -32.5t43.5 -7.5q72 0 72 70zM590 1006v196l-74 -24v110l447 144v-111l-74 -25v-1173h74v-123h-345l-30 106q-109 -137 -256 -137q-79 0 -136 43t-87.5 117
t-44 156.5t-13.5 177.5q0 81 12.5 158.5t42 153.5t73.5 133t112 92.5t153 35.5q54 0 146 -30z" />
    <glyph glyph-name="e" unicode="e" horiz-adv-x="833" 
d="M737 313l51 -82q-66 -117 -167.5 -189.5t-225.5 -72.5q-148 0 -250 142.5t-102 355.5q0 107 26 208t74 182t122.5 130t164.5 49q77 0 145 -44t111.5 -111t68.5 -142.5t27 -142.5l-432 -205q16 -79 62 -129.5t112 -50.5q58 0 119.5 31t93.5 71zM313 537l205 110
q-17 117 -36 164q-34 77 -91 78q-94 0 -94 -205q0 -69 16 -147z" />
    <glyph glyph-name="f" unicode="f" horiz-adv-x="645" 
d="M166 823h-92l45 158h67q-24 87 -24 170q0 75 48.5 141t121 103t145.5 37q82 0 138.5 -36.5t80.5 -84.5l-178 -166q-8 139 -78 139q-53 0 -53 -84q0 -35 10 -71t32 -71.5t62.5 -57.5t94.5 -23l-47 -154h-74v-700h74v-123h-447v123h74v700z" />
    <glyph glyph-name="g" unicode="g" horiz-adv-x="948" 
d="M514 350q49 0 75.5 37t26.5 96q0 42 -4 90t-16 107.5t-30 106t-49 78.5t-71 32q-49 0 -75.5 -37t-26.5 -96q0 -42 4 -90t16 -107.5t30 -106t49 -78.5t71 -32zM635 -170q0 56 -40.5 98.5t-102.5 46.5q-22 -23 -35 -61t-13 -68q0 -47 22.5 -81.5t70.5 -34.5q42 0 70 28
t28 72zM870 1229l-26 -209q-8 3 -19 7.5t-17 6.5t-15.5 4t-20.5 2q-21 0 -39 -17t-18 -40q0 -3 17.5 -17t42 -39.5t49 -61.5t42 -94.5t17.5 -127.5q0 -43 -8 -83t-20 -72t-34 -63.5t-42.5 -54.5t-53.5 -48.5t-58.5 -43t-66 -39.5t-67.5 -35.5t-72 -35.5v-4q49 -6 95 -15
t104 -29t100 -46t71 -69.5t29 -96.5q0 -69 -36 -126.5t-93.5 -92t-124.5 -53.5t-133 -19q-254 0 -254 166q0 72 57 125.5t136 85.5v4q-22 0 -69.5 6t-72.5 6q-26 0 -77 -4t-76 -4l-62 94q170 56 310 146q-142 42 -214.5 151t-72.5 262q0 111 60.5 199.5t156.5 135t205 46.5
q26 0 123 -18q16 55 26.5 84t29.5 60.5t42.5 44.5t60 20t88.5 2z" />
    <glyph glyph-name="h" unicode="h" horiz-adv-x="1062" 
d="M133 123v1069l-74 -23v119l447 144v-119l-74 -25v-389q31 27 43 38t44.5 34.5t55.5 34t57.5 20.5t69.5 10q116 0 173 -67.5t57 -190.5v-655h74v-123h-447v123h74v565q0 100 -92 100q-60 0 -109 -49v-616h74v-123h-447v123h74z" />
    <glyph glyph-name="i" unicode="i" horiz-adv-x="569" 
d="M506 0h-440v123h69v692l-69 -22v118l376 125q-8 -104 -8 -231v-682h72v-123zM459 1264q0 -81 -56 -140t-137 -59q-48 0 -82 31t-34 78q0 79 56.5 137.5t135.5 58.5q45 0 81 -31t36 -75z" />
    <glyph glyph-name="j" unicode="j" horiz-adv-x="569" 
d="M82 -344l-27 119q52 20 75.5 51.5t23.5 107.5v881l-74 -22v118l383 125q-8 -138 -10 -202v-756q0 -139 -36.5 -222t-114.5 -128.5t-220 -71.5zM477 1264q0 -81 -55.5 -140t-136.5 -59q-48 0 -82.5 31t-34.5 78q0 79 56.5 137.5t135.5 58.5q45 0 81 -31t36 -75z" />
    <glyph glyph-name="k" unicode="k" 
d="M440 436l178 137l48 -71q32 53 32 114q0 75 -36.5 118.5t-94.5 43.5q-68 0 -127 -49v-293zM498 0h-430v123h73v1069l-73 -23v119l454 144v-119l-82 -27v-403q54 60 124 106.5t134 46.5q120 0 180 -85.5t60 -215.5q0 -111 -57 -191t-162 -124l178 -297h74v-123h-318
l-209 362h-4v-239h58v-123z" />
    <glyph glyph-name="l" unicode="l" horiz-adv-x="569" 
d="M506 0h-440v123h69v1069l-67 -23v119l434 144v-119l-68 -23v-1167h72v-123z" />
    <glyph glyph-name="m" unicode="m" horiz-adv-x="1554" 
d="M502 0h-447v123h74v694l-74 -22v114l373 121v-133q5 4 35.5 27.5t39 29.5t35 24.5t41 24.5t38.5 16t46 13.5t46 3.5q71 0 125.5 -42t78.5 -109q58 60 142.5 105.5t158.5 45.5q213 0 213 -258v-655h74v-123h-446v123h73v577q0 88 -94 88q-30 0 -60 -16t-46 -37v-612h73
v-123h-446v123h74v577q0 88 -94 88q-30 0 -60.5 -16t-46.5 -37v-612h74v-123z" />
    <glyph glyph-name="n" unicode="n" horiz-adv-x="1062" 
d="M506 0h-447v123h74v694l-74 -22v114l373 127v-139q35 32 55 49t57 42t76 36.5t82 11.5q116 0 173 -67.5t57 -190.5v-655h74v-123h-447v123h74v565q0 100 -92 100q-60 0 -109 -49v-616h74v-123z" />
    <glyph glyph-name="o" unicode="o" 
d="M473 889q-53 0 -89 -54t-36 -178q0 -265 56 -402.5t147 -137.5q53 0 89 53.5t36 177.5q0 265 -56 403t-147 138zM512 1036q112 0 202.5 -45.5t146 -121.5t85 -169.5t29.5 -195.5q0 -103 -29.5 -197t-85 -170.5t-146 -122t-202.5 -45.5t-202.5 45.5t-146 122t-85 170.5
t-29.5 197q0 102 29.5 195.5t85 169.5t146 121.5t202.5 45.5z" />
    <glyph glyph-name="p" unicode="p" 
d="M436 797v-521q0 -96 18.5 -127.5t80.5 -31.5q29 0 51 13.5t41 46.5t29 97.5t10 159.5q0 161 -49 269t-125 108q-34 0 -56 -14zM436 2v-227h74v-119h-447v123h74v1044l-74 -18v108l377 123l-4 -88q40 27 67 43t69 30.5t81 14.5q75 0 136.5 -45t98.5 -117t57 -154.5
t20 -164.5q0 -120 -25 -224t-74 -186t-129 -129t-182 -47q-69 0 -119 33z" />
    <glyph glyph-name="q" unicode="q" 
d="M344 580q0 -68 8.5 -131.5t27 -122.5t54 -95t82.5 -36q45 0 60.5 18t15.5 61v476q0 62 -28.5 100.5t-80.5 38.5q-76 0 -107.5 -68.5t-31.5 -240.5zM758 938l141 98q-8 -145 -8 -325v-932h74v-123h-447v123h74v289h-4q-30 -41 -92.5 -70t-124.5 -29q-82 0 -146 39
t-102.5 104.5t-58 146t-19.5 169.5q0 117 29.5 225t84.5 194t142 137.5t193 51.5q44 0 79 -6.5t70 -23.5t54 -28.5t61 -39.5z" />
    <glyph glyph-name="r" unicode="r" horiz-adv-x="757" 
d="M768 1006l-96 -342q-68 30 -121 30q-49 0 -72.5 -29.5t-23.5 -119.5v-422h114v-123h-487v123h74v694l-74 -22v114l340 127v-241h4q25 125 41 163q33 78 96 78q55 0 90 -35l15 48z" />
    <glyph glyph-name="s" unicode="s" horiz-adv-x="796" 
d="M47 88l131 256q144 -207 260 -207q32 0 55 20.5t23 51.5q0 28 -22 55.5t-57.5 52.5t-78 52t-85.5 61.5t-78.5 74.5t-57.5 97t-22 123q0 133 102.5 222t237.5 89q45 0 93.5 -16.5t80 -34.5t78.5 -49l-107 -207q-36 48 -102.5 104t-110.5 56q-37 0 -57.5 -23t-20.5 -61
q0 -27 22 -55t57.5 -55t78.5 -56.5t86 -63.5t78.5 -71.5t57.5 -86t22 -100.5q0 -153 -103 -250.5t-256 -97.5q-80 0 -160.5 31t-144.5 88z" />
    <glyph glyph-name="t" unicode="t" horiz-adv-x="645" 
d="M135 225v623h-74v121q105 30 180 110.5t105 188.5l94 -33q-6 -30 -6 -82v-147h152l-27 -158h-125v-574q0 -54 13 -73t49 -19t71 27l39 -86q-42 -65 -114 -109.5t-148 -44.5q-103 0 -156 57.5t-53 198.5z" />
    <glyph glyph-name="u" unicode="u" 
d="M627 0l-21 90q-92 -121 -252 -121q-114 0 -177.5 70t-63.5 205v573l-74 -22v114l383 127q-10 -120 -10 -215v-499q0 -59 21 -82t79 -23t79 23t21 82v495l-73 -22v114l383 127q-11 -132 -11 -215v-698h74v-123h-358z" />
    <glyph glyph-name="v" unicode="v" horiz-adv-x="909" 
d="M547 371l129 372q-12 -4 -17 -4q-20 0 -63 19.5t-66 19.5q-39 0 -60 -31.5t-21 -74.5l94 -301h4zM854 1006l43 -43q-35 -56 -63 -150l-267 -813h-207l-249 741l-56 -43l-43 109l320 229q5 -47 22 -102l56 -180h4q77 282 217 282q25 0 79 -25.5t78 -25.5q31 0 66 21z" />
    <glyph glyph-name="w" unicode="w" horiz-adv-x="1327" 
d="M985 362l117 383q-4 -2 -15 -2q-21 0 -59 17.5t-59 17.5q-27 0 -47 -32t-29 -91l88 -293h4zM1264 1006l45 -48q-21 -29 -56 -145l-215 -733q-16 -52 -20 -80h-211l-125 436h-4l-107 -356q-16 -52 -20 -80h-209q-4 28 -20 80l-228 663l-55 -32l-39 104l313 221
q17 -70 19 -78l190 -600h4l86 273l-49 127l-63 -39l-39 106l313 211q17 -70 19 -78l59 -221h4q23 141 73 220t99 79q33 0 98.5 -26.5t83.5 -26.5q31 0 54 23z" />
    <glyph glyph-name="x" unicode="x" horiz-adv-x="872" 
d="M37 1006h442v-123h-53l90 -193l96 193h-53v123h262v-123h-73l-175 -332l199 -428h74v-123h-459v123h74l-119 252l-117 -252h74v-123h-283v123h74l184 401l-163 359h-74v123z" />
    <glyph glyph-name="y" unicode="y" horiz-adv-x="909" 
d="M51 707l-33 104l314 225q5 -47 22 -102l56 -180h4q77 282 217 282q25 0 79 -25.5t78 -25.5q31 0 66 21l43 -43q-35 -56 -63 -150l-285 -854q-46 -142 -106 -222.5t-144 -80.5q-68 0 -127 16l33 279q57 -37 123 -37q43 0 72.5 25t23.5 63l-315 739zM449 682l118 -283
l125 355q-16 -4 -22 -4q-22 0 -65 14t-68 14q-59 0 -88 -96z" />
    <glyph glyph-name="z" unicode="z" horiz-adv-x="796" 
d="M268 1006h389l48 -129l-9 -9q-10 -8 -17 -16.5t-15 -22.5l-361 -598q29 -2 80 -2q58 0 100 13.5t71.5 42.5t47 58t39.5 77l76 -12l-55 -463h-105l6 55h-434l-57 170l374 623q-30 6 -57 6q-70 0 -111 -34.5t-85 -111.5l-82 21l69 383h94z" />
    <glyph glyph-name="braceleft" unicode="{" horiz-adv-x="681" 
d="M207 -4v356q0 96 -31 146.5t-125 79.5q94 28 125 78.5t31 146.5v352q0 54 9 95t24.5 70.5t43 49.5t57.5 32.5t76.5 19t90.5 8.5t108 2v-74q-47 -13 -78 -37t-46 -59t-20 -69t-5 -79v-283q0 -42 -3 -71t-12.5 -60t-27 -52t-48.5 -39t-75 -29v-5q54 -14 88.5 -37t51 -58
t21.5 -69t5 -87v-287q0 -45 5 -79t20 -69t46 -59t78 -37v-74q-64 0 -108 2t-90.5 8.5t-76.5 19t-57.5 32.5t-43 49.5t-24.5 70.5t-9 95z" />
    <glyph glyph-name="bar" unicode="|" horiz-adv-x="454" 
d="M109 -512v2048h237v-2048h-237z" />
    <glyph glyph-name="braceright" unicode="}" horiz-adv-x="681" 
d="M215 37v287q0 53 5 87t21.5 69t51 58t88.5 37v5q-44 11 -75 29t-48.5 39t-27 52t-12.5 60t-3 71v283q0 45 -5 79t-20 69t-46 59t-78 37v74q64 0 108 -2t90.5 -8.5t76.5 -19t57.5 -32.5t43 -49.5t24.5 -70.5t9 -95v-352q0 -96 31 -146.5t125 -78.5q-94 -29 -125 -79.5
t-31 -146.5v-356q0 -54 -9 -95t-24.5 -70.5t-43 -49.5t-57.5 -32.5t-76.5 -19t-90.5 -8.5t-108 -2v74q47 13 78 37t46 59t20 69t5 79z" />
    <glyph glyph-name="asciitilde" unicode="~" horiz-adv-x="1228" 
d="M1014 694l73 -196q-30 -42 -51.5 -67.5t-53.5 -53.5t-69.5 -41.5t-81.5 -13.5q-36 0 -77 11.5t-66 22.5t-72 35q-44 22 -71.5 34.5t-71.5 24t-86 11.5q-106 0 -172 -148l-74 197q93 176 256 176q84 0 236 -70q122 -56 166 -65q19 -4 35 -4q30 0 57 12.5t51.5 39.5t37 44
t34.5 51z" />
    <glyph glyph-name="uni00A0" unicode="&#xa0;" horiz-adv-x="415" 
 />
    <glyph glyph-name="exclamdown" unicode="&#xa1;" horiz-adv-x="569" 
d="M403 903q0 -59 -32.5 -110.5t-87.5 -51.5t-88 52t-33 110t33 110t88 52t87.5 -51.5t32.5 -110.5zM225 627h119q1 -156 27.5 -328t53 -300t26.5 -177q0 -84 -44 -144.5t-122 -60.5t-122 60.5t-44 144.5q0 49 26 177t52.5 300t27.5 328z" />
    <glyph glyph-name="cent" unicode="&#xa2;" horiz-adv-x="833" 
d="M313 1053v194h179v-157q79 -4 145.5 -57t95.5 -126l-192 -215q-10 75 -54 149t-96 74q-88 0 -88 -147q0 -49 13.5 -106.5t39 -112.5t69.5 -91t99 -36q89 0 166 110l60 -53q-24 -107 -90.5 -188t-167.5 -117v-205h-179v199q-83 19 -142 81t-86.5 144t-27.5 174
q0 160 69 291.5t187 194.5z" />
    <glyph glyph-name="sterling" unicode="&#xa3;" horiz-adv-x="833" 
d="M768 375l-20 -416h-119l2 41h-479l-52 229q143 105 127 308h-108v151h61q-43 93 -43 217q0 144 102 243t246 99q96 0 173 -52t114 -142l-227 -226q-6 40 -14 76t-23.5 83t-39 75.5t-52.5 28.5q-35 0 -52.5 -21t-17.5 -57q0 -28 35 -91t70 -130t36 -103h158v-151h-158
q-16 -150 -114 -263h145q64 0 102 22t44 79h104z" />
    <glyph glyph-name="currency" unicode="&#xa4;" horiz-adv-x="833" 
d="M696 682l82 -78l-86 -86l-78 82q-68 -63 -200 -63q-133 0 -201 63l-78 -82l-86 86l82 78q-61 70 -61 199q0 127 61 194l-82 80l86 86l78 -74q86 58 201 58q114 0 200 -58l78 74l86 -86l-82 -80q62 -68 62 -194q0 -128 -62 -199zM606 881q0 77 -56.5 134.5t-135.5 57.5
t-136 -57.5t-57 -134.5q0 -82 55.5 -137.5t137.5 -55.5t137 55.5t55 137.5z" />
    <glyph glyph-name="yen" unicode="&#xa5;" horiz-adv-x="833" 
d="M862 1094h-57l-141 -334h120v-123h-170l-41 -96h211v-123h-217v-295h62v-123h-398v123h62v295h-244v123h238l-43 96h-195v123h137l-151 334h-64v123h441v-123h-72l166 -367l153 367h-59v123h262v-123z" />
    <glyph glyph-name="brokenbar" unicode="&#xa6;" horiz-adv-x="454" 
d="M109 -358v819h237v-819h-237zM109 666v716h237v-716h-237z" />
    <glyph glyph-name="section" unicode="&#xa7;" 
d="M270 618q0 -40 26.5 -68t73.5 -44t94.5 -26.5t106 -22.5t91.5 -25q34 9 63 47t29 99q0 29 -23 51t-66.5 37.5t-89 27t-109.5 28t-108 32.5q-88 -70 -88 -136zM825 1432l119 -52l-117 -315q-103 95 -196.5 152t-196.5 57q-47 0 -79.5 -20t-32.5 -64q0 -38 28 -65t73.5 -42
t103.5 -30.5t118.5 -29t118.5 -38.5t103.5 -57.5t73.5 -89t28 -129.5q0 -196 -193 -320q152 -85 152 -242q0 -174 -121.5 -280.5t-298.5 -106.5q-129 0 -268 74l-25 -88l-117 35l111 338q82 -75 193 -138t198 -63q48 0 80.5 21t32.5 67q0 36 -36.5 60.5t-94.5 39.5
t-128 29.5t-140 37.5t-128 56.5t-94.5 93.5t-36.5 142q0 180 187 330q-70 36 -103 97.5t-33 160.5q0 51 15.5 102.5t49.5 101.5t82 89t118.5 62.5t152.5 23.5q26 0 55.5 -3.5t50 -7.5t52 -13t42.5 -12.5t43 -14.5l32 -11z" />
    <glyph glyph-name="dieresis" unicode="&#xa8;" horiz-adv-x="569" 
d="M315 1296q0 50 28 94t77 44q48 0 76 -43.5t28 -94.5t-28 -94t-76 -43q-49 0 -77 43.5t-28 93.5zM47 1296q0 50 28 94t77 44q48 0 76 -43.5t28 -94.5t-28 -94t-76 -43q-49 0 -77 43.5t-28 93.5z" />
    <glyph glyph-name="copyright" unicode="&#xa9;" horiz-adv-x="1638" 
d="M104 700q0 153 53.5 288t147 233t227 154.5t287.5 56.5t287.5 -56.5t227 -154.5t147 -233t53.5 -288q0 -207 -91 -374.5t-254.5 -263t-369.5 -95.5t-369.5 95.5t-254.5 263t-91 374.5zM291 700q0 -120 36 -228t102 -191.5t167 -133t223 -49.5t223 49.5t167 133
t102.5 191.5t36.5 228q0 117 -36.5 225t-102.5 191.5t-167.5 133.5t-222.5 50t-222.5 -50t-167.5 -133.5t-102 -191.5t-36 -225zM1118 547l47 2l-32 -174q-28 -28 -122 -51t-173 -23q-89 0 -165 25t-135.5 74.5t-93.5 131.5t-34 189q0 134 61.5 227.5t163 136.5t233.5 43
q76 0 152 -16.5t113 -46.5v-166h-50q-66 176 -200 176q-50 0 -87.5 -25t-58.5 -61.5t-34 -85.5t-17 -89.5t-4 -82.5q0 -41 2 -74.5t7.5 -81.5t19 -83.5t34 -68.5t54.5 -51t78 -18q78 0 140 56t101 137z" />
    <glyph glyph-name="ordfeminine" unicode="&#xaa;" horiz-adv-x="569" 
d="M348 809l-24 51q-24 -34 -67 -51.5t-91 -17.5q-77 0 -122.5 53.5t-45.5 132.5q0 105 72.5 164t173.5 59q51 0 78 -2q1 27 1.5 50t-14 37.5t-45.5 14.5q-68 0 -129 -77l-67 20l63 209l70 -18v-33q27 14 65 24q40 7 72 7q75 0 127.5 -44t52.5 -112v-393h47v-74h-217z
M322 975v149q-8 2 -23 2q-52 0 -78 -26t-26 -72q0 -50 14.5 -78t54.5 -28q58 0 58 53z" />
    <glyph glyph-name="guillemotleft" unicode="&#xab;" horiz-adv-x="872" 
d="M604 100l-162 406l162 403h133l-73 -403l73 -406h-133zM297 100l-162 406l162 403h133l-74 -403l74 -406h-133z" />
    <glyph glyph-name="logicalnot" unicode="&#xac;" horiz-adv-x="1228" 
d="M877 215v383h-762v238h999v-621h-237z" />
    <glyph glyph-name="uni00AD" unicode="&#xad;" horiz-adv-x="681" 
d="M594 391h-506v227h506v-227z" />
    <glyph glyph-name="registered" unicode="&#xae;" horiz-adv-x="1638" 
d="M104 700q0 153 53.5 288t147 233t227 154.5t287.5 56.5t287.5 -56.5t227 -154.5t147 -233t53.5 -288q0 -207 -91 -374.5t-254.5 -263t-369.5 -95.5t-369.5 95.5t-254.5 263t-91 374.5zM291 700q0 -120 36 -228t102 -191.5t167 -133t223 -49.5t223 49.5t167 133
t102.5 191.5t36.5 228q0 117 -36.5 225t-102.5 191.5t-167.5 133.5t-222.5 50t-222.5 -50t-167.5 -133.5t-102 -191.5t-36 -225zM475 1055v49h426q103 0 164 -52.5t61 -152.5q0 -71 -44 -128.5t-111 -76.5l71 -106.5t88 -130t74 -103.5v-30h-203q-28 0 -61 58t-73.5 151
t-65.5 133h-41v-213q0 -47 14.5 -60t71.5 -16v-53h-371v53q56 3 70 16t14 60v524q0 49 -14 62t-70 16zM760 1051v-332h47q100 0 100 172q0 20 -0.5 30t-2.5 33.5t-7.5 36.5t-15 29t-26 23.5t-38.5 7.5h-57z" />
    <glyph glyph-name="macron" unicode="&#xaf;" horiz-adv-x="569" 
d="M504 1135h-436v172h436v-172z" />
    <glyph glyph-name="degree" unicode="&#xb0;" horiz-adv-x="819" 
d="M410 1135q-76 0 -128.5 -53t-52.5 -128t52.5 -127.5t128.5 -52.5t128 52.5t52 127.5t-52 128t-128 53zM410 1247q123 0 207.5 -85t84.5 -208t-84.5 -207.5t-207.5 -84.5t-208 84.5t-85 207.5t85 208t208 85z" />
    <glyph glyph-name="plusminus" unicode="&#xb1;" horiz-adv-x="1228" 
d="M496 780v226h237v-226h381v-237h-381v-226h-237v226h-381v237h381zM115 0v238h999v-238h-999z" />
    <glyph glyph-name="twosuperior" unicode="&#xb2;" horiz-adv-x="540" 
d="M410 500h-330l-12 108q38 36 48 45.5t42.5 42.5t43 47t34.5 44.5t32.5 51.5t21.5 51t17 59.5t4 62.5q0 50 -22 97.5t-62 47.5q-57 0 -57 -70q0 -66 88 -106l-98 -184q-127 60 -127 204q0 104 71 175t177 71t163.5 -54t57.5 -144q0 -55 -18 -108.5t-53 -103.5t-71 -90.5
t-88 -89.5h74q44 0 62 13.5t26 44.5h64l-15 -244h-73v29z" />
    <glyph glyph-name="threesuperior" unicode="&#xb3;" horiz-adv-x="540" 
d="M199 1229h237l31 -92q-30 -22 -127 -146q69 -25 110.5 -81t41.5 -128q0 -119 -76 -210t-195 -91q-60 0 -116.5 28t-84.5 66l136 162q22 -55 59.5 -95t77.5 -40q61 0 61 78q0 74 -46.5 112.5t-127.5 38.5h-26l-35 52l141 188h-49q-66 0 -102 -55l-58 22l76 234l76 -23z
" />
    <glyph glyph-name="acute" unicode="&#xb4;" horiz-adv-x="569" 
d="M61 1296l367 199l82 -211l-408 -106z" />
    <glyph glyph-name="mu" unicode="&#xb5;" 
d="M412 821v-499q0 -59 21 -82t79 -23t79 23t21 82v495l-73 -22v114l383 127q-11 -132 -11 -215v-698h74v-123h-358l-21 90q-78 -101 -194 -115v-319h-373v123h74v1038l-74 -22v114l383 127q-10 -120 -10 -215z" />
    <glyph glyph-name="paragraph" unicode="&#xb6;" horiz-adv-x="1269" 
d="M1028 -240h-246v1573h-120v-1573h-246v793q-81 0 -143.5 37.5t-99.5 101t-56 141.5t-19 166q0 216 102.5 308t325.5 92h648v-60q-92 -6 -119 -29.5t-27 -95.5v-1454z" />
    <glyph glyph-name="periodcentered" unicode="&#xb7;" horiz-adv-x="415" 
d="M209 641q57 0 97 -40t40 -97t-40 -97t-97 -40t-97 40t-40 97t40 97t97 40z" />
    <glyph glyph-name="cedilla" unicode="&#xb8;" horiz-adv-x="569" 
d="M242 20h86l-29 -131q7 0 22.5 1t22.5 1q54 0 98.5 -49t44.5 -104q0 -78 -58.5 -131t-152.5 -53q-57 0 -108.5 17t-83.5 44l31 111q31 -24 74 -41t69 -17q78 0 78 53q0 28 -23.5 47t-48.5 19q-42 0 -82 -16z" />
    <glyph glyph-name="onesuperior" unicode="&#xb9;" horiz-adv-x="540" 
d="M367 1229v-656h43v-73h-260v73h38v469q-18 -13 -55 -24v78q97 45 166 133h68z" />
    <glyph glyph-name="ordmasculine" unicode="&#xba;" horiz-adv-x="614" 
d="M281 1341q-34 0 -56 -32t-22 -105q0 -160 35 -241.5t94 -81.5q35 0 58.5 31t23.5 106q0 158 -36.5 240.5t-96.5 82.5zM307 1432q73 0 132 -27.5t95.5 -73t56 -102t19.5 -117.5q0 -84 -33 -155.5t-103.5 -118.5t-166.5 -47q-73 0 -132 27t-95 73t-55 102.5t-19 118.5
q0 83 32 154t102 118.5t167 47.5z" />
    <glyph glyph-name="guillemotright" unicode="&#xbb;" horiz-adv-x="872" 
d="M442 909h133l162 -403l-162 -406h-133l74 406zM135 909h133l162 -403l-162 -406h-133l74 406z" />
    <glyph glyph-name="onequarter" unicode="&#xbc;" horiz-adv-x="1249" 
d="M958 500l-131 -236h136v236h-5zM346 1229v-656h43v-73h-260v73h39v469q-18 -13 -55 -24v78q97 45 166 133h67zM1186 0h-268v74h45v94h-215v96l264 465h137q-8 -62 -8 -117v-348h71l-18 -96h-53v-94h45v-74zM408 -31h-144l701 1278h143z" />
    <glyph glyph-name="onehalf" unicode="&#xbd;" horiz-adv-x="1249" 
d="M346 1229v-656h43v-73h-260v73h39v469q-18 -13 -55 -24v78q97 45 166 133h67zM1143 0h-330l-12 109l55 52.5t47.5 48t48 54t35.5 52t32.5 61.5t16.5 62t8 73q0 51 -21.5 98t-61.5 47q-28 0 -43 -18.5t-15 -50.5q0 -67 88 -107l-98 -184q-127 60 -127 205q0 104 71 175
t177 71t163.5 -54.5t57.5 -144.5q0 -73 -34.5 -146t-79 -125.5t-115.5 -119.5h73q44 0 62 13t26 44h64l-14 -244h-74v29zM367 -31h-144l701 1278h143z" />
    <glyph glyph-name="threequarters" unicode="&#xbe;" horiz-adv-x="1249" 
d="M1186 0h-268v74h45v94h-215v96l264 465h137q-8 -62 -8 -117v-348h71l-18 -96h-53v-94h45v-74zM958 500l-131 -236h136v236h-5zM193 1229h237l31 -92q-30 -22 -127 -146q69 -25 110 -81t41 -128q0 -119 -75.5 -210t-194.5 -91q-60 0 -116.5 28t-84.5 66l136 162
q22 -55 59.5 -95t77.5 -40q61 0 61 78q0 74 -46.5 112.5t-127.5 38.5h-27l-34 52l141 188h-49q-67 0 -103 -55l-57 22l76 234l76 -23zM408 -31h-144l701 1278h143z" />
    <glyph glyph-name="questiondown" unicode="&#xbf;" horiz-adv-x="796" 
d="M358 627h179q1 -117 -18.5 -205t-48.5 -140.5t-58 -98.5t-49.5 -107t-20.5 -139q0 -65 23 -108.5t63 -43.5q29 0 47.5 26t18.5 78q0 80 -50 220l252 131q17 -35 29 -107t12 -139q0 -156 -108 -266.5t-264 -110.5q-135 0 -222.5 103.5t-87.5 240.5q0 70 17.5 129t45 100
t60.5 78t66 73t59.5 75t41.5 92.5t13 118.5zM561 903q0 -58 -33 -110t-88 -52t-88 52t-33 110t33 110t88 52t88 -52t33 -110z" />
    <glyph glyph-name="Agrave" unicode="&#xc0;" horiz-adv-x="1138" 
d="M340 0h-307v162h69l330 1237h273l342 -1237h61v-162h-483v162h90l-45 174h-359l-37 -174h66v-162zM614 516l-131 494h-4l-125 -494h260zM428 1839l367 -199l-41 -118l-408 106z" />
    <glyph glyph-name="Aacute" unicode="&#xc1;" horiz-adv-x="1138" 
d="M340 0h-307v162h69l330 1237h273l342 -1237h61v-162h-483v162h90l-45 174h-359l-37 -174h66v-162zM614 516l-131 494h-4l-125 -494h260zM346 1640l367 199l82 -211l-408 -106z" />
    <glyph glyph-name="Acircumflex" unicode="&#xc2;" horiz-adv-x="1138" 
d="M340 0h-307v162h69l330 1237h273l342 -1237h61v-162h-483v162h90l-45 174h-359l-37 -174h66v-162zM614 516l-131 494h-4l-125 -494h260zM299 1626l270 166l271 -166l-25 -137l-246 94l-247 -94z" />
    <glyph glyph-name="Atilde" unicode="&#xc3;" horiz-adv-x="1138" 
d="M340 0h-307v162h69l330 1237h273l342 -1237h61v-162h-483v162h90l-45 174h-359l-37 -174h66v-162zM614 516l-131 494h-4l-125 -494h260zM758 1769l82 -71q-84 -207 -189 -207q-34 0 -94 39q-4 2 -15.5 8.5t-16.5 9t-14.5 7.5t-15 7t-13 3.5t-13.5 1.5q-21 0 -35.5 -7
t-20 -13.5t-16.5 -26t-16 -27.5l-80 68q19 50 45.5 92.5t71.5 77t94 34.5q32 0 85.5 -37.5t82.5 -37.5q49 0 78 79z" />
    <glyph glyph-name="Adieresis" unicode="&#xc4;" horiz-adv-x="1138" 
d="M340 0h-307v162h69l330 1237h273l342 -1237h61v-162h-483v162h90l-45 174h-359l-37 -174h66v-162zM614 516l-131 494h-4l-125 -494h260zM600 1640q0 50 28 94t77 44q48 0 76 -43.5t28 -94.5t-28 -94t-76 -43q-49 0 -77 43.5t-28 93.5zM332 1640q0 51 28 94.5t76 43.5
q49 0 77 -44t28 -94t-28 -93.5t-77 -43.5q-48 0 -76 43t-28 94z" />
    <glyph glyph-name="Aring" unicode="&#xc5;" horiz-adv-x="1138" 
d="M340 0h-307v162h69l330 1237h273l342 -1237h61v-162h-483v162h90l-45 174h-359l-37 -174h66v-162zM614 516l-131 494h-4l-125 -494h260zM379 1698q0 81 52 144t138 63t138.5 -63t52.5 -144t-52.5 -144t-138.5 -63t-138 63t-52 144zM502 1698q0 -32 18.5 -58t48.5 -26
t49 26t19 58t-19 58t-49 26t-48.5 -26t-18.5 -58z" />
    <glyph glyph-name="AE" unicode="&#xc6;" horiz-adv-x="1517" 
d="M315 516h310v717h-9zM266 0h-352v162h74l467 1075h-90v162h1001v-281h-129q0 50 -23.5 84.5t-70.5 34.5h-182v-328h276v101h129v-361h-129v99h-276v-586h106q41 0 65 2t45 10.5t31 21t17 38t9 56t3 81.5h129v-371h-815v162h74v174h-387l-76 -174h104v-162z" />
    <glyph glyph-name="Ccedilla" unicode="&#xc7;" 
d="M967 1194l-340 -336l-66 107q45 60 45 141q0 50 -29.5 95.5t-78.5 45.5q-39 0 -68 -25t-44.5 -61t-25 -87t-12 -91t-2.5 -84q0 -68 8 -143.5t30 -164t55.5 -157.5t91.5 -115.5t131 -46.5q17 0 34 3t30 6t29 12t25 13t25.5 18.5t22 18.5t23 22.5t20.5 22t21.5 25
t20.5 23.5l82 -100q-38 -61 -64 -99.5t-68 -89t-80 -81t-90 -56.5t-109 -35l-19 -86q7 0 22.5 1t22.5 1q54 0 99 -49t45 -104q0 -78 -58.5 -131t-152.5 -53q-57 0 -109 17t-84 44l31 111q31 -24 74 -41t69 -17q78 0 78 53q0 28 -23.5 47t-48.5 19q-41 0 -81 -16l47 198
q-91 2 -168 45t-127.5 110t-86 153t-51.5 173.5t-16 172.5q0 61 8 130t27 148.5t47.5 153.5t73 143.5t99 120.5t130.5 82t164 31q55 0 105 -24.5t83 -56.5t72 -83l41 37z" />
    <glyph glyph-name="Egrave" unicode="&#xc8;" horiz-adv-x="1062" 
d="M786 909v101h129v-361h-129v99h-276v-586h106q41 0 65 2t45 10.5t31 21t17 38t9 56t3 81.5h129v-371h-815v162h74v1075h-74v162h815v-281h-129q0 50 -23.5 84.5t-70.5 34.5h-182v-328h276zM391 1839l367 -199l-41 -118l-408 106z" />
    <glyph glyph-name="Eacute" unicode="&#xc9;" horiz-adv-x="1062" 
d="M786 909v101h129v-361h-129v99h-276v-586h106q41 0 65 2t45 10.5t31 21t17 38t9 56t3 81.5h129v-371h-815v162h74v1075h-74v162h815v-281h-129q0 50 -23.5 84.5t-70.5 34.5h-182v-328h276zM309 1640l367 199l82 -211l-408 -106z" />
    <glyph glyph-name="Ecircumflex" unicode="&#xca;" horiz-adv-x="1062" 
d="M786 909v101h129v-361h-129v99h-276v-586h106q41 0 65 2t45 10.5t31 21t17 38t9 56t3 81.5h129v-371h-815v162h74v1075h-74v162h815v-281h-129q0 50 -23.5 84.5t-70.5 34.5h-182v-328h276zM262 1626l270 166l271 -166l-25 -137l-246 94l-247 -94z" />
    <glyph glyph-name="Edieresis" unicode="&#xcb;" horiz-adv-x="1062" 
d="M786 909v101h129v-361h-129v99h-276v-586h106q41 0 65 2t45 10.5t31 21t17 38t9 56t3 81.5h129v-371h-815v162h74v1075h-74v162h815v-281h-129q0 50 -23.5 84.5t-70.5 34.5h-182v-328h276zM563 1640q0 50 28 94t77 44q48 0 76 -43.5t28 -94.5t-28 -94t-76 -43
q-49 0 -77 43.5t-28 93.5zM295 1640q0 51 28 94.5t76 43.5q49 0 77 -44t28 -94t-28 -93.5t-77 -43.5q-48 0 -76 43t-28 94z" />
    <glyph glyph-name="Igrave" unicode="&#xcc;" horiz-adv-x="681" 
d="M584 0h-484v162h74v1075h-74v162h484v-162h-74v-1075h74v-162zM201 1839l366 -199l-41 -118l-407 106z" />
    <glyph glyph-name="Iacute" unicode="&#xcd;" horiz-adv-x="681" 
d="M584 0h-484v162h74v1075h-74v162h484v-162h-74v-1075h74v-162zM119 1640l366 199l82 -211l-407 -106z" />
    <glyph glyph-name="Icircumflex" unicode="&#xce;" horiz-adv-x="681" 
d="M584 0h-484v162h74v1075h-74v162h484v-162h-74v-1075h74v-162zM72 1626l270 166l270 -166l-24 -137l-246 94l-248 -94z" />
    <glyph glyph-name="Idieresis" unicode="&#xcf;" horiz-adv-x="681" 
d="M584 0h-484v162h74v1075h-74v162h484v-162h-74v-1075h74v-162zM373 1640q0 51 28 94.5t76 43.5q49 0 77 -44t28 -94t-28 -93.5t-77 -43.5q-48 0 -76 43t-28 94zM104 1640q0 50 28 94t77 44q48 0 76 -43.5t28 -94.5t-28 -94t-76 -43q-49 0 -77 43.5t-28 93.5z" />
    <glyph glyph-name="Eth" unicode="&#xd0;" horiz-adv-x="1214" 
d="M119 729v154h74v354h-74v162h379q111 0 209 -24.5t184.5 -78.5t148.5 -134.5t98 -199.5t36 -266q0 -141 -43 -267t-121 -221.5t-196 -151.5t-259 -56h-436v162h74v567h-74zM676 883v-154h-148v-567q60 0 108.5 18.5t80.5 48t55 75.5t35.5 89.5t19.5 103t9 103.5t2 102
q0 56 -4 107t-15 113.5t-33.5 113t-55 95.5t-84.5 72.5t-118 33.5v-354h148z" />
    <glyph glyph-name="Ntilde" unicode="&#xd1;" horiz-adv-x="1175" 
d="M416 0h-320v162h74v1075h-74v162h355l378 -715h5v553h-74v162h319v-162h-73v-1239h-199q-49 146 -124 298t-182 342.5t-155 285.5h-4v-762h74v-162zM776 1769l82 -71q-84 -207 -188 -207q-35 0 -95 39q-4 2 -15.5 8.5t-16.5 9t-14.5 7.5t-15 7t-13 3.5t-13.5 1.5
q-21 0 -35.5 -7t-20 -13.5t-16.5 -26t-16 -27.5l-80 68q19 50 45.5 92.5t71.5 77t94 34.5q32 0 85.5 -37.5t82.5 -37.5q49 0 78 79z" />
    <glyph glyph-name="Ograve" unicode="&#xd2;" horiz-adv-x="1214" 
d="M526 1270q-68 0 -105.5 -71t-37.5 -238q0 -58 10.5 -153t34.5 -214t57.5 -222t87 -173t115.5 -70q68 0 105.5 71t37.5 238q0 58 -10.5 153t-34.5 214t-57.5 222t-87 173t-115.5 70zM582 -33q-107 0 -202.5 50.5t-166.5 140.5t-112.5 224.5t-41.5 293.5q0 174 44 317
t121.5 239t182.5 148t226 52q107 0 202.5 -50.5t166 -140.5t112 -224.5t41.5 -293.5q0 -174 -44 -317t-121 -239t-182 -148t-226 -52zM467 1839l367 -199l-41 -118l-408 106z" />
    <glyph glyph-name="Oacute" unicode="&#xd3;" horiz-adv-x="1214" 
d="M526 1270q-68 0 -105.5 -71t-37.5 -238q0 -58 10.5 -153t34.5 -214t57.5 -222t87 -173t115.5 -70q68 0 105.5 71t37.5 238q0 58 -10.5 153t-34.5 214t-57.5 222t-87 173t-115.5 70zM582 -33q-107 0 -202.5 50.5t-166.5 140.5t-112.5 224.5t-41.5 293.5q0 174 44 317
t121.5 239t182.5 148t226 52q107 0 202.5 -50.5t166 -140.5t112 -224.5t41.5 -293.5q0 -174 -44 -317t-121 -239t-182 -148t-226 -52zM385 1640l367 199l82 -211l-408 -106z" />
    <glyph glyph-name="Ocircumflex" unicode="&#xd4;" horiz-adv-x="1214" 
d="M526 1270q-68 0 -105.5 -71t-37.5 -238q0 -58 10.5 -153t34.5 -214t57.5 -222t87 -173t115.5 -70q68 0 105.5 71t37.5 238q0 58 -10.5 153t-34.5 214t-57.5 222t-87 173t-115.5 70zM582 -33q-107 0 -202.5 50.5t-166.5 140.5t-112.5 224.5t-41.5 293.5q0 174 44 317
t121.5 239t182.5 148t226 52q107 0 202.5 -50.5t166 -140.5t112 -224.5t41.5 -293.5q0 -174 -44 -317t-121 -239t-182 -148t-226 -52zM338 1626l270 166l271 -166l-25 -137l-246 94l-248 -94z" />
    <glyph glyph-name="Otilde" unicode="&#xd5;" horiz-adv-x="1214" 
d="M526 1270q-68 0 -105.5 -71t-37.5 -238q0 -58 10.5 -153t34.5 -214t57.5 -222t87 -173t115.5 -70q68 0 105.5 71t37.5 238q0 58 -10.5 153t-34.5 214t-57.5 222t-87 173t-115.5 70zM582 -33q-107 0 -202.5 50.5t-166.5 140.5t-112.5 224.5t-41.5 293.5q0 174 44 317
t121.5 239t182.5 148t226 52q107 0 202.5 -50.5t166 -140.5t112 -224.5t41.5 -293.5q0 -174 -44 -317t-121 -239t-182 -148t-226 -52zM797 1769l82 -71q-84 -207 -189 -207q-34 0 -94 39q-4 2 -15.5 8.5t-16.5 9t-14.5 7.5t-15 7t-13 3.5t-13.5 1.5q-21 0 -35.5 -7
t-20 -13.5t-16.5 -26t-16 -27.5l-80 68q19 50 45.5 92.5t71.5 77t94 34.5q32 0 85.5 -37.5t82.5 -37.5q49 0 78 79z" />
    <glyph glyph-name="Odieresis" unicode="&#xd6;" horiz-adv-x="1214" 
d="M526 1270q-68 0 -105.5 -71t-37.5 -238q0 -58 10.5 -153t34.5 -214t57.5 -222t87 -173t115.5 -70q68 0 105.5 71t37.5 238q0 58 -10.5 153t-34.5 214t-57.5 222t-87 173t-115.5 70zM582 -33q-107 0 -202.5 50.5t-166.5 140.5t-112.5 224.5t-41.5 293.5q0 174 44 317
t121.5 239t182.5 148t226 52q107 0 202.5 -50.5t166 -140.5t112 -224.5t41.5 -293.5q0 -174 -44 -317t-121 -239t-182 -148t-226 -52zM639 1640q0 51 28 94.5t76 43.5q49 0 77 -44t28 -94t-28 -93.5t-77 -43.5q-48 0 -76 43t-28 94zM371 1640q0 51 28 94.5t76 43.5
q49 0 77 -44t28 -94t-28 -93.5t-77 -43.5q-48 0 -76 43t-28 94z" />
    <glyph glyph-name="multiply" unicode="&#xd7;" horiz-adv-x="1228" 
d="M446 504l-331 330l170 167l329 -329l332 329l168 -167l-332 -330l332 -332l-168 -168l-332 332l-329 -332l-170 168z" />
    <glyph glyph-name="Oslash" unicode="&#xd8;" horiz-adv-x="1214" 
d="M436 561l295 453q-83 256 -205 256q-68 0 -105.5 -71t-37.5 -238q0 -64 13.5 -176t39.5 -224zM784 805l-292 -447q83 -229 196 -229q68 0 105.5 71t37.5 238q0 153 -47 367zM930 1317l84 129h188l-166 -256q119 -188 119 -467q0 -174 -44 -317t-121 -239t-182 -148
t-226 -52q-155 0 -279 103l-102 -158h-189l181 276q-134 194 -134 488q0 174 44 317t121.5 239t182.5 148t226 52q166 0 297 -115z" />
    <glyph glyph-name="Ugrave" unicode="&#xd9;" horiz-adv-x="1214" 
d="M764 0l-31 117q-43 -68 -116.5 -109t-155.5 -41q-141 0 -225 84.5t-84 233.5v952h-74v162h409v-1071q0 -127 119 -127t119 127v909h-74v162h410v-1237h74v-162h-371zM467 1839l367 -199l-41 -118l-408 106z" />
    <glyph glyph-name="Uacute" unicode="&#xda;" horiz-adv-x="1214" 
d="M764 0l-31 117q-43 -68 -116.5 -109t-155.5 -41q-141 0 -225 84.5t-84 233.5v952h-74v162h409v-1071q0 -127 119 -127t119 127v909h-74v162h410v-1237h74v-162h-371zM385 1640l367 199l82 -211l-408 -106z" />
    <glyph glyph-name="Ucircumflex" unicode="&#xdb;" horiz-adv-x="1214" 
d="M764 0l-31 117q-43 -68 -116.5 -109t-155.5 -41q-141 0 -225 84.5t-84 233.5v952h-74v162h409v-1071q0 -127 119 -127t119 127v909h-74v162h410v-1237h74v-162h-371zM338 1626l270 166l271 -166l-25 -137l-246 94l-248 -94z" />
    <glyph glyph-name="Udieresis" unicode="&#xdc;" horiz-adv-x="1214" 
d="M764 0l-31 117q-43 -68 -116.5 -109t-155.5 -41q-141 0 -225 84.5t-84 233.5v952h-74v162h409v-1071q0 -127 119 -127t119 127v909h-74v162h410v-1237h74v-162h-371zM639 1640q0 51 28 94.5t76 43.5q49 0 77 -44t28 -94t-28 -93.5t-77 -43.5q-48 0 -76 43t-28 94z
M371 1640q0 51 28 94.5t76 43.5q49 0 77 -44t28 -94t-28 -93.5t-77 -43.5q-48 0 -76 43t-28 94z" />
    <glyph glyph-name="Yacute" unicode="&#xdd;" horiz-adv-x="1062" 
d="M346 -23l-70 68l189 406l-375 786h-72v162h508v-162h-86l195 -410l180 410h-72v162h304v-162h-66l-418 -934q27 8 66 8q14 0 71.5 -7t73.5 -7q26 0 43.5 20.5t34.5 61.5l90 -27l-70 -348q-87 -37 -149 -37q-44 0 -127.5 24.5t-116.5 24.5q-20 0 -65.5 -14t-67.5 -25z
M322 1640l366 199l82 -211l-408 -106z" />
    <glyph glyph-name="Thorn" unicode="&#xde;" horiz-adv-x="1138" 
d="M197 162v1075h-66v162h471v-162h-70v-111h50q514 0 514 -383q0 -76 -22.5 -137t-61.5 -101t-93.5 -66.5t-116 -38t-132.5 -11.5q-39 0 -138 8v-235h70v-162h-471v162h66zM532 991v-438q24 -41 99 -41q141 0 141 219q0 50 -13 94t-40.5 81t-75.5 60t-111 25z" />
    <glyph glyph-name="germandbls" unicode="&#xdf;" horiz-adv-x="1062" 
d="M143 123v682h-86l52 158h34q6 214 111 341.5t303 127.5q123 0 214 -75.5t91 -203.5q0 -63 -18 -101t-51 -73l-20 -20t-21 -22t-15 -20.5t-12.5 -27.5t-3.5 -31q0 -19 13.5 -41.5t29.5 -39.5t47.5 -48t50.5 -51q65 -71 103.5 -147.5t38.5 -182.5q0 -164 -89.5 -271.5
t-242.5 -107.5q-88 0 -156 43v285q66 -70 125 -70q40 0 62 25t22 72q0 16 -2.5 31.5t-10 32.5t-12.5 28t-18 30t-19 27t-23 30t-22 29q-33 44 -53 75.5t-37.5 83t-17.5 104.5q0 12 1.5 25t3 22.5t6 24.5t6.5 21t9 23t8 20.5t10 23t9 20.5q51 116 51 178q0 57 -20 94t-62 37
q-90 0 -90 -141v-1143h-372v123h73z" />
    <glyph glyph-name="agrave" unicode="&#xe0;" horiz-adv-x="948" 
d="M569 0l-37 86q-35 -56 -101.5 -86.5t-139.5 -30.5q-120 0 -189 89.5t-69 222.5q0 117 54.5 203.5t139 127.5t183.5 41q56 0 120 -6q1 47 1 87t-21.5 66.5t-67.5 26.5q-59 0 -106 -38t-94 -101l-105 35l101 350l104 -31v-57q92 51 213 51q116 0 195 -72t79 -186v-655h74
v-123h-334zM530 276v250q-24 4 -34 4q-81 0 -122.5 -44t-41.5 -121q0 -177 110 -177q42 0 65 23t23 65zM346 1495l367 -199l-41 -118l-408 106z" />
    <glyph glyph-name="aacute" unicode="&#xe1;" horiz-adv-x="948" 
d="M569 0l-37 86q-35 -56 -101.5 -86.5t-139.5 -30.5q-120 0 -189 89.5t-69 222.5q0 117 54.5 203.5t139 127.5t183.5 41q56 0 120 -6q1 47 1 87t-21.5 66.5t-67.5 26.5q-59 0 -106 -38t-94 -101l-105 35l101 350l104 -31v-57q92 51 213 51q116 0 195 -72t79 -186v-655h74
v-123h-334zM530 276v250q-24 4 -34 4q-81 0 -122.5 -44t-41.5 -121q0 -177 110 -177q42 0 65 23t23 65zM264 1296l367 199l82 -211l-408 -106z" />
    <glyph glyph-name="acircumflex" unicode="&#xe2;" horiz-adv-x="948" 
d="M569 0l-37 86q-35 -56 -101.5 -86.5t-139.5 -30.5q-120 0 -189 89.5t-69 222.5q0 117 54.5 203.5t139 127.5t183.5 41q56 0 120 -6q1 47 1 87t-21.5 66.5t-67.5 26.5q-59 0 -106 -38t-94 -101l-105 35l101 350l104 -31v-57q92 51 213 51q116 0 195 -72t79 -186v-655h74
v-123h-334zM530 276v250q-24 4 -34 4q-81 0 -122.5 -44t-41.5 -121q0 -177 110 -177q42 0 65 23t23 65zM217 1282l270 166l271 -166l-25 -137l-246 94l-247 -94z" />
    <glyph glyph-name="atilde" unicode="&#xe3;" horiz-adv-x="948" 
d="M569 0l-37 86q-35 -56 -101.5 -86.5t-139.5 -30.5q-120 0 -189 89.5t-69 222.5q0 117 54.5 203.5t139 127.5t183.5 41q56 0 120 -6q1 47 1 87t-21.5 66.5t-67.5 26.5q-59 0 -106 -38t-94 -101l-105 35l101 350l104 -31v-57q92 51 213 51q116 0 195 -72t79 -186v-655h74
v-123h-334zM530 276v250q-24 4 -34 4q-81 0 -122.5 -44t-41.5 -121q0 -177 110 -177q42 0 65 23t23 65zM676 1425l82 -71q-84 -207 -189 -207q-34 0 -94 39q-4 2 -15.5 8.5t-16.5 9t-14.5 7.5t-15 7t-13 3.5t-13.5 1.5q-21 0 -35.5 -7t-20 -13.5t-16.5 -26t-16 -27.5l-80 68
q19 50 45.5 92.5t71.5 77t94 34.5q32 0 85.5 -37.5t82.5 -37.5q49 0 78 79z" />
    <glyph glyph-name="adieresis" unicode="&#xe4;" horiz-adv-x="948" 
d="M569 0l-37 86q-35 -56 -101.5 -86.5t-139.5 -30.5q-120 0 -189 89.5t-69 222.5q0 117 54.5 203.5t139 127.5t183.5 41q56 0 120 -6q1 47 1 87t-21.5 66.5t-67.5 26.5q-59 0 -106 -38t-94 -101l-105 35l101 350l104 -31v-57q92 51 213 51q116 0 195 -72t79 -186v-655h74
v-123h-334zM530 276v250q-24 4 -34 4q-81 0 -122.5 -44t-41.5 -121q0 -177 110 -177q42 0 65 23t23 65zM518 1296q0 50 28 94t77 44q48 0 76 -43.5t28 -94.5t-28 -94t-76 -43q-49 0 -77 43.5t-28 93.5zM250 1296q0 51 28 94.5t76 43.5q49 0 77 -44t28 -94t-28 -93.5
t-77 -43.5q-48 0 -76 43t-28 94z" />
    <glyph glyph-name="aring" unicode="&#xe5;" horiz-adv-x="948" 
d="M569 0l-37 86q-35 -56 -101.5 -86.5t-139.5 -30.5q-120 0 -189 89.5t-69 222.5q0 117 54.5 203.5t139 127.5t183.5 41q56 0 120 -6q1 47 1 87t-21.5 66.5t-67.5 26.5q-59 0 -106 -38t-94 -101l-105 35l101 350l104 -31v-57q92 51 213 51q116 0 195 -72t79 -186v-655h74
v-123h-334zM530 276v250q-24 4 -34 4q-81 0 -122.5 -44t-41.5 -121q0 -177 110 -177q42 0 65 23t23 65zM297 1354q0 81 52 144t138 63t138.5 -63t52.5 -144t-52.5 -144t-138.5 -63t-138 63t-52 144zM420 1354q0 -32 18.5 -58t48.5 -26t49 26t19 58t-19 58t-49 26t-48.5 -26
t-18.5 -58z" />
    <glyph glyph-name="ae" unicode="&#xe6;" horiz-adv-x="1290" 
d="M526 276v250q-24 4 -34 4q-81 0 -122.5 -44t-41.5 -121q0 -177 110 -177q42 0 65 23t23 65zM1241 596l-432 -205q16 -79 62 -129.5t112 -50.5q58 0 119.5 31t93.5 71l51 -82q-66 -117 -167.5 -189.5t-225.5 -72.5q-83 0 -152.5 48t-107.5 133q-57 -89 -128.5 -135
t-178.5 -46q-120 0 -189 89.5t-69 222.5q0 117 54.5 203.5t139 127.5t183.5 41q56 0 120 -6q0 91 -24 135.5t-94 44.5q-58 0 -98.5 -33t-84.5 -100l-96 31l88 350l105 -26v-54q74 41 163 41q48 0 98 -28t81 -68q2 2 6 0q90 96 219 96q77 0 145 -44t111.5 -111t68.5 -142.5
t27 -142.5zM772 537l205 110q-17 117 -36 164q-34 77 -91 78q-94 0 -94 -205q0 -69 16 -147z" />
    <glyph glyph-name="ccedilla" unicode="&#xe7;" horiz-adv-x="796" 
d="M741 829l-204 -260q-7 30 -19.5 68t-33.5 87t-50 81.5t-59 32.5q-78 0 -78 -166q0 -45 5 -94.5t19.5 -107.5t36.5 -103t60 -75t86 -30q17 0 33.5 4t32.5 15t26 18t26.5 26t22 25t23.5 29.5t20 26.5l68 -64q-16 -66 -44 -127t-69 -115.5t-98.5 -89.5t-124.5 -39l-19 -82
q7 0 22.5 1t22.5 1q54 0 99 -49t45 -104q0 -78 -58.5 -131t-152.5 -53q-57 0 -109 17t-84 44l31 111q31 -24 74 -41t69 -17q78 0 78 53q0 28 -23 47t-48 19q-42 0 -82 -16l49 206q-75 13 -132.5 58t-91 109.5t-50.5 138t-17 151.5q0 113 30.5 221t84 193t135.5 136.5
t178 51.5q52 0 103.5 -25.5t86 -60t56.5 -68t24 -53.5z" />
    <glyph glyph-name="egrave" unicode="&#xe8;" horiz-adv-x="833" 
d="M737 313l51 -82q-66 -117 -167.5 -189.5t-225.5 -72.5q-148 0 -250 142.5t-102 355.5q0 107 26 208t74 182t122.5 130t164.5 49q77 0 145 -44t111.5 -111t68.5 -142.5t27 -142.5l-432 -205q16 -79 62 -129.5t112 -50.5q58 0 119.5 31t93.5 71zM313 537l205 110
q-17 117 -36 164q-34 77 -91 78q-94 0 -94 -205q0 -69 16 -147zM289 1495l366 -199l-41 -118l-407 106z" />
    <glyph glyph-name="eacute" unicode="&#xe9;" horiz-adv-x="833" 
d="M737 313l51 -82q-66 -117 -167.5 -189.5t-225.5 -72.5q-148 0 -250 142.5t-102 355.5q0 107 26 208t74 182t122.5 130t164.5 49q77 0 145 -44t111.5 -111t68.5 -142.5t27 -142.5l-432 -205q16 -79 62 -129.5t112 -50.5q58 0 119.5 31t93.5 71zM313 537l205 110
q-17 117 -36 164q-34 77 -91 78q-94 0 -94 -205q0 -69 16 -147zM207 1296l366 199l82 -211l-407 -106z" />
    <glyph glyph-name="ecircumflex" unicode="&#xea;" horiz-adv-x="833" 
d="M737 313l51 -82q-66 -117 -167.5 -189.5t-225.5 -72.5q-148 0 -250 142.5t-102 355.5q0 107 26 208t74 182t122.5 130t164.5 49q77 0 145 -44t111.5 -111t68.5 -142.5t27 -142.5l-432 -205q16 -79 62 -129.5t112 -50.5q58 0 119.5 31t93.5 71zM313 537l205 110
q-17 117 -36 164q-34 77 -91 78q-94 0 -94 -205q0 -69 16 -147zM160 1282l270 166l270 -166l-24 -137l-246 94l-248 -94z" />
    <glyph glyph-name="edieresis" unicode="&#xeb;" horiz-adv-x="833" 
d="M737 313l51 -82q-66 -117 -167.5 -189.5t-225.5 -72.5q-148 0 -250 142.5t-102 355.5q0 107 26 208t74 182t122.5 130t164.5 49q77 0 145 -44t111.5 -111t68.5 -142.5t27 -142.5l-432 -205q16 -79 62 -129.5t112 -50.5q58 0 119.5 31t93.5 71zM313 537l205 110
q-17 117 -36 164q-34 77 -91 78q-94 0 -94 -205q0 -69 16 -147zM461 1296q0 51 28 94.5t76 43.5q49 0 77 -44t28 -94t-28 -93.5t-77 -43.5q-48 0 -76 43t-28 94zM193 1296q0 51 28 94.5t76 43.5t76 -43.5t28 -94.5t-28 -94t-76 -43t-76 43t-28 94z" />
    <glyph glyph-name="igrave" unicode="&#xec;" horiz-adv-x="569" 
d="M506 0h-440v123h69v692l-69 -22v118l376 125q-8 -104 -8 -231v-682h72v-123zM143 1495l367 -199l-41 -118l-408 106z" />
    <glyph glyph-name="iacute" unicode="&#xed;" horiz-adv-x="569" 
d="M506 0h-440v123h69v692l-69 -22v118l376 125q-8 -104 -8 -231v-682h72v-123zM61 1296l367 199l82 -211l-408 -106z" />
    <glyph glyph-name="icircumflex" unicode="&#xee;" horiz-adv-x="569" 
d="M506 0h-440v123h69v692l-69 -22v118l376 125q-8 -104 -8 -231v-682h72v-123zM14 1282l271 166l270 -166l-25 -137l-245 94l-248 -94z" />
    <glyph glyph-name="idieresis" unicode="&#xef;" horiz-adv-x="569" 
d="M506 0h-440v123h69v692l-69 -22v118l376 125q-8 -104 -8 -231v-682h72v-123zM315 1296q0 50 28 94t77 44q48 0 76 -43.5t28 -94.5t-28 -94t-76 -43q-49 0 -77 43.5t-28 93.5zM47 1296q0 50 28 94t77 44q48 0 76 -43.5t28 -94.5t-28 -94t-76 -43q-49 0 -77 43.5t-28 93.5z
" />
    <glyph glyph-name="eth" unicode="&#xf0;" 
d="M670 322q0 58 -10 131.5t-31.5 154.5t-63 135t-96.5 54q-27 0 -47.5 -10t-32 -30t-19 -38t-10.5 -46.5t-3.5 -43.5t-0.5 -39q0 -58 10 -131.5t31.5 -154.5t64 -135t97.5 -54q27 0 47 10t31.5 30t18.5 38t10 46.5t3.5 43.5t0.5 39zM182 1159l180 117q-66 91 -198 145
l22 68q162 -11 320 -121l209 135l55 -96l-172 -111q165 -146 266 -353.5t101 -399.5q0 -257 -122 -415.5t-333 -158.5q-198 0 -325.5 132.5t-127.5 355.5q0 109 36 201.5t96.5 154t141 95.5t169.5 34q22 0 32 -2q-6 119 -98 250l-196 -127z" />
    <glyph glyph-name="ntilde" unicode="&#xf1;" horiz-adv-x="1062" 
d="M506 0h-447v123h74v694l-74 -22v114l373 127v-139q35 32 55 49t57 42t76 36.5t82 11.5q116 0 173 -67.5t57 -190.5v-655h74v-123h-447v123h74v565q0 100 -92 100q-60 0 -109 -49v-616h74v-123zM721 1425l82 -71q-84 -207 -189 -207q-34 0 -94 39q-4 2 -15.5 8.5t-16.5 9
t-14.5 7.5t-15 7t-13 3.5t-13.5 1.5q-21 0 -35.5 -7t-20 -13.5t-16.5 -26t-16 -27.5l-80 68q19 50 45.5 92.5t71.5 77t94 34.5q32 0 85.5 -37.5t82.5 -37.5q49 0 78 79z" />
    <glyph glyph-name="ograve" unicode="&#xf2;" 
d="M473 889q-53 0 -89 -54t-36 -178q0 -265 56 -402.5t147 -137.5q53 0 89 53.5t36 177.5q0 265 -56 403t-147 138zM512 1036q112 0 202.5 -45.5t146 -121.5t85 -169.5t29.5 -195.5q0 -103 -29.5 -197t-85 -170.5t-146 -122t-202.5 -45.5t-202.5 45.5t-146 122t-85 170.5
t-29.5 197q0 102 29.5 195.5t85 169.5t146 121.5t202.5 45.5zM371 1495l366 -199l-41 -118l-407 106z" />
    <glyph glyph-name="oacute" unicode="&#xf3;" 
d="M473 889q-53 0 -89 -54t-36 -178q0 -265 56 -402.5t147 -137.5q53 0 89 53.5t36 177.5q0 265 -56 403t-147 138zM512 1036q112 0 202.5 -45.5t146 -121.5t85 -169.5t29.5 -195.5q0 -103 -29.5 -197t-85 -170.5t-146 -122t-202.5 -45.5t-202.5 45.5t-146 122t-85 170.5
t-29.5 197q0 102 29.5 195.5t85 169.5t146 121.5t202.5 45.5zM289 1296l366 199l82 -211l-407 -106z" />
    <glyph glyph-name="ocircumflex" unicode="&#xf4;" 
d="M473 889q-53 0 -89 -54t-36 -178q0 -265 56 -402.5t147 -137.5q53 0 89 53.5t36 177.5q0 265 -56 403t-147 138zM512 1036q112 0 202.5 -45.5t146 -121.5t85 -169.5t29.5 -195.5q0 -103 -29.5 -197t-85 -170.5t-146 -122t-202.5 -45.5t-202.5 45.5t-146 122t-85 170.5
t-29.5 197q0 102 29.5 195.5t85 169.5t146 121.5t202.5 45.5zM242 1282l270 166l270 -166l-24 -137l-246 94l-248 -94z" />
    <glyph glyph-name="otilde" unicode="&#xf5;" 
d="M473 889q-53 0 -89 -54t-36 -178q0 -265 56 -402.5t147 -137.5q53 0 89 53.5t36 177.5q0 265 -56 403t-147 138zM512 1036q112 0 202.5 -45.5t146 -121.5t85 -169.5t29.5 -195.5q0 -103 -29.5 -197t-85 -170.5t-146 -122t-202.5 -45.5t-202.5 45.5t-146 122t-85 170.5
t-29.5 197q0 102 29.5 195.5t85 169.5t146 121.5t202.5 45.5zM700 1425l82 -71q-84 -207 -188 -207q-34 0 -94 39q-4 2 -15.5 8.5t-16.5 9t-14.5 7.5t-15 7t-13 3.5t-13.5 1.5q-21 0 -35.5 -7t-20 -13.5t-16.5 -26t-16 -27.5l-80 68q19 50 45.5 92.5t71.5 77t94 34.5
q32 0 85.5 -37.5t82.5 -37.5q48 0 77 79z" />
    <glyph glyph-name="odieresis" unicode="&#xf6;" 
d="M473 889q-53 0 -89 -54t-36 -178q0 -265 56 -402.5t147 -137.5q53 0 89 53.5t36 177.5q0 265 -56 403t-147 138zM512 1036q112 0 202.5 -45.5t146 -121.5t85 -169.5t29.5 -195.5q0 -103 -29.5 -197t-85 -170.5t-146 -122t-202.5 -45.5t-202.5 45.5t-146 122t-85 170.5
t-29.5 197q0 102 29.5 195.5t85 169.5t146 121.5t202.5 45.5zM543 1296q0 51 28 94.5t76 43.5q49 0 77 -44t28 -94t-28 -93.5t-77 -43.5q-48 0 -76 43t-28 94zM274 1296q0 50 28 94t77 44q48 0 76 -43.5t28 -94.5t-28 -94t-76 -43q-49 0 -77 43.5t-28 93.5z" />
    <glyph glyph-name="divide" unicode="&#xf7;" horiz-adv-x="1228" 
d="M1114 385h-999v238h999v-238zM430 915q0 75 54.5 130t129.5 55q74 0 129.5 -56t55.5 -129q0 -76 -54 -130t-131 -54q-74 0 -129 55.5t-55 128.5zM430 92q0 75 54.5 129.5t129.5 54.5q74 0 129.5 -55.5t55.5 -128.5q0 -76 -54 -130t-131 -54q-74 0 -129 55t-55 129z" />
    <glyph glyph-name="oslash" unicode="&#xf8;" 
d="M369 395l252 350q-55 144 -148 144q-53 0 -89 -54t-36 -178q0 -151 21 -262zM176 -102h-166l164 227q-61 73 -93 172.5t-32 206.5q0 102 29.5 195.5t85 169.5t146 121.5t202.5 45.5q151 0 258 -80l80 111h166l-150 -207q53 -71 81 -164t28 -192q0 -103 -29.5 -197
t-85 -170.5t-146 -122t-202.5 -45.5q-132 0 -238 66zM662 573l-246 -342q51 -114 135 -114q53 0 89 53.5t36 177.5q0 133 -14 225z" />
    <glyph glyph-name="ugrave" unicode="&#xf9;" 
d="M627 0l-21 90q-92 -121 -252 -121q-114 0 -177.5 70t-63.5 205v573l-74 -22v114l383 127q-10 -120 -10 -215v-499q0 -59 21 -82t79 -23t79 23t21 82v495l-73 -22v114l383 127q-11 -132 -11 -215v-698h74v-123h-358zM371 1495l366 -199l-41 -118l-407 106z" />
    <glyph glyph-name="uacute" unicode="&#xfa;" 
d="M627 0l-21 90q-92 -121 -252 -121q-114 0 -177.5 70t-63.5 205v573l-74 -22v114l383 127q-10 -120 -10 -215v-499q0 -59 21 -82t79 -23t79 23t21 82v495l-73 -22v114l383 127q-11 -132 -11 -215v-698h74v-123h-358zM289 1296l366 199l82 -211l-407 -106z" />
    <glyph glyph-name="ucircumflex" unicode="&#xfb;" 
d="M627 0l-21 90q-92 -121 -252 -121q-114 0 -177.5 70t-63.5 205v573l-74 -22v114l383 127q-10 -120 -10 -215v-499q0 -59 21 -82t79 -23t79 23t21 82v495l-73 -22v114l383 127q-11 -132 -11 -215v-698h74v-123h-358zM242 1282l270 166l270 -166l-24 -137l-246 94l-248 -94
z" />
    <glyph glyph-name="udieresis" unicode="&#xfc;" 
d="M627 0l-21 90q-92 -121 -252 -121q-114 0 -177.5 70t-63.5 205v573l-74 -22v114l383 127q-10 -120 -10 -215v-499q0 -59 21 -82t79 -23t79 23t21 82v495l-73 -22v114l383 127q-11 -132 -11 -215v-698h74v-123h-358zM543 1296q0 51 28 94.5t76 43.5q49 0 77 -44t28 -94
t-28 -93.5t-77 -43.5q-48 0 -76 43t-28 94zM274 1296q0 50 28 94t77 44q48 0 76 -43.5t28 -94.5t-28 -94t-76 -43q-49 0 -77 43.5t-28 93.5z" />
    <glyph glyph-name="yacute" unicode="&#xfd;" horiz-adv-x="909" 
d="M51 707l-33 104l314 225q5 -47 22 -102l56 -180h4q77 282 217 282q25 0 79 -25.5t78 -25.5q31 0 66 21l43 -43q-35 -56 -63 -150l-285 -854q-46 -142 -106 -222.5t-144 -80.5q-68 0 -127 16l33 279q57 -37 123 -37q43 0 72.5 25t23.5 63l-315 739zM449 682l118 -283
l125 355q-16 -4 -22 -4q-22 0 -65 14t-68 14q-59 0 -88 -96zM231 1296l367 199l82 -211l-408 -106z" />
    <glyph glyph-name="thorn" unicode="&#xfe;" 
d="M436 797v-555q0 -65 22 -95t77 -30q35 0 60 19t38.5 46.5t21 70.5t9.5 77t2 80q0 71 -10.5 140.5t-31 128.5t-54 95.5t-74.5 36.5q-38 0 -60 -14zM63 1309l445 123v-111l-72 -21v-350q42 27 69 42.5t68.5 29.5t79.5 14q137 0 224.5 -140.5t87.5 -346.5q0 -118 -25 -220.5
t-74 -184t-129 -128.5t-182 -47q-69 0 -119 33v-227h74v-119h-447v123h74v1440l-74 -21v111z" />
    <glyph glyph-name="ydieresis" unicode="&#xff;" horiz-adv-x="909" 
d="M51 707l-33 104l314 225q5 -47 22 -102l56 -180h4q77 282 217 282q25 0 79 -25.5t78 -25.5q31 0 66 21l43 -43q-35 -56 -63 -150l-285 -854q-46 -142 -106 -222.5t-144 -80.5q-68 0 -127 16l33 279q57 -37 123 -37q43 0 72.5 25t23.5 63l-315 739zM449 682l118 -283
l125 355q-16 -4 -22 -4q-22 0 -65 14t-68 14q-59 0 -88 -96zM485 1296q0 50 28 94t77 44q48 0 76 -43.5t28 -94.5t-28 -94t-76 -43q-49 0 -77 43.5t-28 93.5zM217 1296q0 50 28 94t77 44q48 0 76 -43.5t28 -94.5t-28 -94t-76 -43q-49 0 -77 43.5t-28 93.5z" />
    <glyph glyph-name="Gbreve" unicode="&#x11e;" horiz-adv-x="1175" 
d="M973 0l-60 121q-171 -154 -381 -154q-109 0 -201 59.5t-151 157t-92 221t-33 254.5q0 206 77.5 382.5t217.5 283.5t312 107q132 0 276 -136l47 37l84 -98l-346 -285l-76 90q47 31 47 88q0 51 -35 85t-86 34q-38 0 -69 -19.5t-51 -49.5t-34.5 -74t-22 -83.5t-11.5 -88.5
t-5 -79t-1 -65q0 -70 9.5 -143t35 -153t63 -141t100 -100t140.5 -38v440h-147v187h297q111 0 184 12l43 -66q-41 -81 -41 -188v-598h-90zM326 1812l75 56q31 -47 82 -76t105 -29q110 0 194 105l66 -56q-20 -59 -52.5 -109.5t-85 -87t-112.5 -36.5q-93 0 -166.5 68.5
t-105.5 164.5z" />
    <glyph glyph-name="gbreve" unicode="&#x11f;" horiz-adv-x="948" 
d="M514 350q49 0 75.5 37t26.5 96q0 42 -4 90t-16 107.5t-30 106t-49 78.5t-71 32q-49 0 -75.5 -37t-26.5 -96q0 -42 4 -90t16 -107.5t30 -106t49 -78.5t71 -32zM635 -170q0 56 -40.5 98.5t-102.5 46.5q-22 -23 -35 -61t-13 -68q0 -47 22.5 -81.5t70.5 -34.5q42 0 70 28
t28 72zM870 1229l-26 -209q-8 3 -19 7.5t-17 6.5t-15.5 4t-20.5 2q-21 0 -39 -17t-18 -40q0 -3 17.5 -17t42 -39.5t49 -61.5t42 -94.5t17.5 -127.5q0 -43 -8 -83t-20 -72t-34 -63.5t-42.5 -54.5t-53.5 -48.5t-58.5 -43t-66 -39.5t-67.5 -35.5t-72 -35.5v-4q49 -6 95 -15
t104 -29t100 -46t71 -69.5t29 -96.5q0 -69 -36 -126.5t-93.5 -92t-124.5 -53.5t-133 -19q-254 0 -254 166q0 72 57 125.5t136 85.5v4q-22 0 -69.5 6t-72.5 6q-26 0 -77 -4t-76 -4l-62 94q170 56 310 146q-142 42 -214.5 151t-72.5 262q0 111 60.5 199.5t156.5 135t205 46.5
q26 0 123 -18q16 55 26.5 84t29.5 60.5t42.5 44.5t60 20t88.5 2zM213 1391l75 55q31 -47 82 -76t105 -29q110 0 194 105l66 -55q-20 -59 -52.5 -109.5t-85 -87.5t-112.5 -37q-93 0 -166.5 69t-105.5 165z" />
    <glyph glyph-name="Idotaccent" unicode="&#x130;" horiz-adv-x="681" 
d="M584 0h-484v162h74v1075h-74v162h484v-162h-74v-1075h74v-162zM235 1718q0 50 28 94t77 44q48 0 76 -43.5t28 -94.5t-28 -94t-76 -43q-49 0 -77 43.5t-28 93.5z" />
    <glyph glyph-name="dotlessi" unicode="&#x131;" horiz-adv-x="569" 
d="M506 0h-440v123h69v692l-69 -22v118l376 125q-8 -104 -8 -231v-682h72v-123z" />
    <glyph glyph-name="Lslash" unicode="&#x141;" horiz-adv-x="948" 
d="M176 731v506h-74v162h484v-162h-74v-334l182 94v-172l-182 -94v-569h78q101 0 146.5 51t45.5 166h123l-12 -434h-145v55h-646v162h74v397l-104 -53v172z" />
    <glyph glyph-name="lslash" unicode="&#x142;" horiz-adv-x="569" 
d="M135 768v424l-67 -23v119l434 144v-119l-68 -23v-424l111 37v-135l-111 -37v-608h72v-123h-440v123h69v510l-108 -35v135z" />
    <glyph glyph-name="OE" unicode="&#x152;" horiz-adv-x="1669" 
d="M854 1399h668v-281h-129q0 50 -24 84.5t-71 34.5h-182v-328h277v101h129v-361h-129v99h-277v-586h107q41 0 65 2t45 10.5t31 21t17 38t9 56t3 81.5h129v-371h-668v66q-122 -99 -283 -99q-99 0 -185.5 43t-147 114t-104 161.5t-64.5 186t-21 187.5q0 115 18 223t59.5 209
t102 176t152 120t203.5 45q157 0 270 -84v51zM780 190v752q-38 161 -104 244.5t-150 83.5q-29 0 -52 -12.5t-37.5 -30t-25 -47.5t-15.5 -53.5t-7.5 -60t-3 -55.5t-0.5 -50q0 -45 6 -117t19 -168.5t36 -190.5t53.5 -175t76 -131t98.5 -50q93 0 106 61z" />
    <glyph glyph-name="oe" unicode="&#x153;" horiz-adv-x="1478" 
d="M958 537l205 110q-17 117 -36 164q-34 77 -91 78q-92 0 -92 -205q0 -78 14 -147zM467 889q-53 0 -89 -54t-36 -178q0 -265 56 -402.5t147 -137.5q53 0 89 53.5t36 177.5q0 265 -56 403t-147 138zM1427 596l-432 -205q16 -79 62 -129.5t112 -50.5q58 0 119.5 31t93.5 71
l52 -82q-67 -119 -162.5 -190.5t-218.5 -71.5q-68 0 -129.5 38.5t-108.5 107.5q-116 -146 -309 -146q-112 0 -202.5 45.5t-146 122t-85 170.5t-29.5 197q0 102 29.5 195.5t85 169.5t146 121.5t202.5 45.5q199 0 313 -133q97 133 256 133q77 0 145 -44t111.5 -111
t68.5 -142.5t27 -142.5z" />
    <glyph glyph-name="Scedilla" unicode="&#x15e;" 
d="M846 1399l104 -76l-159 -328q-14 14 -45.5 46.5t-52.5 53t-54 49t-60.5 45t-62 28.5t-67.5 12q-43 0 -79 -30t-36 -73q0 -49 34 -89t89 -69.5t121 -59.5t132.5 -68.5t121.5 -86.5t90 -122.5t36 -167.5q0 -187 -117.5 -323.5t-297.5 -164.5l-19 -86q7 0 22.5 1t22.5 1
q54 0 99 -49t45 -104q0 -78 -58.5 -131t-152.5 -53q-57 0 -109 17t-84 44l31 111q31 -24 74 -41t69 -17q78 0 78 53q0 28 -23.5 47t-48.5 19q-41 0 -81 -16l47 196q-56 1 -112 18.5t-110 50t-94 61.5t-92 70q-11 9 -16 13l162 322q61 -63 129.5 -123.5t156 -115t142.5 -54.5
q59 0 96 27.5t37 80.5q0 40 -21.5 74t-57.5 60t-83 51t-99 50.5t-103.5 53.5t-98.5 65.5t-83 81.5t-57.5 105.5t-21.5 134.5q0 178 131.5 308.5t308.5 130.5q100 0 236 -103z" />
    <glyph glyph-name="scedilla" unicode="&#x15f;" horiz-adv-x="796" 
d="M47 88l131 256q144 -207 260 -207q32 0 55 20.5t23 51.5q0 28 -22 55.5t-57.5 52.5t-78 52t-85.5 61.5t-78.5 74.5t-57.5 97t-22 123q0 133 102.5 222t237.5 89q45 0 93.5 -16.5t80 -34.5t78.5 -49l-107 -207q-36 48 -102.5 104t-110.5 56q-37 0 -57.5 -23t-20.5 -61
q0 -27 22 -55t57.5 -55t78.5 -56.5t86 -63.5t78.5 -71.5t57.5 -86t22 -100.5q0 -132 -78.5 -224t-202.5 -116l-18 -88q7 0 22.5 1t22.5 1q54 0 98.5 -49t44.5 -104q0 -78 -58.5 -131t-152.5 -53q-57 0 -108.5 17t-83.5 44l30 111q31 -24 74.5 -41t69.5 -17q78 0 78 53
q0 28 -23.5 47t-48.5 19q-42 0 -82 -16l47 198q-170 7 -295 119z" />
    <glyph glyph-name="Scaron" unicode="&#x160;" 
d="M846 1399l104 -76l-159 -328q-14 14 -45.5 46.5t-52.5 53t-54 49t-60.5 45t-62 28.5t-67.5 12q-43 0 -79 -30t-36 -73q0 -49 34 -89t89 -69.5t121 -59.5t132.5 -68.5t121.5 -86.5t90 -122.5t36 -167.5q0 -138 -66.5 -252t-181.5 -179t-253 -65q-47 0 -99 15.5t-85.5 30.5
t-91 55t-74 52.5t-76.5 59.5l162 322q61 -63 129.5 -123.5t156 -115t142.5 -54.5q59 0 96 27.5t37 80.5q0 40 -21.5 74t-57.5 60t-83 51t-99 50.5t-103.5 53.5t-98.5 65.5t-83 81.5t-57.5 105.5t-21.5 134.5q0 178 131.5 308.5t308.5 130.5q100 0 236 -103zM524 1499
l-270 166l22 137l248 -94l246 94l25 -137z" />
    <glyph glyph-name="scaron" unicode="&#x161;" horiz-adv-x="796" 
d="M47 88l131 256q144 -207 260 -207q32 0 55 20.5t23 51.5q0 28 -22 55.5t-57.5 52.5t-78 52t-85.5 61.5t-78.5 74.5t-57.5 97t-22 123q0 133 102.5 222t237.5 89q45 0 93.5 -16.5t80 -34.5t78.5 -49l-107 -207q-36 48 -102.5 104t-110.5 56q-37 0 -57.5 -23t-20.5 -61
q0 -27 22 -55t57.5 -55t78.5 -56.5t86 -63.5t78.5 -71.5t57.5 -86t22 -100.5q0 -153 -103 -250.5t-256 -97.5q-80 0 -160.5 31t-144.5 88zM399 1155l-270 166l23 137l247 -94l246 94l25 -137z" />
    <glyph glyph-name="Ydieresis" unicode="&#x178;" horiz-adv-x="1062" 
d="M346 -23l-70 68l189 406l-375 786h-72v162h508v-162h-86l195 -410l180 410h-72v162h304v-162h-66l-418 -934q27 8 66 8q14 0 71.5 -7t73.5 -7q26 0 43.5 20.5t34.5 61.5l90 -27l-70 -348q-87 -37 -149 -37q-44 0 -127.5 24.5t-116.5 24.5q-20 0 -65.5 -14t-67.5 -25z
M575 1640q0 50 28 94t77 44q48 0 76 -43.5t28 -94.5t-28 -94t-76 -43q-49 0 -77 43.5t-28 93.5zM307 1640q0 50 28 94t77 44q48 0 76 -43.5t28 -94.5t-28 -94t-76 -43q-49 0 -77 43.5t-28 93.5z" />
    <glyph glyph-name="Zcaron" unicode="&#x17d;" horiz-adv-x="985" 
d="M737 0h-598l-67 231l524 869q-98 20 -141 20q-82 0 -130 -41.5t-85 -144.5h-129l55 530h147l-4 -65h533l65 -240q-38 -38 -84 -110l-415 -691q51 -20 155 -20q176 0 219 170h133l-41 -578h-141zM506 1499l-270 166l22 137l248 -94l246 94l24 -137z" />
    <glyph glyph-name="zcaron" unicode="&#x17e;" horiz-adv-x="796" 
d="M268 1006h389l48 -129l-9 -9q-10 -8 -17 -16.5t-15 -22.5l-361 -598q29 -2 80 -2q58 0 100 13.5t71.5 42.5t47 58t39.5 77l76 -12l-55 -463h-105l6 55h-434l-57 170l374 623q-30 6 -57 6q-70 0 -111 -34.5t-85 -111.5l-82 21l69 383h94zM399 1155l-270 166l23 137
l247 -94l246 94l25 -137z" />
    <glyph glyph-name="uni018f" unicode="&#x18f;" horiz-adv-x="1204" 
d="M59 676q0 76 9 147h729q-4 12 -4 19q-15 74 -39 147q-21 66 -56 135q-34 61 -73 97q-42 36 -93 36q-38 0 -65 -18q-35 -25 -55 -53q-30 -49 -41 -74q-27 -61 -33 -84l-125 33l131 407l119 -36l-12 -48q49 27 71 35q41 13 78 13q118 0 219 -58q104 -61 170 -157
q72 -97 113 -234q39 -130 39 -285q0 -158 -43 -288q-39 -131 -119 -234q-71 -96 -176 -153q-103 -56 -221 -56q-107 0 -202.5 50.5t-166.5 140.5t-112.5 224.5t-41.5 293.5zM829 598q-2 14 -2 45h-473q31 -169 83 -305.5t120 -187.5q46 -31 82 -31q54 0 96 39q41 44 60 100
q21 57 30 131q9 106 9 133q0 4 -5 76z" />
    <glyph glyph-name="florin" unicode="&#x192;" horiz-adv-x="833" 
d="M129 666h156l32 270q7 65 26.5 117.5t53.5 95t89.5 66.5t127.5 24q79 0 147 -48.5t109 -123.5l-192 -113q0 5 -2 26t-3.5 29.5t-4.5 27t-8 27.5t-12 20t-17.5 15.5t-24.5 4.5q-44 0 -60 -27.5t-16 -107.5q0 -44 13 -90.5t39 -93t73.5 -84t108.5 -54.5l-8 -104h-174
l-90 -609q-12 -75 -32.5 -129.5t-57.5 -98.5t-96 -66.5t-140 -22.5q-97 0 -176 23l20 112h56q54 0 90.5 45t46.5 135l71 611h-165z" />
    <glyph glyph-name="uni0259" unicode="&#x259;" horiz-adv-x="944" 
d="M463 -31q-81 0 -147 26.5t-110.5 70.5t-77 106.5t-50.5 127.5t-27 140l522 246l-12 37q-15 41 -39 84q-22 36 -49 57q-30 23 -61 23q-28 0 -52 -17q-23 -11 -38 -36q-16 -19 -31 -52q-5 -9 -25 -59l-86 41l105 309l86 -31l-11 -36q33 18 56 26q23 10 59 10q96 0 168 -41
q73 -39 131 -112q57 -69 88 -170q33 -95 33 -211q0 -122 -33 -217q-34 -98 -92 -168q-52 -69 -135 -113q-80 -41 -172 -41zM608 492q-6 43 -6 45l-283 -154q24 -131 72 -200.5t109 -69.5q41 0 61 26q25 28 37 68q11 36 14 86q4 62 4 84v37q0 14 -8 78z" />
    <glyph glyph-name="circumflex" unicode="&#x2c6;" horiz-adv-x="569" 
d="M14 1282l271 166l270 -166l-25 -137l-245 94l-248 -94z" />
    <glyph glyph-name="breve" horiz-adv-x="569" 
d="M25 1391l75 55q31 -47 82 -76t105 -29q110 0 194 105l66 -55q-20 -59 -52.5 -109.5t-85 -87.5t-112.5 -37q-93 0 -166.5 69t-105.5 165z" />
    <glyph glyph-name="dotaccent" horiz-adv-x="569" 
d="M180 1296q0 50 28 94t77 44q48 0 76 -43.5t28 -94.5t-28 -94t-76 -43q-49 0 -77 43.5t-28 93.5z" />
    <glyph glyph-name="ring" unicode="&#x2da;" horiz-adv-x="569" 
d="M94 1354q0 81 52.5 144t138.5 63t138 -63t52 -144t-52 -144t-138 -63t-138.5 63t-52.5 144zM217 1354q0 -32 19 -58t49 -26t48.5 26t18.5 58t-18.5 58t-48.5 26t-49 -26t-19 -58z" />
    <glyph glyph-name="tilde" unicode="&#x2dc;" horiz-adv-x="569" 
d="M473 1425l82 -71q-84 -207 -188 -207q-35 0 -95 39q-4 2 -15.5 8.5t-16.5 9t-14.5 7.5t-15 7t-13 3.5t-13.5 1.5q-21 0 -35.5 -7t-20 -13.5t-16.5 -26t-16 -27.5l-80 68q19 50 45.5 92.5t71.5 77t94 34.5q32 0 85.5 -37.5t82.5 -37.5q49 0 78 79z" />
    <glyph glyph-name="uni2010" unicode="&#x2010;" horiz-adv-x="681" 
d="M594 391h-506v227h506v-227z" />
    <glyph glyph-name="endash" unicode="&#x2013;" 
d="M1024 408h-1024v194h1024v-194z" />
    <glyph glyph-name="emdash" unicode="&#x2014;" horiz-adv-x="2048" 
d="M2048 408h-2048v194h2048v-194z" />
    <glyph glyph-name="quoteleft" unicode="&#x2018;" horiz-adv-x="378" 
d="M254 1432l53 -91q-28 -17 -41.5 -33.5t-19.5 -47.5q32 -19 48.5 -60.5t16.5 -85.5q0 -60 -32 -111t-89 -51q-55 0 -87.5 52t-32.5 110q0 103 47.5 191.5t136.5 126.5z" />
    <glyph glyph-name="quoteright" unicode="&#x2019;" horiz-adv-x="378" 
d="M125 952l-53 90q28 17 41.5 34t19.5 48q-32 19 -48.5 60.5t-16.5 85.5q0 60 31.5 111t88.5 51q55 0 88 -52t33 -110q0 -103 -47.5 -191.5t-136.5 -126.5z" />
    <glyph glyph-name="quotesinglbase" unicode="&#x201a;" horiz-adv-x="378" 
d="M127 -172l-53 90q28 17 41.5 34t19.5 48q-32 19 -48.5 60t-16.5 85q0 60 31.5 111t88.5 51q55 0 88 -52t33 -110q0 -103 -47.5 -191t-136.5 -126z" />
    <glyph glyph-name="quotedblleft" unicode="&#x201c;" horiz-adv-x="796" 
d="M291 1432l53 -91q-28 -17 -41.5 -33.5t-19.5 -47.5q32 -19 48.5 -60.5t16.5 -85.5q0 -60 -32 -111t-89 -51q-55 0 -88 52t-33 110q0 103 48 191.5t137 126.5zM633 1432l53 -91q-28 -17 -41.5 -33.5t-19.5 -47.5q32 -19 48.5 -60.5t16.5 -85.5q0 -60 -32 -111t-89 -51
q-55 0 -87.5 52t-32.5 110q0 103 47.5 191.5t136.5 126.5z" />
    <glyph glyph-name="quotedblright" unicode="&#x201d;" horiz-adv-x="796" 
d="M506 952l-53 90q28 17 41.5 34t19.5 48q-32 19 -48.5 60.5t-16.5 85.5q0 60 31.5 111t88.5 51q55 0 88 -52t33 -110q0 -103 -47.5 -191.5t-136.5 -126.5zM164 952l-53 90q28 17 41.5 34t19.5 48q-32 19 -49 61t-17 85q0 60 32 111t89 51q55 0 88 -52t33 -110
q0 -103 -47.5 -191.5t-136.5 -126.5z" />
    <glyph glyph-name="quotedblbase" unicode="&#x201e;" horiz-adv-x="796" 
d="M506 -172l-53 90q28 17 41.5 34t19.5 48q-32 19 -48.5 60t-16.5 85q0 60 31.5 111t88.5 51q55 0 88 -52t33 -110q0 -103 -47.5 -191t-136.5 -126zM164 -172l-53 90q28 17 41.5 34t19.5 48q-32 19 -49 60.5t-17 84.5q0 60 32 111t89 51q55 0 88 -52t33 -110
q0 -103 -47.5 -191t-136.5 -126z" />
    <glyph glyph-name="dagger" unicode="&#x2020;" 
d="M602 -240h-180q4 105 -3.5 228.5t-35.5 266.5t-74 218q69 78 93.5 171t19.5 210q-202 -6 -361 -113v394q159 -107 361 -113q7 228 -98 377h376q-105 -149 -98 -377q202 6 361 113v-394q-159 107 -361 113q-5 -117 19.5 -210t93.5 -171q-46 -75 -74 -218t-35.5 -266.5
t-3.5 -228.5z" />
    <glyph glyph-name="daggerdbl" unicode="&#x2021;" 
d="M324 1399h376q-92 -167 -98 -357q225 0 361 107v-381q-134 106 -361 106q-4 -206 107 -294q-111 -88 -107 -295q227 0 361 106v-381q-136 107 -361 107q6 -190 98 -357h-376q92 167 98 357q-225 0 -361 -107v381q134 -106 361 -106q4 207 -107 295q111 88 107 294
q-227 0 -361 -106v381q136 -107 361 -107q-6 190 -98 357z" />
    <glyph glyph-name="bullet" unicode="&#x2022;" 
d="M164 696q0 150 99 249t249 99q149 0 248.5 -99.5t99.5 -248.5t-99.5 -248.5t-248.5 -99.5q-150 0 -249 99t-99 249z" />
    <glyph glyph-name="ellipsis" unicode="&#x2026;" horiz-adv-x="2048" 
d="M221 145q0 58 33 110t88 52t88 -52t33 -110t-33 -109.5t-88 -51.5t-88 51.5t-33 109.5zM903 147q0 58 33 110t88 52t88 -52t33 -110t-33 -109.5t-88 -51.5t-88 51.5t-33 109.5zM1585 145q0 58 33 110t88 52t88 -52t33 -110t-33 -109.5t-88 -51.5t-88 51.5t-33 109.5z" />
    <glyph glyph-name="perthousand" unicode="&#x2030;" horiz-adv-x="1820" 
d="M193 -31l727 1278h102l-727 -1278h-102zM244 1120q-41 0 -61.5 -30t-20.5 -80q0 -31 13.5 -87.5t36 -117.5t59 -105.5t75.5 -44.5q41 0 61.5 30.5t20.5 80.5q0 31 -13.5 87t-36 117t-59 105.5t-75.5 44.5zM868 561q-41 0 -61.5 -30t-20.5 -80q0 -31 13.5 -87.5t36 -117.5
t59.5 -105.5t76 -44.5q41 0 61.5 30.5t20.5 80.5q0 31 -13.5 87t-36 117t-59.5 105.5t-76 44.5zM317 1247q98 0 173 -95.5t75 -252.5q0 -189 -83.5 -280t-209.5 -91q-98 0 -172.5 96t-74.5 253q0 189 83 279.5t209 90.5zM942 688q98 0 173 -95.5t75 -252.5
q0 -189 -83.5 -280t-209.5 -91q-98 0 -173 95.5t-75 252.5q0 189 83.5 280t209.5 91zM1548 688q98 0 173 -95.5t75 -252.5q0 -189 -83.5 -280t-209.5 -91q-98 0 -173 95.5t-75 252.5q0 189 83.5 280t209.5 91zM1475 561q-41 0 -61.5 -30t-20.5 -80q0 -31 13.5 -87.5
t36 -117.5t59 -105.5t75.5 -44.5q41 0 61.5 30.5t20.5 80.5q0 31 -13.5 87t-36 117t-59 105.5t-75.5 44.5z" />
    <glyph glyph-name="guilsinglleft" unicode="&#x2039;" horiz-adv-x="569" 
d="M299 100l-162 406l162 403h133l-74 -403l74 -406h-133z" />
    <glyph glyph-name="guilsinglright" unicode="&#x203a;" horiz-adv-x="569" 
d="M270 100h-133l74 406l-74 403h133l162 -403z" />
    <glyph glyph-name="fraction" unicode="&#x2044;" horiz-adv-x="342" 
d="M684 1247l-883 -1278h-143l883 1278h143z" />
    <glyph glyph-name="Euro" unicode="&#x20ac;" horiz-adv-x="833" 
d="M647 559l-20 -110h-248q22 -107 70.5 -159t134.5 -52q62 0 100 28t88 92l72 -92q-40 -71 -71.5 -116.5t-75.5 -91t-96 -67.5t-114 -22q-85 0 -151.5 42.5t-108 114t-65.5 152.5t-33 171h-129l20 110h105q0 22 4 80h-129l20 111h123q13 75 32 141.5t52.5 133.5t75.5 114.5
t103 77.5t133 30q63 0 105.5 -35.5t90.5 -105.5l33 31l53 -97l-246 -231l-51 92q1 1 5 6.5t5 7t4.5 7.5t4.5 10t3 11t2.5 15.5t0.5 18.5q0 42 -19.5 76t-62.5 34q-111 0 -111 -303v-34h328l-20 -111h-306q1 -16 3.5 -43.5t3.5 -36.5h282z" />
    <glyph glyph-name="afii61289" unicode="&#x2113;" horiz-adv-x="690" 
d="M627 215l39 -33q-47 -101 -119.5 -156t-165.5 -55q-124 0 -180 70q-30 45 -42 95t-12 161v141l-84 -63l-24 51l108 86v246q0 192 17.5 280.5t66.5 157.5q34 49 78 76.5t90 27.5q77 0 119.5 -65.5t42.5 -173.5q0 -145 -56.5 -261.5t-168.5 -240.5v-162q0 -170 27.5 -235.5
t97.5 -65.5q88 0 166 119zM336 850v-195q56 69 89.5 179.5t33.5 224.5q0 182 -62 182q-18 0 -29.5 -15.5t-18.5 -59.5t-10 -118.5t-3 -197.5z" />
    <glyph glyph-name="trademark" unicode="&#x2122;" horiz-adv-x="2048" 
d="M530 1339v-628q0 -50 17.5 -63.5t87.5 -16.5v-60h-459v60q70 3 87.5 16.5t17.5 63.5v628q-110 2 -152.5 -18t-60.5 -102h-56v180h787v-180h-56q-18 82 -60.5 102t-152.5 18zM1358 571l-262 564h-4v-363v-12q0 -28 0.5 -40.5t3.5 -30.5t9 -25.5t17.5 -16.5t29.5 -12t44 -4
v-60h-276v60q31 1 50 7t30 13t16 27t5.5 34.5t0.5 50.5v19v451q-54 110 -148 110v56h334l260 -539l283 539h285v-56q-70 -3 -87.5 -16.5t-17.5 -64.5v-549q0 -51 17.5 -65t87.5 -17v-60h-459v60q70 3 87 17t17 65v422h-4l-286 -564h-33z" />
    <glyph glyph-name="minus" unicode="&#x2212;" horiz-adv-x="1228" 
d="M115 385v238h999v-238h-999z" />
    <glyph glyph-name="uni2215" unicode="&#x2215;" horiz-adv-x="342" 
d="M684 1247l-883 -1278h-143l883 1278h143z" />
    </font>
</defs>
</svg>
