<?xml version="1.0" standalone="no"?>
<!DOCTYPE svg PUBLIC "-//W3C//DTD SVG 1.1//EN" "http://www.w3.org/Graphics/SVG/1.1/DTD/svg11.dtd" >
<svg xmlns="http://www.w3.org/2000/svg" xmlns:xlink="http://www.w3.org/1999/xlink" version="1.1">
<metadata>
Created by FontForge 20170731 at Thu Apr  7 15:12:56 2022
 By Aleksey,,,
(c) 1988, 1991, 1995, 2001, 2002 Adobe Systems Incorporated. All rights reserved.
</metadata>
<defs>
<font id="Belwe-Light" horiz-adv-x="1175" >
  <font-face 
    font-family="Belwe"
    font-weight="300"
    font-stretch="normal"
    units-per-em="2048"
    panose-1="2 5 5 2 5 3 5 2 5 4"
    ascent="1432"
    descent="-616"
    x-height="967"
    cap-height="1399"
    bbox="-342 -512 2122 1884"
    underline-thickness="102"
    underline-position="-307"
    unicode-range="U+0020-2215"
  />
<missing-glyph horiz-adv-x="1024" 
d="M0 0v1434h1024v-1434h-1024zM512 809l348 522h-696zM573 717l349 -522v1044zM164 102h696l-348 523zM102 1239v-1044l349 522z" />
    <glyph glyph-name="f_i" unicode="fi" horiz-adv-x="985" 
d="M147 877h-143l25 90h123q-78 75 -78 174q0 81 50.5 149t126.5 105t155 37q158 0 290 -142l-114 -47q-5 4 -26 20.5t-32.5 25t-34 22.5t-40 21.5t-41.5 13.5t-46 6q-63 0 -114 -45.5t-51 -108.5q0 -79 46.5 -133t115 -76t153.5 -22q218 0 332 16q-10 -127 -10 -483v-428
h110v-72h-371v72h107v805h-379v-805h131v-72h-393v72h108v805z" />
    <glyph glyph-name="f_l" unicode="fl" horiz-adv-x="985" 
d="M147 877h-143l25 90h123q-78 71 -78 176q0 80 50.5 147.5t126.5 104.5t155 37q129 0 241 -97l297 97v-72l-110 -37v-1251h110v-72h-371v72h107v1200l-102 -41q-29 39 -66 69q-64 52 -150 52q-63 0 -114 -45t-51 -107t21 -108.5t58 -73t81.5 -39t95.5 -12.5h63l-24 -90
h-191v-805h131v-72h-393v72h108v805z" />
    <glyph glyph-name=".notdef" horiz-adv-x="1024" 
d="M0 0v1434h1024v-1434h-1024zM512 809l348 522h-696zM573 717l349 -522v1044zM164 102h696l-348 523zM102 1239v-1044l349 522z" />
    <glyph glyph-name=".null" horiz-adv-x="0" 
 />
    <glyph glyph-name="nonmarkingreturn" horiz-adv-x="682" 
 />
    <glyph glyph-name="space" unicode=" " horiz-adv-x="491" 
 />
    <glyph glyph-name="exclam" unicode="!" horiz-adv-x="645" 
d="M221 1260q0 36 3 61t12.5 53t32 43t57.5 15q28 0 47.5 -11t29.5 -26t15.5 -40.5t6.5 -44t1 -46.5q0 -36 -18 -165t-34.5 -318.5t-13.5 -377.5h-77q2 163 -30 490.5t-32 366.5zM319 -16q-43 0 -71.5 28.5t-28.5 71.5q0 42 27.5 71t72.5 29q40 0 72.5 -28.5t32.5 -71.5
t-30.5 -71.5t-74.5 -28.5z" />
    <glyph glyph-name="quotedbl" unicode="&#x22;" horiz-adv-x="681" 
d="M557 1266l-35 -418q0 -1 -1 -10t-1.5 -14t-3 -13.5t-6 -13.5t-9.5 -9t-14 -4q-9 0 -15 4.5t-9 14t-4.5 15.5t-2.5 17.5t-1 12.5l-35 418q-2 29 -2 49t4 51.5t20.5 48.5t44.5 17q83 0 70 -166zM262 1266l-35 -418q0 -1 -1 -12.5t-2.5 -17.5t-4.5 -15.5t-9 -14t-15 -4.5
q-8 0 -14 4t-9.5 9t-6 13.5t-3 13.5t-1.5 14t-1 10l-35 418q-13 166 70 166q28 0 44.5 -17t20.5 -48.5t4 -51.5t-2 -49z" />
    <glyph glyph-name="numbersign" unicode="#" horiz-adv-x="985" 
d="M866 479l6 -90h-186l-55 -389h-99l56 389h-234l-55 -389h-98l55 389h-186l-7 90h205l37 260h-186l-6 90h204l54 388h98l-57 -388h233l57 388h99l-58 -388h175l6 -90h-191l-37 -260h170zM637 739h-238l-37 -260h238z" />
    <glyph glyph-name="dollar" unicode="$" horiz-adv-x="985" 
d="M471 766v369q-65 0 -121.5 -44.5t-56.5 -111.5q0 -44 14 -79t41.5 -60t55 -41t67.5 -33zM553 543v-443q91 0 148 59t57 154q0 149 -205 230zM471 -162v162q-192 -6 -356 129l86 131q66 -69 130.5 -109t139.5 -47v476q-42 19 -62.5 28.5t-59 30t-59 36.5t-48 42t-41.5 52
t-24.5 61t-10.5 75q0 124 91 215t214 97v149h82v-149q154 -12 274 -103l-63 -102q-48 37 -67.5 51.5t-61 35t-82.5 27.5v-399q45 -21 68.5 -32t64.5 -34t64 -40.5t52.5 -45t45 -55t26.5 -64t11 -77.5q0 -143 -97.5 -252.5t-234.5 -126.5v-162h-82z" />
    <glyph glyph-name="percent" unicode="%" horiz-adv-x="1251" 
d="M127 934q0 -44 16.5 -98t45.5 -103.5t74 -83t95 -33.5q164 0 164 230q0 63 -27.5 133t-82.5 123t-121 53q-57 0 -95.5 -34t-53.5 -82t-15 -105zM1022 1247l-713 -1278h-71l710 1278h74zM727 379q0 -44 16.5 -98t45.5 -103.5t74 -83t95 -33.5q164 0 164 230
q0 63 -27.5 133t-82.5 123t-121 53q-57 0 -95.5 -34t-53.5 -82t-15 -105zM55 877q0 63 16 126t47.5 118.5t86 90.5t123.5 35t122.5 -31.5t83.5 -83.5t45 -112t15 -125q0 -48 -9 -98.5t-29.5 -99.5t-49.5 -87.5t-72.5 -62t-95.5 -23.5q-71 0 -127 30t-89 81t-50 112.5
t-17 129.5zM655 322q0 63 16 126t47.5 118.5t86 90.5t123.5 35t122.5 -31.5t83.5 -83.5t45 -112t15 -125q0 -48 -9 -98.5t-29.5 -99.5t-49.5 -87.5t-72.5 -62t-95.5 -23.5q-71 0 -127 30t-89 81t-50 112.5t-17 129.5z" />
    <glyph glyph-name="ampersand" unicode="&#x26;" horiz-adv-x="1402" 
d="M551 893q16 9 53.5 29.5t59.5 33.5t55.5 34.5t53 42t40 47t30 58t9.5 66.5q0 61 -41 104.5t-100 43.5q-56 0 -92 -16.5t-70 -61.5q-24 -32 -37.5 -81t-13.5 -93q0 -115 53 -207zM1313 743h-119q-10 -139 -64.5 -267t-136.5 -228q8 -7 36 -33.5t45 -41t43.5 -34
t51.5 -28.5t48 -9q19 0 36.5 2.5t28.5 4.5t29 10.5t24.5 12t30.5 17t31 17.5l39 -47q-106 -152 -265 -152q-49 0 -89 11.5t-79.5 40t-63 50t-67.5 66.5q-80 -83 -186.5 -125.5t-224.5 -42.5q-182 0 -298 121t-116 305q0 75 30 144.5t82.5 124t114 96.5t132.5 73
q-52 104 -52 216q0 154 110 269.5t263 115.5q107 0 180.5 -55.5t73.5 -162.5q0 -53 -28 -104.5t-60.5 -86.5t-96.5 -78.5t-97 -62t-102 -54.5l-3 -1.5l-3 -1.5t-3.5 -2t-3.5 -2q145 -284 350 -508q54 51 101.5 147.5t47.5 160.5q0 67 -33 93.5t-102 28.5v80h365v-80z
M438 760q-122 -73 -180.5 -159t-58.5 -198q0 -139 101.5 -221t240.5 -82q129 0 272 95q-122 151 -213.5 284.5t-161.5 280.5z" />
    <glyph glyph-name="quotesingle" unicode="'" horiz-adv-x="454" 
d="M295 1266l-35 -418q0 -1 -1 -10t-1.5 -14t-3 -13.5t-6 -13.5t-9.5 -9t-14 -4q-9 0 -15 4.5t-9 14t-4.5 15.5t-2.5 17.5t-1 12.5l-35 418q-2 29 -2 49t4 51.5t20.5 48.5t44.5 17q83 0 70 -166z" />
    <glyph glyph-name="parenleft" unicode="(" horiz-adv-x="606" 
d="M446 1432l68 -54q-147 -180 -212.5 -373t-65.5 -434q0 -228 73.5 -440.5t212.5 -357.5l-69 -60q-179 153 -280 375.5t-101 456.5q0 274 90 486.5t284 400.5z" />
    <glyph glyph-name="parenright" unicode=")" horiz-adv-x="606" 
d="M160 -287l-68 54q147 180 213 372.5t66 433.5q0 228 -74 440.5t-213 358.5l70 60q179 -153 280 -375.5t101 -456.5q0 -274 -90.5 -486.5t-284.5 -400.5z" />
    <glyph glyph-name="asterisk" unicode="*" horiz-adv-x="1024" 
d="M143 1079l39 140q158 -95 289 -144q0 141 -39 324h160q-39 -183 -39 -324q131 49 289 144l39 -140q-125 -14 -312 -71q109 -139 224 -232l-127 -96q-57 156 -154 289q-97 -133 -154 -289l-127 96q115 93 224 232q-187 57 -312 71z" />
    <glyph glyph-name="plus" unicode="+" horiz-adv-x="1228" 
d="M559 539v428h111v-428h428v-111h-428v-428h-111v428h-428v111h428z" />
    <glyph glyph-name="comma" unicode="," horiz-adv-x="491" 
d="M186 -190l-24 55q91 47 94 121q-4 -2 -12 -2q-45 0 -74 24.5t-29 69.5q0 42 25.5 76t69.5 34q52 0 83 -45.5t31 -95.5q0 -79 -48 -147t-116 -90z" />
    <glyph glyph-name="hyphen" unicode="-" horiz-adv-x="681" 
d="M590 422h-498v131h498v-131z" />
    <glyph glyph-name="period" unicode="." horiz-adv-x="491" 
d="M246 -16q-39 0 -71 29t-32 73t32 73t71 29t70.5 -29t31.5 -73t-31.5 -73t-70.5 -29z" />
    <glyph glyph-name="slash" unicode="/" horiz-adv-x="569" 
d="M-4 -33l483 1465h94l-483 -1465h-94z" />
    <glyph glyph-name="zero" unicode="0" horiz-adv-x="985" 
d="M174 688q0 -66 14 -141.5t45 -153t74 -139.5t107 -101.5t139 -39.5q66 0 115 27t76 67t42.5 99t20 109.5t4.5 112.5q0 66 -14 141.5t-45 153t-74 140t-107 102t-139 39.5q-56 0 -99.5 -18t-70.5 -51t-45.5 -71.5t-27 -89t-12 -93t-3.5 -93.5zM489 -31q-92 0 -167.5 41
t-123.5 106.5t-81.5 150.5t-47.5 170t-14 169q0 82 14 166.5t47.5 171t82.5 153t126 108.5t171 42q92 0 167.5 -41t123.5 -106.5t81.5 -150.5t47.5 -170t14 -169q0 -82 -14 -166.5t-47.5 -171t-82.5 -153t-126 -108.5t-171 -42z" />
    <glyph glyph-name="one" unicode="1" horiz-adv-x="985" 
d="M705 0h-402v72h127v968l-137 -39l-4 62q37 15 51.5 21.5t46 22.5t48.5 29t38.5 34.5t36.5 46.5h74v-1145h121v-72z" />
    <glyph glyph-name="two" unicode="2" horiz-adv-x="985" 
d="M883 258l-64 -303l-76 -4l7 49h-584l-51 129q165 117 282 219q16 13 49.5 40.5t56 46.5t56 50.5t56.5 57.5t48.5 62.5t41 71.5t26 78t10.5 87q0 127 -81 225t-207 98q-111 0 -182.5 -76.5t-71.5 -185.5q0 -268 266 -274v-56q-43 -16 -86 -16q-130 0 -216.5 76t-86.5 203
q0 189 125 300t315 111q175 0 282 -100.5t107 -269.5q0 -62 -18.5 -123t-47 -111t-74.5 -103t-89 -92.5t-103.5 -86.5t-105 -78t-106 -74t-95.5 -68v-2h383q67 0 98.5 21t59.5 98h76z" />
    <glyph glyph-name="three" unicode="3" horiz-adv-x="985" 
d="M782 1110l-311 -301q115 1 207.5 -39.5t148.5 -125t56 -200.5q0 -131 -65.5 -240t-177.5 -172t-245 -63q-99 0 -193.5 37.5t-158.5 108.5l111 110q150 -166 299 -166q133 0 204.5 79t71.5 220q0 142 -78 239t-217 97q-41 0 -127 -28l-41 43l375 368h-281
q-124 0 -167 -123l-78 17l84 303l82 -21l-7 -36h230q128 0 229 8z" />
    <glyph glyph-name="four" unicode="4" horiz-adv-x="985" 
d="M170 420h408v569h-5zM578 72v233h-531l4 115l559 797h121v-797h174l-16 -115h-158v-233h131v-72h-436v72h152z" />
    <glyph glyph-name="five" unicode="5" horiz-adv-x="985" 
d="M221 694l-88 47l162 476h457l16 53h84l-64 -193h-452l-84 -248q103 35 182 35q87 0 167 -35t136.5 -92.5t90.5 -134t34 -156.5q0 -121 -58.5 -230.5t-163 -178t-226.5 -68.5q-211 0 -367 150l113 110q55 -61 142 -103t165 -42q120 0 191 74.5t71 206.5q0 89 -46 177.5
t-129 148t-177 59.5q-80 0 -156 -56z" />
    <glyph glyph-name="six" unicode="6" horiz-adv-x="985" 
d="M772 365q0 87 -31 171t-98 144.5t-156 60.5q-139 0 -205.5 -93t-66.5 -240q0 -86 38.5 -167.5t111 -135.5t159.5 -54q64 0 113.5 26.5t78 71.5t42.5 99.5t14 116.5zM854 1171l-84 -110q-143 96 -252 96q-73 0 -134 -50.5t-98 -126.5t-57 -156.5t-20 -147.5
q79 84 157.5 129t174.5 45q167 0 276 -117.5t109 -283.5q0 -124 -50.5 -233t-149 -178t-222.5 -69q-93 0 -169.5 31t-128.5 84t-87.5 126t-51.5 155.5t-16 173.5q0 90 22.5 187t68.5 190t108.5 167t151 119t188.5 45q138 0 264 -76z" />
    <glyph glyph-name="seven" unicode="7" horiz-adv-x="985" 
d="M246 1255l10 -38h586l45 -121q-211 -251 -304.5 -479.5t-93.5 -514.5v-102h-161v72q0 154 28.5 288.5t88.5 257.5t132.5 228.5t178.5 230.5h-391q-77 0 -107.5 -22.5t-64.5 -104.5l-78 11l69 303z" />
    <glyph glyph-name="eight" unicode="8" horiz-adv-x="985" 
d="M440 631q-16 3 -52 -16.5t-75.5 -53.5t-69.5 -91t-30 -118q0 -113 100 -192.5t215 -79.5q107 0 185 57.5t78 161.5q0 51 -25 99t-63.5 82.5t-82 64t-84.5 48t-65.5 28t-30.5 10.5zM270 1008q1 -149 258 -250l22 -10h-1l4 -5q54 24 108 80.5t54 116.5q0 90 -71.5 153.5
t-158.5 63.5q-101 0 -158 -42t-57 -107zM625 702q55 -28 90 -49t75 -53t62.5 -65t37.5 -80.5t15 -104.5q0 -106 -64 -195.5t-162 -137.5t-202 -48q-170 0 -283.5 91.5t-113.5 258.5q0 197 270 357q-75 32 -134.5 102.5t-59.5 145.5q0 151 102.5 237t255.5 86q82 0 156.5 -30
t126 -93.5t51.5 -148.5q-3 -102 -61.5 -164t-161.5 -109z" />
    <glyph glyph-name="nine" unicode="9" horiz-adv-x="985" 
d="M201 852q0 -64 18.5 -129t52.5 -121.5t90 -91.5t123 -35q72 0 125.5 26.5t85 73.5t47 105.5t15.5 128.5q0 86 -38.5 167t-111 135t-159.5 54q-64 0 -113.5 -26.5t-78 -71.5t-42.5 -99t-14 -116zM119 45l84 111q145 -97 252 -97q73 0 134 51t98 127t57 156.5t20 147.5
q-79 -84 -157.5 -129t-174.5 -45q-167 0 -276 117.5t-109 283.5q0 124 50.5 232.5t149 177.5t222.5 69q93 0 169.5 -31t128.5 -84t87.5 -125.5t51.5 -155t16 -173.5q0 -90 -22.5 -187t-68.5 -190t-108.5 -167t-151 -119.5t-188.5 -45.5q-138 0 -264 76z" />
    <glyph glyph-name="colon" unicode=":" horiz-adv-x="491" 
d="M246 455q-39 0 -71 29t-32 73t32 73t71 29t70.5 -29t31.5 -73t-31.5 -73t-70.5 -29zM246 -16q-39 0 -71 29t-32 73t32 73t71 29t70.5 -29t31.5 -73t-31.5 -73t-70.5 -29z" />
    <glyph glyph-name="semicolon" unicode=";" horiz-adv-x="491" 
d="M186 -190l-24 55q91 47 94 121q-4 -2 -12 -2q-45 0 -74 24.5t-29 69.5q0 42 25.5 76t69.5 34q52 0 83 -45.5t31 -95.5q0 -79 -48 -147t-116 -90zM246 455q-39 0 -71 29t-32 73t32 73t71 29t70.5 -29t31.5 -73t-31.5 -73t-70.5 -29z" />
    <glyph glyph-name="less" unicode="&#x3c;" horiz-adv-x="1228" 
d="M1083 115v-115l-940 430v107l940 430v-115l-807 -369z" />
    <glyph glyph-name="equal" unicode="=" horiz-adv-x="1228" 
d="M1098 739v-110h-967v110h967zM1098 338v-111h-967v111h967z" />
    <glyph glyph-name="greater" unicode="&#x3e;" horiz-adv-x="1228" 
d="M145 115l807 368l-807 369v115l940 -430v-107l-940 -430v115z" />
    <glyph glyph-name="question" unicode="?" horiz-adv-x="833" 
d="M406 1360q-89 0 -147 -56.5t-58 -146.5q0 -36 15 -80t34 -73l-148 -76q-49 96 -49 166q0 103 53.5 181.5t139 117.5t186.5 39q144 0 240 -78.5t96 -220.5q0 -32 -4 -59.5t-15.5 -53t-19 -41.5t-29.5 -40t-30 -32.5t-36.5 -35.5t-35.5 -33q-39 -39 -64 -71.5t-53.5 -85.5
t-41.5 -124.5t-11 -159.5h-106q0 21 -2.5 59t-2.5 56q0 55 10.5 102t33.5 89.5t41 68.5t51 68q2 2 19.5 24t20 26t17.5 24.5t18.5 27.5t15 26.5t15 30.5t11 31t9.5 36t4.5 37.5t2.5 43.5q0 95 -43.5 154t-136.5 59zM393 -16q-43 0 -71.5 28.5t-28.5 71.5q0 42 27.5 71
t72.5 29q40 0 72.5 -28.5t32.5 -71.5t-30.5 -71.5t-74.5 -28.5z" />
    <glyph glyph-name="at" unicode="@" horiz-adv-x="1638" 
d="M668 565q0 -178 143 -178q36 0 80.5 42.5t82.5 107.5t63.5 150.5t25.5 162.5q0 135 -94 135q-44 0 -95 -28.5t-97.5 -79.5t-77.5 -133.5t-31 -178.5zM1096 963l22 86h142l-140 -549q-3 -15 -3.5 -33t3.5 -43t24.5 -41t55.5 -16q67 0 123.5 42t91.5 107.5t54.5 141
t19.5 147.5q0 75 -26.5 154t-80 154t-126.5 134t-175 95t-217 36q-128 0 -238.5 -49t-193 -140t-129.5 -231.5t-47 -312.5q0 -114 45 -222.5t124.5 -194t199.5 -137.5t260 -52q88 0 168.5 16t128.5 33.5t125 52.5l26 -55q-89 -38 -143.5 -59t-140 -40.5t-162.5 -19.5
q-159 0 -294 45t-225.5 117.5t-155 165t-93.5 187t-29 184.5q0 169 62.5 313.5t168 243t246.5 154t297 55.5q195 0 354.5 -81t251 -224.5t91.5 -319.5q0 -84 -26.5 -172t-74.5 -165t-125 -126t-168 -49q-44 0 -79 13.5t-55.5 33.5t-33.5 43t-18 40.5t-4 27.5h-4
q-13 -20 -31 -41t-49 -48.5t-74.5 -45t-89.5 -17.5q-26 0 -47.5 3t-52.5 18t-52.5 41.5t-37 78.5t-15.5 123q0 49 15.5 112.5t50 133.5t81.5 128t118.5 96t152.5 38q34 0 58.5 -7.5t42.5 -25.5t26 -30t22 -38q2 -3 3 -5z" />
    <glyph glyph-name="A" unicode="A" horiz-adv-x="1290" 
d="M874 528l-256 689l-256 -689h512zM319 0h-344v80h101l330 885l39 105t42 112t36 103t34 114h172q6 -36 37 -121l438 -1198h111v-80h-412v80h137l-131 358h-579l-133 -358h122v-80z" />
    <glyph glyph-name="B" unicode="B" 
d="M371 815v-735h147q41 0 76 3t80 12.5t81 25.5t72 44.5t60.5 67.5t39.5 97t15 129q0 90 -26.5 156t-67 104t-101 60t-116.5 29t-125 7h-135zM371 1319v-424h75q293 0 293 209q0 56 -18 97t-45 63t-67.5 35t-74.5 16.5t-77 3.5h-86zM76 80h127v1239h-127v80h387q37 0 66 -1
t75.5 -7t82 -16t75 -30t65.5 -47.5t43 -70.5t17 -97q0 -97 -55 -166.5t-148 -89.5v-4q201 -3 313.5 -120t112.5 -295q0 -77 -20 -142.5t-52.5 -111t-77.5 -82t-91.5 -58t-97 -36t-92 -20t-79.5 -5.5h-524v80z" />
    <glyph glyph-name="C" unicode="C" horiz-adv-x="1327" 
d="M1165 1276l56 51l61 -59l-281 -260l-61 61q29 26 40 51t11 64q0 85 -74 126.5t-178 41.5q-125 0 -223 -51.5t-158 -139.5t-91 -198t-31 -234q0 -168 69 -311.5t196 -230.5t285 -87q265 0 435 185l61 -68q-201 -250 -532 -250q-208 0 -364.5 98t-237 265t-80.5 379
q0 188 89.5 354t247 267.5t343.5 101.5q121 0 219 -38t198 -118z" />
    <glyph glyph-name="D" unicode="D" horiz-adv-x="1366" 
d="M221 80v1239h-121v80h514q156 0 281.5 -52t208 -145t126.5 -221t44 -281q0 -168 -54.5 -303t-148.5 -220.5t-217 -131t-264 -45.5h-496v80h127zM389 1319v-1239h160q261 0 409 157.5t148 462.5q0 151 -42 270.5t-115 195t-169 114.5t-207 39h-184z" />
    <glyph glyph-name="E" unicode="E" 
d="M94 0v80h127v1239h-127v80h864l109 -240l-59 -37q-116 197 -390 197h-229v-434h485v119h80v-349h-80v140h-485v-715h78q103 0 178 9.5t148.5 36t132 77.5t106.5 129l70 -25l-148 -311q-78 4 -127 4h-733z" />
    <glyph glyph-name="F" unicode="F" horiz-adv-x="1062" 
d="M96 1319v80h490q201 0 338 10l112 -254l-63 -29q-55 111 -157 152t-263 41h-164v-434h455v123h80v-363h-80v150h-455v-715h139v-80h-432v80h125v1239h-125z" />
    <glyph glyph-name="G" unicode="G" horiz-adv-x="1478" 
d="M1239 1270l59 55l60 -61l-273 -254l-63 55q51 48 51 113q0 71 -85 122.5t-204 51.5q-105 0 -195 -35t-154 -96t-109.5 -142t-67.5 -173.5t-22 -190.5q0 -170 80 -321t222.5 -244t311.5 -93q60 0 110.5 9.5t98 32.5t75 68t27.5 109v426h-381v91h328q118 0 209 16l49 -47
q-37 -26 -37 -78v-395q0 -78 10 -137q-287 -185 -532 -185q-218 0 -384.5 83.5t-260.5 245t-94 378.5q0 193 95.5 368t261 282.5t355.5 107.5q241 0 459 -162z" />
    <glyph glyph-name="H" unicode="H" horiz-adv-x="1366" 
d="M516 0h-422v80h127v1239h-127v80h422v-80h-127v-434h588v434h-127v80h422v-80h-127v-1239h127v-80h-422v80h127v715h-588v-715h127v-80z" />
    <glyph glyph-name="I" unicode="I" horiz-adv-x="606" 
d="M96 1399h414v-80h-123v-1239h123v-80h-414v80h123v1239h-123v80z" />
    <glyph glyph-name="J" unicode="J" horiz-adv-x="681" 
d="M162 1399h436v-80h-123v-1045q0 -164 -71 -235.5t-189 -71.5q-60 0 -101 9t-81 36v129q60 -55 139 -55q55 0 81 11t40 49.5t14 117.5v1055h-145v80z" />
    <glyph glyph-name="K" unicode="K" horiz-adv-x="1251" 
d="M526 0h-422v80h125v1239h-120v80h417v-80h-129v-596l561 596h-133v80h355v-80h-90l-433 -461l478 -778h127v-80h-437v80h133l-415 663l-146 -155v-508h129v-80z" />
    <glyph glyph-name="L" unicode="L" horiz-adv-x="1062" 
d="M98 1399h443v-80h-152v-1239h197q46 0 82 5t80 21.5t80 45t73.5 79.5t69.5 121l67 -14l-116 -393h-82l16 55h-762v80h127v1239h-123v80z" />
    <glyph glyph-name="M" unicode="M" horiz-adv-x="1630" 
d="M383 0h-344v80h96l164 1239h-129v80h272q11 -58 60 -211l295 -916h4l399 1127h256v-80h-123l111 -1092q7 -71 20 -147h111v-80h-414v80h150l-105 1001h-4l-383 -1081h-94l-348 1071h-4l-131 -991h141v-80z" />
    <glyph glyph-name="N" unicode="N" horiz-adv-x="1402" 
d="M227 80v1239h-123v80h242q19 -48 51 -94l662 -1029h4v1043h-143v80h385v-80h-123v-1327h-119l-713 1106h-4v-1018h133v-80h-379v80h127z" />
    <glyph glyph-name="O" unicode="O" horiz-adv-x="1669" 
d="M68 709q0 201 96 367t264.5 261t374.5 95q162 0 306.5 -50.5t253.5 -142t172.5 -230.5t63.5 -307q0 -213 -96 -381.5t-263.5 -261t-373.5 -92.5q-171 0 -317 50.5t-253 143.5t-167.5 234t-60.5 314zM846 47q164 0 298.5 77.5t211 212.5t76.5 300q0 144 -45 274t-126 228
t-202.5 155.5t-265.5 57.5q-159 0 -288 -82.5t-199 -217.5t-70 -292q0 -107 26 -210.5t78 -194.5t124.5 -159.5t171 -108.5t210.5 -40z" />
    <glyph glyph-name="P" unicode="P" 
d="M381 1319v-657q0 -124 49 -168.5t150 -44.5q90 0 161 34t114.5 93.5t66 137t22.5 169.5q0 89 -26 163t-69.5 123.5t-102 84t-122.5 50t-132 15.5h-111zM526 0h-440v80h127v1239h-123v80h451q267 0 419 -141.5t152 -376.5q0 -130 -41.5 -228t-119.5 -160t-185.5 -93
t-243.5 -31q-55 0 -141 12v-301h145v-80z" />
    <glyph glyph-name="Q" unicode="Q" horiz-adv-x="1669" 
d="M1432 641q0 144 -45 273.5t-126 226.5t-202.5 154t-265.5 57q-160 0 -288.5 -81.5t-198.5 -215.5t-70 -291q0 -135 42 -262.5t118 -228t193 -161.5t257 -61q164 0 298.5 77.5t211 212.5t76.5 300zM326 -176l-70 74l348 98v4q-245 65 -390.5 249t-145.5 458
q0 151 56.5 285.5t154 231t234 152.5t290.5 56q162 0 306.5 -50.5t253.5 -142t172.5 -231.5t63.5 -308q0 -155 -53 -289t-146 -228.5t-222 -150.5t-277 -61q0 -3 75 -44t174.5 -82.5t149.5 -41.5q38 0 96 18t99 46l39 -43q-161 -135 -307 -135q-54 0 -113.5 18.5t-94 36
t-101.5 55.5q-56 31 -76.5 41.5t-67.5 32t-86 29.5t-80 8q-42 0 -100 -16.5t-87.5 -28.5t-94.5 -41z" />
    <glyph glyph-name="R" unicode="R" horiz-adv-x="1327" 
d="M385 1319v-819h139q88 0 158 10.5t137 39.5t111 77t71 127.5t27 185.5q0 78 -22 140t-61.5 102t-87.5 68t-107 42.5t-111.5 20.5t-110.5 6h-143zM512 0h-422v80h127v1239h-123v80h535q116 0 217 -30.5t180 -89t124.5 -154.5t45.5 -218q0 -204 -132.5 -325t-342.5 -146
l364 -356h119v-80h-266q-81 87 -157 165t-160 160t-97 95h-139v-340h127v-80z" />
    <glyph glyph-name="S" unicode="S" horiz-adv-x="1099" 
d="M12 178l127 127q46 -48 84.5 -82.5t91.5 -74.5t109 -61t111 -21q92 0 166.5 31t122.5 99t48 164q0 43 -12.5 80.5t-31 65.5t-52 54.5t-61.5 43.5t-75 37t-77 31t-83 29t-79 28q-51 19 -95.5 46t-82.5 64.5t-60 87.5t-22 107q0 120 62 212t160.5 139t214.5 47q33 0 67 -5
t55 -8.5t60 -18t50.5 -19t60.5 -25.5t57 -25l53 55l45 -47l-123 -159q-106 79 -197 123.5t-190 44.5q-97 0 -178.5 -69.5t-81.5 -164.5q0 -44 13.5 -80.5t42 -65t58.5 -50t77.5 -42t83.5 -34t92 -33t88 -31.5q134 -51 205 -131t71 -209q0 -201 -135.5 -336t-335.5 -135
q-290 0 -504 211z" />
    <glyph glyph-name="T" unicode="T" horiz-adv-x="1099" 
d="M635 80h145v-80h-461v80h148v1239q-147 5 -221 -38.5t-103 -176.5h-86l68 352h82l-8 -57h704l-8 57h82l67 -352h-86q-29 133 -102.5 176.5t-220.5 38.5v-1239z" />
    <glyph glyph-name="U" unicode="U" horiz-adv-x="1366" 
d="M989 0v143h-4q-65 -82 -162.5 -129t-204.5 -47q-419 0 -419 445v907h-127v80h295v-977q0 -198 61 -286.5t219 -88.5q143 0 237 90t97 234v948h-123v80h291v-1319h121v-80h-281z" />
    <glyph glyph-name="V" unicode="V" horiz-adv-x="1251" 
d="M250 1319l78 -211q88 153 178 225q124 99 260 99q48 0 125 -15q92 -18 123 -18q75 0 166 31l37 -39q-17 -25 -33 -60t-23 -53.5t-24.5 -69.5t-20.5 -59l-239 -682q-10 -29 -39.5 -111.5t-43.5 -124t-32.5 -108.5t-28.5 -123h-188q-8 42 -22.5 91.5t-26 81t-34 91
t-30.5 82.5l-358 973h-105v80h387v-80h-106zM664 186l376 1090q-92 -27 -127 -27q-18 0 -35.5 3.5t-45 11.5t-35.5 10q-70 18 -117 18q-52 0 -103.5 -28t-88.5 -67.5t-66.5 -81.5t-44 -71t-15.5 -36l297 -822h5z" />
    <glyph glyph-name="W" unicode="W" horiz-adv-x="1781" 
d="M791 1319l69 -201q109 153 189 221q108 93 251 93q39 0 130 -17q86 -16 126 -16q88 0 162 26l35 -36q-48 -68 -76 -152l-368 -1081q-22 -62 -45 -156h-183q-27 114 -99.5 322.5t-82.5 238.5h-4l-186 -561h-172l-457 1319h-107v80h377v-80h-106l399 -1131h4l193 541
l-205 590h-105v80h371v-80h-110zM1196 178l381 1104q-24 -14 -64.5 -23.5t-64.5 -9.5q-14 0 -30 2.5t-26.5 5t-31 8t-27.5 7.5q-78 20 -127 20q-58 0 -115 -31t-97 -75.5t-66.5 -87.5t-34.5 -74l299 -846h4z" />
    <glyph glyph-name="X" unicode="X" horiz-adv-x="1214" 
d="M393 0h-354v80h106l385 610l-376 629h-103v80h418v-80h-137l289 -483l307 483h-103v80h328v-80h-96l-373 -588l391 -651h115v-80h-408v80h117l-307 506l-318 -506h119v-80z" />
    <glyph glyph-name="Y" unicode="Y" 
d="M399 -23l-55 31l199 420l-482 891h-102v80h412v-80h-131l385 -717l342 717h-131v80h346v-80h-99l-569 -1200q51 22 84 22q44 0 84 -16q46 -16 86 -16q42 0 68.5 12t68.5 43l41 -17q-35 -81 -93.5 -130.5t-139.5 -49.5q-50 0 -107 21q-54 20 -112 20q-56 0 -95 -31z" />
    <glyph glyph-name="Z" unicode="Z" horiz-adv-x="1099" 
d="M1006 1286l-805 -1147h428q121 0 194.5 49.5t106.5 163.5h84l-45 -401h-95l5 49h-560q-131 0 -210 -8l-80 125l813 1143h-393q-104 0 -165 -42.5t-83 -146.5h-95l41 385h101l-6 -57h686z" />
    <glyph glyph-name="bracketleft" unicode="[" horiz-adv-x="606" 
d="M133 1399h346v-80h-207v-1512h207v-79h-346v1671z" />
    <glyph glyph-name="backslash" unicode="\" horiz-adv-x="569" 
d="M-141 1432h106l746 -1465h-107z" />
    <glyph glyph-name="bracketright" unicode="]" horiz-adv-x="606" 
d="M473 -272h-346v79h207v1512h-207v80h346v-1671z" />
    <glyph glyph-name="asciicircum" unicode="^" horiz-adv-x="1228" 
d="M313 469h-127l375 748h107l374 -748h-127l-301 604z" />
    <glyph glyph-name="underscore" unicode="_" horiz-adv-x="1024" 
d="M1024 -256h-1024v102h1024v-102z" />
    <glyph glyph-name="grave" unicode="`" horiz-adv-x="530" 
d="M25 1343l45 89l424 -283l-37 -39z" />
    <glyph glyph-name="a" unicode="a" horiz-adv-x="1024" 
d="M707 334v209q-135 12 -142 12q-64 0 -119.5 -10t-109 -33.5t-84.5 -70.5t-31 -113q0 -115 58.5 -182.5t179.5 -67.5q128 0 188 69t60 187zM295 971l-10 -76q131 88 282 88q54 0 97.5 -12.5t73.5 -34t52.5 -54t35.5 -67.5t21 -80.5t10.5 -87t2.5 -92.5v-483h109v-72h-242
q-16 50 -20 119q-132 -135 -326 -135q-140 0 -226.5 86.5t-86.5 230.5q0 75 27 133t71 93.5t105.5 58.5t123.5 32t131 9q48 0 181 -9q1 54 -1 91.5t-13.5 78.5t-32.5 65.5t-60 41t-94 16.5q-89 0 -165.5 -58t-113.5 -144l-61 14l67 262z" />
    <glyph glyph-name="b" unicode="b" horiz-adv-x="1099" 
d="M303 782v-442q0 -47 4.5 -83.5t20.5 -76.5t43 -65.5t75.5 -42.5t114.5 -17q76 0 135.5 40t93.5 104.5t51 135t17 140.5q0 75 -19.5 144.5t-56.5 128t-99.5 94t-141.5 35.5q-67 0 -121.5 -23.5t-116.5 -71.5zM150 119v1155l-117 -37v72l364 123v-72l-94 -37v-451
q177 111 311 111q123 0 217.5 -64t142.5 -165t48 -219q0 -104 -34.5 -202t-96 -176t-156 -125.5t-205.5 -47.5q-116 0 -201.5 30.5t-178.5 104.5z" />
    <glyph glyph-name="c" unicode="c" horiz-adv-x="985" 
d="M895 223l47 -45q-163 -194 -383 -194q-137 0 -248.5 56.5t-177 164t-65.5 246.5q0 149 64.5 270t182.5 191.5t267 70.5q91 0 185.5 -42.5t158.5 -109.5l-107 -110q-58 76 -85 103q-91 87 -210 87q-139 0 -231 -108.5t-92 -261.5q0 -111 48 -212t139.5 -167t203.5 -66
q90 0 153 29.5t150 97.5z" />
    <glyph glyph-name="d" unicode="d" horiz-adv-x="1138" 
d="M829 0l-16 117q-152 -133 -319 -133q-99 0 -180.5 38t-134.5 103.5t-81.5 152t-29.5 185.5q0 137 56 254.5t164.5 191.5t248.5 74q152 0 278 -96v389l-104 -35v72l356 119v-68l-98 -33v-1259h106v-72h-246zM815 217v471q0 86 -83 154.5t-187 68.5q-77 0 -138.5 -34.5
t-99 -91t-57 -125.5t-19.5 -142q0 -87 21 -166t60 -141.5t102 -99.5t141 -37q141 0 260 143z" />
    <glyph glyph-name="e" unicode="e" horiz-adv-x="1024" 
d="M209 496l586 157q-15 110 -94.5 184t-192.5 74q-104 0 -181 -62.5t-107.5 -157.5t-10.5 -195zM954 614l-733 -188q25 -137 125 -228.5t236 -91.5q24 0 45.5 1.5t43 7t36.5 9t36.5 14t32.5 15.5t34 20t32 21t36.5 25t36.5 25l50 -54q-53 -50 -93 -81.5t-94.5 -63
t-116 -46.5t-133.5 -15q-140 0 -246.5 68.5t-160 181.5t-53.5 251q0 211 134.5 354.5t338.5 143.5q161 0 276 -104t137 -265z" />
    <glyph glyph-name="f" unicode="f" horiz-adv-x="606" 
d="M498 0h-412v72h109v805h-144l25 90h121q-76 67 -76 186q0 74 51.5 139.5t127.5 102.5t151 37q100 0 180 -58l-78 -78q-29 23 -70 39.5t-75 16.5q-70 0 -117 -43t-47 -111q0 -64 20 -111t53 -72.5t68.5 -37t73.5 -10.5h104l-24 -90h-191v-805h150v-72z" />
    <glyph glyph-name="g" unicode="g" horiz-adv-x="1024" 
d="M225 621q0 -51 12 -102.5t36.5 -99t59 -84.5t82.5 -59t103 -22q120 0 194 78.5t74 197.5q0 71 -19 137.5t-55 121.5t-96 88.5t-135 33.5q-128 0 -192 -80t-64 -210zM739 -215q0 52 -28 91.5t-65 57t-65.5 26t-37.5 7.5q-42 -6 -75.5 -64.5t-33.5 -105.5q0 -68 48 -104.5
t118 -36.5q52 0 95.5 38.5t43.5 90.5zM104 -47l-59 94q36 11 68 29t67.5 49t52.5 47.5t56 56.5q-103 50 -160 145.5t-57 209.5q0 180 123.5 289.5t310.5 109.5q56 0 104 -11.5t131 -39.5q2 4 15 28t18 32t18.5 26t24 26t26.5 16t34 9h114l-22 -115q-50 13 -78 13t-46 -15
t-18 -39q0 -15 6 -31.5t11.5 -26.5t20 -32.5t20.5 -31.5q55 -92 55 -203q0 -97 -38 -176t-103.5 -128t-148.5 -75.5t-177 -26.5q-56 0 -88 11q-103 -103 -176 -144l4 -4q101 16 199 16q233 0 352 -54.5t119 -172.5q0 -105 -91 -177.5t-198 -72.5q-52 0 -99.5 9t-93 29
t-73 60.5t-27.5 96.5q0 94 156 194v4q-19 1 -61 3t-58 2q-35 0 -77 -5t-90 -13.5t-67 -10.5z" />
    <glyph glyph-name="h" unicode="h" horiz-adv-x="1138" 
d="M426 0h-369v72h111v1202l-117 -37v72l365 123v-72l-94 -37v-508q59 44 86 63t79 49.5t99 43t98 12.5q74 0 128 -20.5t82 -49.5t44.5 -72.5t20.5 -77t4 -75.5v-616h108v-72h-364v72h102v587q0 35 -2 58.5t-12.5 55t-29.5 50t-55.5 32t-88.5 13.5q-81 0 -152 -39t-147 -108
v-649h104v-72z" />
    <glyph glyph-name="i" unicode="i" horiz-adv-x="530" 
d="M449 72v-72h-369v72h108v780l-108 -33v76l270 88q-8 -148 -8 -172v-739h107zM266 1130q-48 0 -79 30t-31 79q0 45 31 73.5t75 28.5q46 0 77.5 -32t31.5 -78q0 -45 -30.5 -73t-74.5 -28z" />
    <glyph glyph-name="j" unicode="j" horiz-adv-x="530" 
d="M47 -416l-14 72l39 12q71 23 103 74t32 137v981l-105 -35v72l258 86v-1022q0 -252 -174 -336q-69 -32 -139 -41zM279 1130q-48 0 -79.5 30t-31.5 79q0 45 31 73.5t75 28.5q46 0 77.5 -32t31.5 -78q0 -45 -30 -73t-74 -28z" />
    <glyph glyph-name="k" unicode="k" horiz-adv-x="1062" 
d="M436 0h-370v72h108v1206l-108 -35v70l370 119v-74l-108 -35v-430q176 90 286 90q96 0 177 -34t134.5 -108t53.5 -175q0 -80 -35 -144.5t-93.5 -103.5t-129.5 -59.5t-148 -20.5v-4l297 -262h115v-72h-278q-70 87 -214.5 219t-164.5 152v-299h108v-72zM328 803v-385
q61 -25 127 -25q370 0 370 275q0 117 -70 180t-184 63q-119 0 -243 -108z" />
    <glyph glyph-name="l" unicode="l" horiz-adv-x="530" 
d="M446 0h-370v72h112v1200l-108 -35v72l366 123v-72l-104 -37v-1251h104v-72z" />
    <glyph glyph-name="m" unicode="m" horiz-adv-x="1781" 
d="M453 0h-365v72h107v788l-103 -35v72l256 86v-147q52 37 80 55t75 44t90.5 37t88.5 11q94 0 165.5 -43t104.5 -125q7 5 33.5 24t35 25t33.5 23t36 23t34 19.5t37 18.5t36.5 13.5t40.5 12t39.5 6.5t43.5 3q129 0 205 -86t76 -209v-616h106v-72h-365v72h105v614
q0 182 -191 182q-55 0 -109.5 -21t-88 -43t-84.5 -63v-669h108v-72h-370v72h108v614q0 182 -190 182q-42 0 -81 -10t-76 -31t-62.5 -38.5t-63.5 -47.5v-669h105v-72z" />
    <glyph glyph-name="n" unicode="n" 
d="M455 0h-369v72h109v788l-109 -35v72l262 86v-164q111 86 160 113q91 51 176 51q307 0 307 -328v-583h113v-72h-369v72h103v557q0 31 -1.5 53t-7 52.5t-18.5 52t-33 41.5t-53 30t-76 10q-39 0 -74.5 -8.5t-59.5 -17.5t-59 -33t-51 -37t-57 -47v-653h107v-72z" />
    <glyph glyph-name="o" unicode="o" 
d="M588 983q220 0 370 -142.5t150 -357.5q0 -142 -69 -256.5t-188 -178.5t-263 -64t-263 64t-188 178.5t-69 256.5q0 215 150 357.5t370 142.5zM231 537q0 -87 25 -171.5t72 -154.5t122.5 -113t167.5 -43q89 0 153.5 29t101.5 82.5t54 119.5t17 148q0 88 -24.5 171.5
t-70 152.5t-119.5 111t-165 42q-104 0 -181 -52.5t-115 -136.5t-38 -185z" />
    <glyph glyph-name="p" unicode="p" horiz-adv-x="1138" 
d="M436 -416h-385v72h113v1208l-103 -33v72l256 80v-123q54 37 76 51t64 35.5t81.5 29t88.5 7.5q129 0 230.5 -69.5t154.5 -180t53 -237.5q0 -223 -131.5 -367.5t-347.5 -144.5q-142 0 -269 73v-401h119v-72zM317 764v-397q0 -51 4.5 -90.5t20.5 -83.5t43 -72.5t75.5 -47
t114.5 -18.5q70 0 126 22.5t93 61t61.5 91.5t35 111t10.5 124q-2 81 -20 155.5t-53.5 139.5t-97 104t-140.5 39q-73 0 -136 -36.5t-137 -102.5z" />
    <glyph glyph-name="q" unicode="q" horiz-adv-x="1099" 
d="M782 190v412q0 33 -1.5 58t-6.5 59t-14.5 59t-26.5 51.5t-41 43t-60 27.5t-81 11q-67 0 -121.5 -23.5t-91 -63.5t-61 -93.5t-35.5 -112.5t-11 -122q0 -109 33 -199t106.5 -148.5t176.5 -58.5q46 0 86.5 9.5t66.5 23t45.5 28.5t28 25.5t8.5 13.5zM936 -344h106v-72h-393
v72h133v434q-173 -106 -299 -106q-123 0 -219 63.5t-146 166t-50 224.5q0 105 33 203t92.5 174t151 122t200.5 46q93 0 174 -29q16 -5 34.5 -13t29 -11.5t16.5 -3.5q17 0 67 21.5t70 35.5v-1327z" />
    <glyph glyph-name="r" unicode="r" horiz-adv-x="757" 
d="M487 0h-397v72h109v790l-105 -37v72l240 86v-176h4q11 29 18.5 47.5t22.5 45.5t31 43t40 28t52 12q17 0 34 -4t34 -12.5t27 -14.5t28.5 -18.5t23.5 -15.5l47 77l52 -45l-125 -205q-71 84 -142 84q-41 0 -67.5 -19t-39.5 -59t-17.5 -84t-4.5 -110v-485h135v-72z" />
    <glyph glyph-name="s" unicode="s" horiz-adv-x="796" 
d="M16 125l101 123q39 -39 66.5 -63.5t68 -53t83 -43t87.5 -14.5q66 0 116 44.5t50 110.5q0 35 -11 63.5t-24.5 47t-42.5 37t-48 27.5t-59 26.5t-59 26.5q-124 59 -162 88q-76 57 -83 155q-1 12 -1 25q0 124 88 191t215 67q133 0 279 -92l-76 -92q-14 7 -73 44t-99 52.5
t-82 15.5q-55 0 -95 -33.5t-40 -84.5q0 -32 10 -58.5t22.5 -42.5t39 -33t43 -24.5t52 -22t50.5 -20.5q127 -57 168 -85q99 -67 105 -176v-16q0 -144 -102 -237.5t-249 -93.5q-98 0 -177 35t-161 106z" />
    <glyph glyph-name="t" unicode="t" horiz-adv-x="606" 
d="M51 881v53q76 27 137.5 99.5t85.5 156.5l52 -14v-209h211l-13 -90h-198v-666q0 -74 21.5 -102.5t76.5 -28.5q64 0 119 41l39 -41q-37 -44 -102.5 -70t-127.5 -26q-104 0 -142 42t-38 169v686h-121z" />
    <glyph glyph-name="u" unicode="u" 
d="M831 0v135q-176 -151 -354 -151q-83 0 -142.5 24.5t-91 68.5t-45.5 94.5t-14 113.5v573l-112 -39v72l266 92v-641q0 -75 13 -125t39 -75t56.5 -34.5t75.5 -9.5q171 0 309 144v616l-106 -35v72l260 88v-911h111v-72h-265z" />
    <glyph glyph-name="v" unicode="v" horiz-adv-x="1062" 
d="M285 766l270 -633l293 686q-28 -8 -45 -8q-63 0 -152 29q-102 32 -151 32q-59 0 -109.5 -28t-105.5 -78zM979 983l35 -35q-28 -65 -99 -227.5t-109 -251.5t-93.5 -223t-98.5 -246h-159q-65 171 -204.5 489.5t-162.5 372.5l-104 -43l-21 58l238 106q31 -96 53 -149
q7 6 30.5 25.5t31.5 25.5t29 22t32 21.5t31 17.5t35.5 16.5t36 10.5t42 8t45.5 2q48 0 138 -16q112 -19 137 -19q77 0 137 35z" />
    <glyph glyph-name="w" unicode="w" horiz-adv-x="1517" 
d="M1440 983l35 -35q-6 -15 -26 -51.5t-28 -58.5l-274 -707q-2 -5 -10 -25.5t-10.5 -29t-8 -24.5t-7.5 -28.5t-3 -23.5h-170q-26 81 -91 225t-79 178q-18 -46 -52.5 -126t-60 -147.5t-41.5 -129.5h-168l-368 862l-101 -47l-18 57l219 111q14 -48 371 -838l7 -14l-3 6
l156 391l-140 332l-102 -45l-27 57l236 111l53 -145q149 145 279 145q45 0 139 -20q70 -15 137 -15q85 0 156 35zM764 768l278 -631l258 674q-98 0 -192 27q-132 38 -160 34q-24 -3 -44 -8.5t-40.5 -18.5t-30.5 -20t-35 -28.5t-34 -28.5z" />
    <glyph glyph-name="x" unicode="x" horiz-adv-x="985" 
d="M371 0h-346v72h114l279 391l-273 432h-94v72h385v-72h-137l207 -313l231 313h-135v72h332v-72h-86l-287 -397l281 -426h121v-72h-412v72h119l-193 301l-223 -301h117v-72z" />
    <glyph glyph-name="y" unicode="y" horiz-adv-x="1062" 
d="M981 983l45 -37l-496 -1055q-64 -137 -101 -189q-85 -117 -196 -118q-78 0 -137 39l56 152q59 -19 94 -19q40 0 70 10.5t52 34.5t36.5 48.5t33.5 66.5l45 98l-389 842l-106 -49l-25 57l234 119q39 -111 59 -145q86 69 158 107t153 38q44 0 138 -20q68 -15 126 -15
q101 0 150 35zM287 778l274 -598l299 637q-5 0 -17 -3t-18 -3q-81 0 -166 29q-98 32 -159 32q-119 0 -213 -94z" />
    <glyph glyph-name="z" unicode="z" horiz-adv-x="872" 
d="M774 864l-549 -725h314q140 0 180 135h76l-76 -333h-88l14 59h-541l-59 92l571 744h-262q-159 0 -186 -119l-74 4l74 307h82l-10 -61h487z" />
    <glyph glyph-name="braceleft" unicode="{" horiz-adv-x="606" 
d="M240 -8v352q0 102 -32 152t-124 77q92 27 124 77t32 149v356q0 70 13.5 120t36 80.5t60 47.5t77.5 23t95 6v-23q-78 -23 -110.5 -81.5t-32.5 -162.5v-336q0 -58 -6.5 -95t-25.5 -70.5t-56.5 -54.5t-97.5 -34v-4q60 -13 97.5 -34t56.5 -55t25.5 -71.5t6.5 -95.5v-335
q0 -106 32.5 -164.5t110.5 -79.5v-23q-70 0 -117 10.5t-87 39.5t-59 85.5t-19 143.5z" />
    <glyph glyph-name="bar" unicode="|" horiz-adv-x="454" 
d="M172 -512v2048h111v-2048h-111z" />
    <glyph glyph-name="braceright" unicode="}" horiz-adv-x="606" 
d="M367 1155v-356q0 -100 31.5 -149.5t123.5 -76.5q-92 -27 -123.5 -77t-31.5 -152v-352q0 -87 -19.5 -143.5t-59.5 -85.5t-87 -39.5t-117 -10.5v23q78 21 110.5 79.5t32.5 164.5v335q0 58 6.5 95.5t26 71.5t57 55t97.5 34v4q-60 13 -97.5 34t-57 54.5t-26 70.5t-6.5 95v336
q0 104 -32.5 162.5t-110.5 81.5v23q70 0 117 -10t87 -38.5t59.5 -85t19.5 -143.5z" />
    <glyph glyph-name="asciitilde" unicode="~" horiz-adv-x="1228" 
d="M1014 618l73 -86q-23 -32 -38.5 -52t-41 -46.5t-49.5 -41t-57 -25.5t-70 -11q-52 0 -99 17t-109 51q-128 72 -236 72q-61 0 -101.5 -41t-70.5 -107l-74 86q92 176 256 176q83 0 228 -65q14 -6 44.5 -20t47.5 -21t40.5 -16t42 -13t34.5 -4q29 0 55 11.5t49.5 36t38 44.5
t37.5 55z" />
    <glyph glyph-name="uni00A0" unicode="&#xa0;" horiz-adv-x="491" 
 />
    <glyph glyph-name="exclamdown" unicode="&#xa1;" horiz-adv-x="645" 
d="M424 -258q0 -36 -3 -61t-12.5 -53t-32 -43t-57.5 -15q-28 0 -47.5 11t-29.5 26t-15.5 40.5t-6.5 44t-1 46.5q0 36 18 165t34.5 318t13.5 377h77q-2 -163 30 -490t32 -366zM326 1018q43 0 71.5 -28.5t28.5 -71.5q0 -42 -27.5 -71.5t-72.5 -29.5q-40 0 -72.5 29t-32.5 72
t30.5 71.5t74.5 28.5z" />
    <glyph glyph-name="cent" unicode="&#xa2;" horiz-adv-x="985" 
d="M455 1047v200h82v-196q156 -12 282 -131l-94 -97q-76 118 -188 152v-692q45 0 96 19.5t78.5 37.5t81.5 55l36 -45q-59 -73 -128.5 -114.5t-163.5 -53.5v-213h-82v213q-171 7 -281.5 127.5t-110.5 288.5t112.5 299t279.5 150zM455 293v686q-128 -21 -195 -108t-67 -218
q0 -77 32 -153.5t93 -134t137 -72.5z" />
    <glyph glyph-name="sterling" unicode="&#xa3;" horiz-adv-x="985" 
d="M360 590h-176v90h150q-28 57 -39 81.5t-28 81.5t-17 103q0 129 90 215t219 86q51 0 93 -13t78 -40.5t62 -56t60 -72.5l-109 -76q-78 168 -211 168q-69 0 -116 -38.5t-47 -106.5q0 -36 7 -67.5t14.5 -49t25.5 -53.5q7 -15 24.5 -51t28.5 -61.5t18 -49.5h281v-90h-268
q6 -131 -69.5 -250t-188.5 -197v-4h299q41 0 73.5 4t54.5 9.5t39.5 17.5t26.5 20t17 26.5t11 27t9 30.5h80l-57 -329h-78l10 55h-543l-53 160q109 85 173 196t56 234z" />
    <glyph glyph-name="currency" unicode="&#xa4;" horiz-adv-x="985" 
d="M246 498l-92 -92l-70 69l90 88q-88 101 -88 254t88 254l-90 88l70 70l92 -92q101 88 248 88q146 0 247 -88l93 92l69 -70l-90 -88q88 -101 88 -254t-88 -254l90 -88l-69 -69l-93 92q-101 -88 -247 -88q-147 0 -248 88zM801 817q0 128 -89 220.5t-218 92.5t-218.5 -92.5
t-89.5 -220.5t89.5 -220.5t218.5 -92.5t218 92.5t89 220.5z" />
    <glyph glyph-name="yen" unicode="&#xa5;" horiz-adv-x="985" 
d="M319 0v72h121v364h-325v90h284l-88 158h-233v90h180l-195 371h-77v72h336v-72h-113l332 -617l290 617h-110v72h278v-72h-69l-172 -371h188v-90h-229l-76 -158h268v-90h-315v-364h121v-72h-396z" />
    <glyph glyph-name="brokenbar" unicode="&#xa6;" horiz-adv-x="454" 
d="M172 -358v716h111v-716h-111zM172 666v716h111v-716h-111z" />
    <glyph glyph-name="section" unicode="&#xa7;" horiz-adv-x="1062" 
d="M528 807l-92 29q-8 4 -34 -7t-59.5 -35t-64.5 -54.5t-50 -71.5t-15 -80q3 -28 16.5 -51.5t39 -42.5t52 -34t68.5 -30.5t75.5 -27t86 -28t86.5 -28.5q5 -2 27.5 11t53.5 37t61 53.5t50.5 66.5t20.5 70q0 73 -74 121t-248 102zM885 1419l67 -22l-90 -223
q-121 79 -219.5 122t-206.5 43q-83 0 -140.5 -46t-57.5 -128q0 -20 2.5 -36.5t10 -30t14 -23.5t22 -20.5t26 -17t34.5 -15.5t38.5 -14.5t46.5 -16.5t51 -18l219 -78q8 -3 25 -8q117 -38 164 -73q88 -64 88 -183q0 -101 -74.5 -184.5t-179.5 -139.5q209 -64 209 -244
q0 -83 -39 -146.5t-103 -99.5t-136.5 -53.5t-149.5 -17.5q-130 0 -309 72l-27 -64l-64 17l76 237q262 -170 420 -170q94 0 153.5 45.5t69.5 134.5q7 62 -48 102t-173 83l-178 63q-76 27 -122.5 46t-93.5 44t-71 49.5t-39.5 57t-15.5 72.5q0 196 252 329q-83 24 -145 86.5
t-62 143.5q0 84 33.5 150t90.5 106t128 61t151 21q150 0 328 -80z" />
    <glyph glyph-name="dieresis" unicode="&#xa8;" horiz-adv-x="530" 
d="M313 1223q0 33 21.5 55t56.5 22t56.5 -22t21.5 -55t-21.5 -55.5t-56.5 -22.5t-56.5 22.5t-21.5 55.5zM63 1223q0 33 21.5 55t56.5 22t56.5 -22t21.5 -55t-21.5 -55.5t-56.5 -22.5t-56.5 22.5t-21.5 55.5z" />
    <glyph glyph-name="copyright" unicode="&#xa9;" horiz-adv-x="1638" 
d="M819 1432q146 0 277.5 -58t226.5 -156.5t151 -235t56 -286.5q0 -148 -56 -282.5t-151 -232.5t-227 -156t-277 -58q-193 0 -356.5 98t-258.5 266t-95 365q0 200 95 369.5t258.5 268t356.5 98.5zM819 1348q-162 0 -302 -90.5t-221 -240.5t-81 -321q0 -169 81.5 -317.5
t221.5 -238t301 -89.5q162 0 302 89.5t221 238t81 317.5q0 171 -80.5 321t-220.5 240.5t-303 90.5zM1141 518h33l-35 -147q0 -12 -8.5 -20t-17 -11t-30.5 -10q-120 -35 -219 -35q-93 0 -171 24t-140.5 72.5t-97.5 131.5t-35 192q0 54 17 110t53.5 110t88.5 96t128.5 67.5
t166.5 25.5q51 0 97 -7.5t63 -12.5t58 -19q47 -14 47 -43v-149h-33q-3 36 -17 68t-40 61t-72.5 46t-108.5 17q-148 0 -225.5 -98.5t-77.5 -259.5q-2 -177 78.5 -285t239.5 -108q182 0 258 184z" />
    <glyph glyph-name="ordfeminine" unicode="&#xaa;" horiz-adv-x="614" 
d="M430 1122v45q-62 4 -92 4q-217 0 -217 -133q0 -70 34.5 -107.5t114.5 -37.5q39 0 68.5 8.5t46 23.5t27.5 35.5t13.5 43t4.5 46.5t0 48v24zM168 1423l-8 -45q77 54 180 54q60 0 101 -21t61 -59.5t27.5 -80t7.5 -95.5v-287h63v-47h-156q-10 28 -14 71q-85 -82 -211 -82
q-91 0 -148 52.5t-57 138.5q0 56 26 96t71.5 61t95 30.5t106.5 9.5q23 0 65 -3.5t52 -3.5q1 32 0 54.5t-8 46.5t-21 38t-39 23.5t-61 9.5q-58 0 -108 -33.5t-74 -82.5l-39 8l43 158z" />
    <glyph glyph-name="guillemotleft" unicode="&#xab;" horiz-adv-x="720" 
d="M106 492l173 376h75l-121 -379l113 -383h-72zM336 492l172 376h76l-121 -379l112 -383h-71z" />
    <glyph glyph-name="logicalnot" unicode="&#xac;" horiz-adv-x="1228" 
d="M987 182v447h-856v110h967v-557h-111z" />
    <glyph glyph-name="uni00AD" unicode="&#xad;" horiz-adv-x="681" 
d="M590 422h-498v131h498v-131z" />
    <glyph glyph-name="registered" unicode="&#xae;" horiz-adv-x="1638" 
d="M819 1432q146 0 277.5 -58t226.5 -156.5t151 -235t56 -286.5q0 -148 -56 -282.5t-151 -232.5t-227 -156t-277 -58q-193 0 -356.5 98t-258.5 266t-95 365q0 200 95 369.5t258.5 268t356.5 98.5zM819 1348q-162 0 -302 -90.5t-221 -240.5t-81 -321q0 -169 81.5 -317.5
t221.5 -238t301 -89.5q162 0 302 89.5t221 238t81 317.5q0 171 -80.5 321t-220.5 240.5t-303 90.5zM481 1071v29h365q103 0 175.5 -49t72.5 -144q0 -80 -48 -137.5t-124 -85.5l122 -168q41 -59 88 -110.5t78 -71.5v-17h-125q-21 0 -40.5 14.5t-42.5 48t-45 70t-60.5 98.5
t-75.5 116h-110v-201q0 -74 12 -86t92 -21v-39h-334v39q80 9 92 21q3 3 5 6.5t3.5 8.5t2 9t0.5 12v13.5v17v19.5v500v20v18v14t-0.5 12.5t-2 9.5t-3.5 8t-5 6q-11 11 -92 20zM711 1061v-359h98q77 0 117.5 52.5t40.5 144.5q0 86 -46 124t-118 38h-92z" />
    <glyph glyph-name="macron" unicode="&#xaf;" horiz-adv-x="530" 
d="M549 1145h-567v90h567v-90z" />
    <glyph glyph-name="degree" unicode="&#xb0;" horiz-adv-x="819" 
d="M612 954q0 92 -56 152.5t-146 60.5t-146.5 -60.5t-56.5 -152.5t56.5 -152.5t146.5 -60.5t146 60.5t56 152.5zM117 954q0 123 85 208t208 85t207.5 -85t84.5 -208t-84.5 -207.5t-207.5 -84.5t-208 84.5t-85 207.5z" />
    <glyph glyph-name="plusminus" unicode="&#xb1;" horiz-adv-x="1228" 
d="M559 631v336h111v-336h428v-111h-428v-342h-111v342h-428v111h428zM131 0v111h967v-111h-967z" />
    <glyph glyph-name="twosuperior" unicode="&#xb2;" horiz-adv-x="589" 
d="M463 504h-379l-35 78q84 52 184 129q7 5 35.5 27.5t41.5 34t38.5 35t39 42.5t29 44.5t22.5 53.5t7 58q0 76 -47 129t-129 53q-72 0 -113.5 -40t-41.5 -106q0 -81 39.5 -116t124.5 -37v-43q-24 -8 -58 -8q-84 0 -140 44t-56 119q0 113 81.5 179.5t204.5 66.5
q114 0 186 -60.5t72 -160.5q0 -37 -12.5 -74t-30 -66t-50 -61.5t-57.5 -54t-69 -50.5t-68 -43.5t-70 -42t-62 -36.5v-4h256q39 0 61 12.5t33 50.5h49l-41 -174l-49 -8z" />
    <glyph glyph-name="threesuperior" unicode="&#xb3;" horiz-adv-x="589" 
d="M502 1165l-201 -180q115 2 190.5 -55.5t75.5 -161.5q0 -118 -92.5 -200.5t-224.5 -82.5q-65 0 -125.5 21.5t-101.5 64.5l71 66q86 -86 195 -86q178 0 178 166q0 86 -50.5 143.5t-140.5 57.5q-17 0 -81 -19l-27 27l242 213h-183q-81 0 -108 -68l-51 10l55 181l53 -11
l-4 -22h150q51 0 149 4z" />
    <glyph glyph-name="acute" unicode="&#xb4;" horiz-adv-x="530" 
d="M94 1110l-35 39l424 283l54 -76z" />
    <glyph glyph-name="mu" unicode="&#xb5;" 
d="M831 0v135q-176 -151 -354 -151q-83 0 -139 24v-424h-262v72h108v1202l-112 -39v72l266 92v-641q0 -75 13 -125t39 -75t56.5 -34.5t75.5 -9.5q171 0 309 144v616l-106 -35v72l260 88v-911h111v-72h-265z" />
    <glyph glyph-name="paragraph" unicode="&#xb6;" horiz-adv-x="1228" 
d="M1036 1399v-47q-100 -12 -127 -23q-41 -17 -41 -53v-1526h-118v1587h-125v-1587h-119v807q-204 0 -305 117t-101 319q0 215 99.5 310.5t328.5 95.5h508z" />
    <glyph glyph-name="periodcentered" unicode="&#xb7;" horiz-adv-x="491" 
d="M246 381q-39 0 -71 29t-32 73t32 73.5t71 29.5t70.5 -29.5t31.5 -73.5t-31.5 -73t-70.5 -29z" />
    <glyph glyph-name="cedilla" unicode="&#xb8;" horiz-adv-x="530" 
d="M156 -170l43 221h63l-24 -143q7 0 21.5 1t21.5 1q188 0 188 -156q0 -56 -37.5 -96t-87.5 -57t-104 -17q-120 0 -195 37l21 80q68 -41 161 -41q44 0 79.5 22.5t35.5 63.5q0 51 -33.5 68.5t-89.5 17.5q-12 0 -32.5 -1t-30.5 -1z" />
    <glyph glyph-name="onesuperior" unicode="&#xb9;" horiz-adv-x="589" 
d="M449 504h-263v51h78v569l-84 -22v37q33 12 53 20.5t46.5 27t42.5 42.5h53v-674h74v-51z" />
    <glyph glyph-name="ordmasculine" unicode="&#xba;" horiz-adv-x="704" 
d="M14 1141q0 126 99.5 208.5t236.5 82.5q144 0 242 -87t98 -221q0 -124 -93 -208.5t-230 -84.5q-157 0 -255 82.5t-98 227.5zM129 1163q0 -53 15 -102.5t44 -90.5t77 -66t108 -25q111 0 156.5 59.5t45.5 163.5q0 72 -24 134t-79.5 105t-133.5 43q-100 0 -154.5 -63.5
t-54.5 -157.5z" />
    <glyph glyph-name="guillemotright" unicode="&#xbb;" horiz-adv-x="720" 
d="M614 483l-174 -377h-75l120 379l-110 383h71zM387 483l-174 -377h-76l121 379l-111 383h70z" />
    <glyph glyph-name="onequarter" unicode="&#xbc;" horiz-adv-x="1476" 
d="M1167 43v139h-340v72l359 471h92v-475h113l-11 -68h-102v-139h86v-43h-291v43h94zM1163 590l-256 -340h260v340h-4zM459 -31h-72l709 1278h73zM463 504h-262v43h78v577l-84 -22v37q33 12 53 20.5t46 27t42 42.5h53v-682h74v-43z" />
    <glyph glyph-name="onehalf" unicode="&#xbd;" horiz-adv-x="1476" 
d="M1303 0h-379l-35 78q84 52 184 129q7 5 35.5 27.5t41.5 34t38.5 35t39 42.5t29 44.5t22.5 53.5t7 58q0 76 -47 129t-129 53q-73 0 -114.5 -40t-41.5 -105q0 -82 39.5 -117t124.5 -37v-43q-24 -8 -57 -8q-84 0 -140.5 44.5t-56.5 119.5q0 112 81.5 178.5t205.5 66.5
q114 0 186 -60.5t72 -160.5q0 -37 -12.5 -73.5t-30 -66t-50 -62t-58 -54t-69 -50.5t-68 -44t-70.5 -41.5t-62 -36.5v-4h195h28h25.5t19.5 0.5t18.5 2.5t14.5 5t14 7.5t11.5 11.5t12.5 16t11 21h50l-41 -174l-50 -9zM397 -31h-71l708 1278h74zM463 504h-262v43h78v577
l-84 -22v37q33 12 53 20.5t46 27t42 42.5h53v-682h74v-43z" />
    <glyph glyph-name="threequarters" unicode="&#xbe;" horiz-adv-x="1476" 
d="M1167 43v139h-340v72l359 471h92v-475h113l-11 -68h-102v-139h86v-43h-291v43h94zM1163 590l-256 -340h260v340h-4zM539 1233l30 -68l-200 -180q115 2 190.5 -55.5t75.5 -161.5q0 -118 -93 -200.5t-225 -82.5q-65 0 -125.5 21.5t-101.5 64.5l72 66q86 -86 194 -86
q179 0 179 166q0 86 -50.5 143.5t-140.5 57.5q-18 0 -82 -19l-26 27l241 213h-182q-82 0 -109 -68l-51 10l55 181l54 -11l-4 -22h149q52 0 150 4zM479 -31h-71l708 1278h74z" />
    <glyph glyph-name="questiondown" unicode="&#xbf;" horiz-adv-x="833" 
d="M401 -430q-144 0 -239.5 78.5t-95.5 220.5q0 32 4 59.5t15.5 53t19 41.5t29.5 40t30 32.5t36.5 35.5t35.5 33q39 39 64 71.5t53.5 85t41.5 124t11 159.5h106q0 -21 2 -59t2 -56q0 -72 -22 -136.5t-45.5 -99.5t-67.5 -91q-2 -2 -19.5 -24t-20 -26t-17.5 -24.5t-18.5 -27.5
t-15 -26.5t-15 -30.5t-11 -31t-9.5 -36t-4.5 -37.5t-2.5 -43.5q0 -95 43.5 -154t136.5 -59q89 0 147 56t58 146q0 36 -15 80.5t-34 73.5l147 76q49 -96 49 -166q0 -103 -53.5 -181.5t-139 -117.5t-186.5 -39zM442 817q-45 0 -72.5 29.5t-27.5 71.5q0 43 28.5 71.5t71.5 28.5
q44 0 74.5 -28.5t30.5 -71.5t-32.5 -72t-72.5 -29z" />
    <glyph glyph-name="Agrave" unicode="&#xc0;" horiz-adv-x="1290" 
d="M874 528l-256 689l-256 -689h512zM319 0h-344v80h101l330 885l39 105t42 112t36 103t34 114h172q6 -36 37 -121l438 -1198h111v-80h-412v80h137l-131 358h-579l-133 -358h122v-80zM406 1749l45 88l423 -283l-36 -38z" />
    <glyph glyph-name="Aacute" unicode="&#xc1;" horiz-adv-x="1290" 
d="M874 528l-256 689l-256 -689h512zM319 0h-344v80h101l330 885l39 105t42 112t36 103t34 114h172q6 -36 37 -121l438 -1198h111v-80h-412v80h137l-131 358h-579l-133 -358h122v-80zM475 1516l-35 38l424 283l54 -76z" />
    <glyph glyph-name="Acircumflex" unicode="&#xc2;" horiz-adv-x="1290" 
d="M874 528l-256 689l-256 -689h512zM319 0h-344v80h101l330 885l39 105t42 112t36 103t34 114h172q6 -36 37 -121l438 -1198h111v-80h-412v80h137l-131 358h-579l-133 -358h122v-80zM645 1831l332 -266l-41 -49l-287 192l-299 -192l-35 49z" />
    <glyph glyph-name="Atilde" unicode="&#xc3;" horiz-adv-x="1290" 
d="M874 528l-256 689l-256 -689h512zM319 0h-344v80h101l330 885l39 105t42 112t36 103t34 114h172q6 -36 37 -121l438 -1198h111v-80h-412v80h137l-131 358h-579l-133 -358h122v-80zM934 1731l45 -33q-22 -34 -39.5 -56.5t-43 -47t-56 -36.5t-66.5 -12q-52 0 -156 47
q-5 2 -16 7.5t-15.5 7.5t-14.5 6.5t-14 6t-13 5.5t-12 4.5t-10.5 2.5t-9 1t-7.5 0q-54 -6 -119 -84l-51 33q25 34 33.5 44t33 37.5t41.5 37.5t44 20.5t55 10.5q49 0 141 -43q88 -45 123 -45q60 0 127 86z" />
    <glyph glyph-name="Adieresis" unicode="&#xc4;" horiz-adv-x="1290" 
d="M874 528l-256 689l-256 -689h512zM319 0h-344v80h101l330 885l39 105t42 112t36 103t34 114h172q6 -36 37 -121l438 -1198h111v-80h-412v80h137l-131 358h-579l-133 -358h122v-80zM694 1628q0 33 21.5 55.5t56.5 22.5t56.5 -22.5t21.5 -55.5t-21.5 -55.5t-56.5 -22.5
t-56.5 22.5t-21.5 55.5zM444 1628q0 33 21.5 55.5t56.5 22.5t56.5 -22.5t21.5 -55.5t-21.5 -55.5t-56.5 -22.5t-56.5 22.5t-21.5 55.5z" />
    <glyph glyph-name="Aring" unicode="&#xc5;" horiz-adv-x="1290" 
d="M874 528l-256 689l-256 -689h512zM319 0h-344v80h101l330 885l39 105t42 112t36 103t34 114h172q6 -36 37 -121l438 -1198h111v-80h-412v80h137l-131 358h-579l-133 -358h122v-80zM524 1686q0 -53 35 -89t88 -36q52 0 86.5 36t34.5 89q0 51 -34.5 86.5t-86.5 35.5
q-53 0 -88 -35t-35 -87zM442 1686q-3 83 53.5 140.5t145.5 57.5q96 0 154 -57t55 -141q0 -85 -57 -143t-148 -58q-89 0 -146 58t-57 143z" />
    <glyph glyph-name="AE" unicode="&#xc6;" horiz-adv-x="1669" 
d="M764 528v791h-4l-447 -791h451zM483 1399h1012l107 -240l-60 -37q-64 106 -157.5 151.5t-229.5 45.5h-223v-434h479v116h80v-346h-80v140h-479v-715h158q78 0 135 8.5t120.5 33.5t118.5 77t105 133l69 -25l-147 -311q-24 0 -84.5 2t-95.5 2h-676v80h129v358h-502
l-192 -358h120v-80h-344v80h105l696 1239h-164v80z" />
    <glyph glyph-name="Ccedilla" unicode="&#xc7;" horiz-adv-x="1327" 
d="M1282 1268l-281 -260l-61 61q29 26 40 51t11 64q0 85 -74 126.5t-178 41.5q-125 0 -223 -51.5t-158 -139.5t-91 -198t-31 -234q0 -168 69 -311.5t196 -230.5t285 -87q265 0 435 185l61 -68q-201 -250 -532 -250q-23 0 -31 2l-10 -61q7 0 21.5 1t21.5 1q188 0 188 -156
q0 -56 -37.5 -96t-87.5 -57t-104 -17q-120 0 -195 37l21 80q68 -41 161 -41q44 0 79.5 22.5t35.5 63.5q0 51 -33.5 68.5t-89.5 17.5q-12 0 -32.5 -1t-30.5 -1l26 145q-272 32 -428.5 234.5t-156.5 499.5q0 188 89.5 354t247 267.5t343.5 101.5q121 0 219 -38t198 -118l56 51
z" />
    <glyph glyph-name="Egrave" unicode="&#xc8;" 
d="M94 0v80h127v1239h-127v80h864l109 -240l-59 -37q-116 197 -390 197h-229v-434h485v119h80v-349h-80v140h-485v-715h78q103 0 178 9.5t148.5 36t132 77.5t106.5 129l70 -25l-148 -311q-78 4 -127 4h-733zM348 1749l45 88l424 -283l-37 -38z" />
    <glyph glyph-name="Eacute" unicode="&#xc9;" 
d="M94 0v80h127v1239h-127v80h864l109 -240l-59 -37q-116 197 -390 197h-229v-434h485v119h80v-349h-80v140h-485v-715h78q103 0 178 9.5t148.5 36t132 77.5t106.5 129l70 -25l-148 -311q-78 4 -127 4h-733zM418 1516l-35 38l424 283l53 -76z" />
    <glyph glyph-name="Ecircumflex" unicode="&#xca;" 
d="M94 0v80h127v1239h-127v80h864l109 -240l-59 -37q-116 197 -390 197h-229v-434h485v119h80v-349h-80v140h-485v-715h78q103 0 178 9.5t148.5 36t132 77.5t106.5 129l70 -25l-148 -311q-78 4 -127 4h-733zM588 1831l332 -266l-41 -49l-287 192l-299 -192l-35 49z" />
    <glyph glyph-name="Edieresis" unicode="&#xcb;" 
d="M94 0v80h127v1239h-127v80h864l109 -240l-59 -37q-116 197 -390 197h-229v-434h485v119h80v-349h-80v140h-485v-715h78q103 0 178 9.5t148.5 36t132 77.5t106.5 129l70 -25l-148 -311q-78 4 -127 4h-733zM637 1628q0 33 21.5 55.5t56.5 22.5t56.5 -22.5t21.5 -55.5
t-21.5 -55.5t-56.5 -22.5t-56.5 22.5t-21.5 55.5zM387 1628q0 33 21.5 55.5t56.5 22.5t56.5 -22.5t21.5 -55.5t-21.5 -55.5t-56.5 -22.5t-56.5 22.5t-21.5 55.5z" />
    <glyph glyph-name="Igrave" unicode="&#xcc;" horiz-adv-x="606" 
d="M96 1399h414v-80h-123v-1239h123v-80h-414v80h123v1239h-123v80zM63 1749l46 88l423 -283l-36 -38z" />
    <glyph glyph-name="Iacute" unicode="&#xcd;" horiz-adv-x="606" 
d="M96 1399h414v-80h-123v-1239h123v-80h-414v80h123v1239h-123v80zM133 1516l-35 38l424 283l53 -76z" />
    <glyph glyph-name="Icircumflex" unicode="&#xce;" horiz-adv-x="606" 
d="M96 1399h414v-80h-123v-1239h123v-80h-414v80h123v1239h-123v80zM303 1831l332 -266l-41 -49l-287 192l-299 -192l-35 49z" />
    <glyph glyph-name="Idieresis" unicode="&#xcf;" horiz-adv-x="606" 
d="M96 1399h414v-80h-123v-1239h123v-80h-414v80h123v1239h-123v80zM352 1628q0 33 21.5 55.5t56.5 22.5t56.5 -22.5t21.5 -55.5t-21.5 -55.5t-56.5 -22.5t-56.5 22.5t-21.5 55.5zM102 1628q0 33 21.5 55.5t56.5 22.5t56.5 -22.5t21.5 -55.5t-21.5 -55.5t-56.5 -22.5
t-56.5 22.5t-21.5 55.5z" />
    <glyph glyph-name="Eth" unicode="&#xd0;" horiz-adv-x="1366" 
d="M221 756h-127v90h127v473h-121v80h514q156 0 281.5 -52t208 -145t126.5 -221t44 -281q0 -168 -54.5 -303t-148.5 -220.5t-217 -131t-264 -45.5h-496v80h127v676zM389 846h434v-90h-434v-676h160q261 0 409 157.5t148 462.5q0 151 -42 270.5t-115 195t-169 114.5t-207 39
h-184v-473z" />
    <glyph glyph-name="Ntilde" unicode="&#xd1;" horiz-adv-x="1402" 
d="M227 80v1239h-123v80h242q19 -48 51 -94l662 -1029h4v1043h-143v80h385v-80h-123v-1327h-119l-713 1106h-4v-1018h133v-80h-379v80h127zM989 1731l45 -33q-22 -34 -39.5 -56.5t-43 -47t-56 -36.5t-66.5 -12q-51 0 -155 47q-95 45 -113 41q-54 -6 -119 -84l-51 33
q25 34 33.5 44t33 37.5t41.5 37.5t44 20.5t55 10.5q49 0 141 -43q88 -45 123 -45q60 0 127 86z" />
    <glyph glyph-name="Ograve" unicode="&#xd2;" horiz-adv-x="1669" 
d="M68 709q0 201 96 367t264.5 261t374.5 95q162 0 306.5 -50.5t253.5 -142t172.5 -230.5t63.5 -307q0 -213 -96 -381.5t-263.5 -261t-373.5 -92.5q-171 0 -317 50.5t-253 143.5t-167.5 234t-60.5 314zM846 47q164 0 298.5 77.5t211 212.5t76.5 300q0 144 -45 274t-126 228
t-202.5 155.5t-265.5 57.5q-159 0 -288 -82.5t-199 -217.5t-70 -292q0 -107 26 -210.5t78 -194.5t124.5 -159.5t171 -108.5t210.5 -40zM594 1749l45 88l424 -283l-37 -38z" />
    <glyph glyph-name="Oacute" unicode="&#xd3;" horiz-adv-x="1669" 
d="M68 709q0 201 96 367t264.5 261t374.5 95q162 0 306.5 -50.5t253.5 -142t172.5 -230.5t63.5 -307q0 -213 -96 -381.5t-263.5 -261t-373.5 -92.5q-171 0 -317 50.5t-253 143.5t-167.5 234t-60.5 314zM846 47q164 0 298.5 77.5t211 212.5t76.5 300q0 144 -45 274t-126 228
t-202.5 155.5t-265.5 57.5q-159 0 -288 -82.5t-199 -217.5t-70 -292q0 -107 26 -210.5t78 -194.5t124.5 -159.5t171 -108.5t210.5 -40zM664 1516l-35 38l424 283l53 -76z" />
    <glyph glyph-name="Ocircumflex" unicode="&#xd4;" horiz-adv-x="1669" 
d="M68 709q0 201 96 367t264.5 261t374.5 95q162 0 306.5 -50.5t253.5 -142t172.5 -230.5t63.5 -307q0 -213 -96 -381.5t-263.5 -261t-373.5 -92.5q-171 0 -317 50.5t-253 143.5t-167.5 234t-60.5 314zM846 47q164 0 298.5 77.5t211 212.5t76.5 300q0 144 -45 274t-126 228
t-202.5 155.5t-265.5 57.5q-159 0 -288 -82.5t-199 -217.5t-70 -292q0 -107 26 -210.5t78 -194.5t124.5 -159.5t171 -108.5t210.5 -40zM834 1831l331 -266l-41 -49l-286 192l-299 -192l-35 49z" />
    <glyph glyph-name="Otilde" unicode="&#xd5;" horiz-adv-x="1669" 
d="M68 709q0 201 96 367t264.5 261t374.5 95q162 0 306.5 -50.5t253.5 -142t172.5 -230.5t63.5 -307q0 -213 -96 -381.5t-263.5 -261t-373.5 -92.5q-171 0 -317 50.5t-253 143.5t-167.5 234t-60.5 314zM846 47q164 0 298.5 77.5t211 212.5t76.5 300q0 144 -45 274t-126 228
t-202.5 155.5t-265.5 57.5q-159 0 -288 -82.5t-199 -217.5t-70 -292q0 -107 26 -210.5t78 -194.5t124.5 -159.5t171 -108.5t210.5 -40zM1122 1731l45 -33q-31 -47 -53.5 -75t-63 -52.5t-87.5 -24.5q-52 0 -156 47q-95 45 -113 41q-54 -6 -119 -84l-51 33q25 34 33.5 44
t33 37.5t41.5 37.5t44 20.5t55 10.5q49 0 141 -43q88 -45 123 -45q60 0 127 86z" />
    <glyph glyph-name="Odieresis" unicode="&#xd6;" horiz-adv-x="1669" 
d="M68 709q0 201 96 367t264.5 261t374.5 95q162 0 306.5 -50.5t253.5 -142t172.5 -230.5t63.5 -307q0 -213 -96 -381.5t-263.5 -261t-373.5 -92.5q-171 0 -317 50.5t-253 143.5t-167.5 234t-60.5 314zM846 47q164 0 298.5 77.5t211 212.5t76.5 300q0 144 -45 274t-126 228
t-202.5 155.5t-265.5 57.5q-159 0 -288 -82.5t-199 -217.5t-70 -292q0 -107 26 -210.5t78 -194.5t124.5 -159.5t171 -108.5t210.5 -40zM883 1628q0 33 21.5 55.5t56.5 22.5q34 0 55.5 -22.5t21.5 -55.5t-21.5 -55.5t-55.5 -22.5q-35 0 -56.5 22.5t-21.5 55.5zM633 1628
q0 33 21.5 55.5t56.5 22.5q34 0 55.5 -22.5t21.5 -55.5t-21.5 -55.5t-55.5 -22.5q-35 0 -56.5 22.5t-21.5 55.5z" />
    <glyph glyph-name="multiply" unicode="&#xd7;" horiz-adv-x="1228" 
d="M131 76l412 407l-412 408l78 76l405 -402l406 402l78 -76l-412 -408l412 -407l-78 -76l-406 401l-405 -401z" />
    <glyph glyph-name="Oslash" unicode="&#xd8;" horiz-adv-x="1669" 
d="M399 262l775 955q-161 135 -383 135q-159 0 -287.5 -83t-198 -218t-69.5 -293q0 -291 163 -496zM1249 1147l-778 -959q73 -67 172 -104t201 -37q164 0 298.5 77t212 212t77.5 299q0 148 -48 281t-135 231zM1253 1317l154 186h133l-201 -243q122 -97 191 -242t69 -316
q0 -213 -96 -381.5t-263.5 -261t-373.5 -92.5q-275 0 -473 123l-170 -209h-133l219 271q-241 198 -241 557q0 201 96.5 367t265 261t373.5 95q255 0 450 -115z" />
    <glyph glyph-name="Ugrave" unicode="&#xd9;" horiz-adv-x="1366" 
d="M989 0v143h-4q-65 -82 -162.5 -129t-204.5 -47q-419 0 -419 445v907h-127v80h295v-977q0 -198 61 -286.5t219 -88.5q143 0 237 90t97 234v948h-123v80h291v-1319h121v-80h-281zM442 1749l45 88l424 -283l-37 -38z" />
    <glyph glyph-name="Uacute" unicode="&#xda;" horiz-adv-x="1366" 
d="M989 0v143h-4q-65 -82 -162.5 -129t-204.5 -47q-419 0 -419 445v907h-127v80h295v-977q0 -198 61 -286.5t219 -88.5q143 0 237 90t97 234v948h-123v80h291v-1319h121v-80h-281zM512 1516l-35 38l424 283l53 -76z" />
    <glyph glyph-name="Ucircumflex" unicode="&#xdb;" horiz-adv-x="1366" 
d="M989 0v143h-4q-65 -82 -162.5 -129t-204.5 -47q-419 0 -419 445v907h-127v80h295v-977q0 -198 61 -286.5t219 -88.5q143 0 237 90t97 234v948h-123v80h291v-1319h121v-80h-281zM682 1831l332 -266l-41 -49l-287 192l-299 -192l-35 49z" />
    <glyph glyph-name="Udieresis" unicode="&#xdc;" horiz-adv-x="1366" 
d="M989 0v143h-4q-65 -82 -162.5 -129t-204.5 -47q-419 0 -419 445v907h-127v80h295v-977q0 -198 61 -286.5t219 -88.5q143 0 237 90t97 234v948h-123v80h291v-1319h121v-80h-281zM731 1628q0 33 21.5 55.5t56.5 22.5t56.5 -22.5t21.5 -55.5t-21.5 -55.5t-56.5 -22.5
t-56.5 22.5t-21.5 55.5zM481 1628q0 33 21.5 55.5t56.5 22.5t56.5 -22.5t21.5 -55.5t-21.5 -55.5t-56.5 -22.5t-56.5 22.5t-21.5 55.5z" />
    <glyph glyph-name="Yacute" unicode="&#xdd;" 
d="M399 -23l-55 31l199 420l-482 891h-102v80h412v-80h-131l385 -717l342 717h-131v80h346v-80h-99l-569 -1200q51 22 84 22q44 0 84 -16q46 -16 86 -16q42 0 68.5 12t68.5 43l41 -17q-35 -81 -93.5 -130.5t-139.5 -49.5q-50 0 -107 21q-54 20 -112 20q-56 0 -95 -31z
M418 1516l-35 38l424 283l53 -76z" />
    <glyph glyph-name="Thorn" unicode="&#xde;" 
d="M381 1319v-156h125q87 0 168.5 -12.5t162.5 -43.5t141 -78.5t97 -123t37 -170.5q0 -206 -156 -308.5t-434 -102.5q-6 0 -141 6v-250h123v-80h-414v80h123v1239h-123v80h414v-80h-123zM381 1083v-602q43 -78 199 -78q177 0 270.5 95.5t93.5 242.5q0 75 -31 135.5
t-80.5 98.5t-115.5 63t-132 35t-134 10h-70z" />
    <glyph glyph-name="germandbls" unicode="&#xdf;" horiz-adv-x="1062" 
d="M184 72v805h-121l39 90h82v77q0 79 19.5 147.5t59.5 123t107.5 86t155.5 31.5q112 0 189.5 -56.5t77.5 -163.5q0 -52 -16 -97t-33.5 -69.5t-47.5 -56.5q-6 -6 -23 -24t-23.5 -25.5t-18.5 -23t-17 -25.5t-9.5 -24t-4.5 -27q0 -16 4.5 -31t9.5 -25t18 -22.5t19 -18t24 -19
t23 -17.5q17 -13 57.5 -43.5t61.5 -47t54.5 -46t52 -54t38.5 -56.5t28.5 -67t8.5 -74q0 -102 -53 -179.5t-135 -116.5t-178 -39q-128 0 -213 34v127q58 -43 105.5 -66.5t101.5 -23.5q102 0 180 63.5t78 166.5q0 39 -16 75t-52 73t-62.5 59.5t-78.5 62.5q-111 85 -144 119
q-65 66 -65 127q0 73 90 176q3 4 5.5 6.5t4.5 5.5q32 37 49 61t33.5 68.5t16.5 93.5q0 68 -42 108t-112 40q-59 0 -95 -21.5t-57.5 -81.5t-21.5 -165v-1092h-264v72h110z" />
    <glyph glyph-name="agrave" unicode="&#xe0;" horiz-adv-x="1024" 
d="M707 334v209q-135 12 -142 12q-64 0 -119.5 -10t-109 -33.5t-84.5 -70.5t-31 -113q0 -115 58.5 -182.5t179.5 -67.5q128 0 188 69t60 187zM295 971l-10 -76q131 88 282 88q54 0 97.5 -12.5t73.5 -34t52.5 -54t35.5 -67.5t21 -80.5t10.5 -87t2.5 -92.5v-483h109v-72h-242
q-16 50 -20 119q-132 -135 -326 -135q-140 0 -226.5 86.5t-86.5 230.5q0 75 27 133t71 93.5t105.5 58.5t123.5 32t131 9q48 0 181 -9q1 54 -1 91.5t-13.5 78.5t-32.5 65.5t-60 41t-94 16.5q-89 0 -165.5 -58t-113.5 -144l-61 14l67 262zM285 1343l45 89l424 -283l-37 -39z
" />
    <glyph glyph-name="aacute" unicode="&#xe1;" horiz-adv-x="1024" 
d="M707 334v209q-135 12 -142 12q-64 0 -119.5 -10t-109 -33.5t-84.5 -70.5t-31 -113q0 -115 58.5 -182.5t179.5 -67.5q128 0 188 69t60 187zM295 971l-10 -76q131 88 282 88q54 0 97.5 -12.5t73.5 -34t52.5 -54t35.5 -67.5t21 -80.5t10.5 -87t2.5 -92.5v-483h109v-72h-242
q-16 50 -20 119q-132 -135 -326 -135q-140 0 -226.5 86.5t-86.5 230.5q0 75 27 133t71 93.5t105.5 58.5t123.5 32t131 9q48 0 181 -9q1 54 -1 91.5t-13.5 78.5t-32.5 65.5t-60 41t-94 16.5q-89 0 -165.5 -58t-113.5 -144l-61 14l67 262zM354 1110l-35 39l424 283l54 -76z
" />
    <glyph glyph-name="acircumflex" unicode="&#xe2;" horiz-adv-x="1024" 
d="M707 334v209q-135 12 -142 12q-64 0 -119.5 -10t-109 -33.5t-84.5 -70.5t-31 -113q0 -115 58.5 -182.5t179.5 -67.5q128 0 188 69t60 187zM295 971l-10 -76q131 88 282 88q54 0 97.5 -12.5t73.5 -34t52.5 -54t35.5 -67.5t21 -80.5t10.5 -87t2.5 -92.5v-483h109v-72h-242
q-16 50 -20 119q-132 -135 -326 -135q-140 0 -226.5 86.5t-86.5 230.5q0 75 27 133t71 93.5t105.5 58.5t123.5 32t131 9q48 0 181 -9q1 54 -1 91.5t-13.5 78.5t-32.5 65.5t-60 41t-94 16.5q-89 0 -165.5 -58t-113.5 -144l-61 14l67 262zM524 1425l332 -266l-41 -49l-287 193
l-299 -193l-34 49z" />
    <glyph glyph-name="atilde" unicode="&#xe3;" horiz-adv-x="1024" 
d="M707 334v209q-135 12 -142 12q-64 0 -119.5 -10t-109 -33.5t-84.5 -70.5t-31 -113q0 -115 58.5 -182.5t179.5 -67.5q128 0 188 69t60 187zM295 971l-10 -76q131 88 282 88q54 0 97.5 -12.5t73.5 -34t52.5 -54t35.5 -67.5t21 -80.5t10.5 -87t2.5 -92.5v-483h109v-72h-242
q-16 50 -20 119q-132 -135 -326 -135q-140 0 -226.5 86.5t-86.5 230.5q0 75 27 133t71 93.5t105.5 58.5t123.5 32t131 9q48 0 181 -9q1 54 -1 91.5t-13.5 78.5t-32.5 65.5t-60 41t-94 16.5q-89 0 -165.5 -58t-113.5 -144l-61 14l67 262zM813 1325l45 -33q-46 -72 -92 -111.5
t-113 -39.5q-51 0 -155 47q-95 45 -113 41q-54 -6 -119 -84l-51 33q30 39 43 55t41.5 43.5t58 39t64.5 11.5q49 0 141 -43q88 -45 123 -45q60 0 127 86z" />
    <glyph glyph-name="adieresis" unicode="&#xe4;" horiz-adv-x="1024" 
d="M707 334v209q-135 12 -142 12q-64 0 -119.5 -10t-109 -33.5t-84.5 -70.5t-31 -113q0 -115 58.5 -182.5t179.5 -67.5q128 0 188 69t60 187zM295 971l-10 -76q131 88 282 88q54 0 97.5 -12.5t73.5 -34t52.5 -54t35.5 -67.5t21 -80.5t10.5 -87t2.5 -92.5v-483h109v-72h-242
q-16 50 -20 119q-132 -135 -326 -135q-140 0 -226.5 86.5t-86.5 230.5q0 75 27 133t71 93.5t105.5 58.5t123.5 32t131 9q48 0 181 -9q1 54 -1 91.5t-13.5 78.5t-32.5 65.5t-60 41t-94 16.5q-89 0 -165.5 -58t-113.5 -144l-61 14l67 262zM573 1223q0 33 21.5 55t56.5 22
t56.5 -22t21.5 -55t-21.5 -55.5t-56.5 -22.5t-56.5 22.5t-21.5 55.5zM324 1223q0 33 21 55t56 22t56.5 -22t21.5 -55t-21.5 -55.5t-56.5 -22.5q-34 0 -55.5 22.5t-21.5 55.5z" />
    <glyph glyph-name="aring" unicode="&#xe5;" horiz-adv-x="1024" 
d="M707 334v209q-135 12 -142 12q-64 0 -119.5 -10t-109 -33.5t-84.5 -70.5t-31 -113q0 -115 58.5 -182.5t179.5 -67.5q128 0 188 69t60 187zM295 971l-10 -76q131 88 282 88q54 0 97.5 -12.5t73.5 -34t52.5 -54t35.5 -67.5t21 -80.5t10.5 -87t2.5 -92.5v-483h109v-72h-242
q-16 50 -20 119q-132 -135 -326 -135q-140 0 -226.5 86.5t-86.5 230.5q0 75 27 133t71 93.5t105.5 58.5t123.5 32t131 9q48 0 181 -9q1 54 -1 91.5t-13.5 78.5t-32.5 65.5t-60 41t-94 16.5q-89 0 -165.5 -58t-113.5 -144l-61 14l67 262zM403 1280q0 -53 35 -89t88 -36
q52 0 86.5 36t34.5 89q0 52 -34.5 87.5t-86.5 35.5q-53 0 -88 -35.5t-35 -87.5zM322 1280q-3 83 53 141t145 58q96 0 154 -57.5t55 -141.5q0 -85 -57 -143t-148 -58q-89 0 -145.5 58t-56.5 143z" />
    <glyph glyph-name="ae" unicode="&#xe6;" horiz-adv-x="1630" 
d="M195 324q0 -108 66.5 -177t174.5 -69q65 0 112.5 21t72.5 51t39.5 74.5t18 78.5t3.5 76v162q-158 20 -190 20q-60 0 -111 -12.5t-94 -39.5t-67.5 -74t-24.5 -111zM819 498l576 155q-21 106 -101 182t-184 76q-126 0 -210.5 -98.5t-84.5 -228.5q0 -57 4 -86zM289 979
l-4 -68q100 72 237 72q98 0 168.5 -36t126.5 -113q77 76 158 112.5t182 36.5q155 0 262 -106.5t135 -264.5l-720 -194q38 -144 132.5 -228t237.5 -84q138 0 316 148l51 -57q-190 -213 -418 -213q-128 0 -217.5 46t-169.5 150q-90 -98 -180.5 -147t-202.5 -49
q-147 0 -244.5 87t-97.5 234q0 88 35 153.5t96 102.5t133 54.5t156 17.5q79 0 221 -15v80q0 213 -201 213q-89 0 -160 -55t-106 -141l-68 10l66 258z" />
    <glyph glyph-name="ccedilla" unicode="&#xe7;" horiz-adv-x="985" 
d="M895 223l47 -45q-163 -194 -383 -194q-31 0 -45 4l-14 -80q7 0 21.5 1t21.5 1q188 0 188 -156q0 -56 -37.5 -96t-87.5 -57t-104 -17q-120 0 -195 37l21 80q68 -41 161 -41q44 0 79.5 22.5t35.5 63.5q0 51 -33.5 68.5t-89.5 17.5q-12 0 -32.5 -1t-30.5 -1l33 168
q-170 28 -276.5 150t-106.5 303q0 149 64.5 270t182.5 191.5t267 70.5q91 0 185.5 -42.5t158.5 -109.5l-107 -110q-58 76 -85 103q-91 87 -210 87q-139 0 -231 -108.5t-92 -261.5q0 -111 48 -212t139.5 -167t203.5 -66q90 0 153 29.5t150 97.5z" />
    <glyph glyph-name="egrave" unicode="&#xe8;" horiz-adv-x="1024" 
d="M209 496l586 157q-15 110 -94.5 184t-192.5 74q-104 0 -181 -62.5t-107.5 -157.5t-10.5 -195zM954 614l-733 -188q25 -137 125 -228.5t236 -91.5q24 0 45.5 1.5t43 7t36.5 9t36.5 14t32.5 15.5t34 20t32 21t36.5 25t36.5 25l50 -54q-53 -50 -93 -81.5t-94.5 -63
t-116 -46.5t-133.5 -15q-140 0 -246.5 68.5t-160 181.5t-53.5 251q0 211 134.5 354.5t338.5 143.5q161 0 276 -104t137 -265zM285 1343l45 89l424 -283l-37 -39z" />
    <glyph glyph-name="eacute" unicode="&#xe9;" horiz-adv-x="1024" 
d="M209 496l586 157q-15 110 -94.5 184t-192.5 74q-104 0 -181 -62.5t-107.5 -157.5t-10.5 -195zM954 614l-733 -188q25 -137 125 -228.5t236 -91.5q24 0 45.5 1.5t43 7t36.5 9t36.5 14t32.5 15.5t34 20t32 21t36.5 25t36.5 25l50 -54q-53 -50 -93 -81.5t-94.5 -63
t-116 -46.5t-133.5 -15q-140 0 -246.5 68.5t-160 181.5t-53.5 251q0 211 134.5 354.5t338.5 143.5q161 0 276 -104t137 -265zM354 1110l-35 39l424 283l54 -76z" />
    <glyph glyph-name="ecircumflex" unicode="&#xea;" horiz-adv-x="1024" 
d="M209 496l586 157q-15 110 -94.5 184t-192.5 74q-104 0 -181 -62.5t-107.5 -157.5t-10.5 -195zM954 614l-733 -188q25 -137 125 -228.5t236 -91.5q24 0 45.5 1.5t43 7t36.5 9t36.5 14t32.5 15.5t34 20t32 21t36.5 25t36.5 25l50 -54q-53 -50 -93 -81.5t-94.5 -63
t-116 -46.5t-133.5 -15q-140 0 -246.5 68.5t-160 181.5t-53.5 251q0 211 134.5 354.5t338.5 143.5q161 0 276 -104t137 -265zM524 1425l332 -266l-41 -49l-287 193l-299 -193l-34 49z" />
    <glyph glyph-name="edieresis" unicode="&#xeb;" horiz-adv-x="1024" 
d="M209 496l586 157q-15 110 -94.5 184t-192.5 74q-104 0 -181 -62.5t-107.5 -157.5t-10.5 -195zM954 614l-733 -188q25 -137 125 -228.5t236 -91.5q24 0 45.5 1.5t43 7t36.5 9t36.5 14t32.5 15.5t34 20t32 21t36.5 25t36.5 25l50 -54q-53 -50 -93 -81.5t-94.5 -63
t-116 -46.5t-133.5 -15q-140 0 -246.5 68.5t-160 181.5t-53.5 251q0 211 134.5 354.5t338.5 143.5q161 0 276 -104t137 -265zM573 1223q0 33 21.5 55t56.5 22t56.5 -22t21.5 -55t-21.5 -55.5t-56.5 -22.5t-56.5 22.5t-21.5 55.5zM324 1223q0 33 21 55t56 22t56.5 -22
t21.5 -55t-21.5 -55.5t-56.5 -22.5q-34 0 -55.5 22.5t-21.5 55.5z" />
    <glyph glyph-name="igrave" unicode="&#xec;" horiz-adv-x="530" 
d="M449 72v-72h-369v72h108v780l-108 -33v76l270 88q-8 -148 -8 -172v-739h107zM12 1343l45 89l424 -283l-37 -39z" />
    <glyph glyph-name="iacute" unicode="&#xed;" horiz-adv-x="530" 
d="M449 72v-72h-369v72h108v780l-108 -33v76l270 88q-8 -148 -8 -172v-739h107zM82 1110l-35 39l424 283l53 -76z" />
    <glyph glyph-name="icircumflex" unicode="&#xee;" horiz-adv-x="530" 
d="M449 72v-72h-369v72h108v780l-108 -33v76l270 88q-8 -148 -8 -172v-739h107zM252 1425l332 -266l-41 -49l-287 193l-299 -193l-35 49z" />
    <glyph glyph-name="idieresis" unicode="&#xef;" horiz-adv-x="530" 
d="M449 72v-72h-369v72h108v780l-108 -33v76l270 88q-8 -148 -8 -172v-739h107zM301 1223q0 33 21.5 55t56.5 22t56.5 -22t21.5 -55t-21.5 -55.5t-56.5 -22.5t-56.5 22.5t-21.5 55.5zM51 1223q0 33 21.5 55t56.5 22t56.5 -22t21.5 -55t-21.5 -55.5t-56.5 -22.5t-56.5 22.5
t-21.5 55.5z" />
    <glyph glyph-name="eth" unicode="&#xf0;" 
d="M252 516q0 -85 23 -166t66 -147.5t112 -107t153 -40.5q143 0 228.5 104t85.5 251q0 85 -23 166t-66.5 147.5t-113 106.5t-154.5 40q-142 0 -226.5 -104t-84.5 -250zM862 1450l35 -57l-180 -105q174 -116 270 -310t96 -433q0 -261 -140 -411t-357 -150q-138 0 -252 61.5
t-180 171.5t-66 246q0 205 143.5 342t352.5 137q136 0 241 -57q-37 195 -225 336l-248 -144l-35 58l222 127q-147 94 -316 114l29 54q223 -6 397 -103z" />
    <glyph glyph-name="ntilde" unicode="&#xf1;" 
d="M455 0h-369v72h109v788l-109 -35v72l262 86v-164q111 86 160 113q91 51 176 51q307 0 307 -328v-583h113v-72h-369v72h103v557q0 31 -1.5 53t-7 52.5t-18.5 52t-33 41.5t-53 30t-76 10q-39 0 -74.5 -8.5t-59.5 -17.5t-59 -33t-51 -37t-57 -47v-653h107v-72zM877 1325
l45 -33q-46 -72 -92 -111.5t-113 -39.5q-52 0 -156 47q-5 2 -16 7.5t-15.5 7.5t-14.5 6.5t-14 6t-13 5.5t-12 4.5t-10.5 2.5t-9 1t-7.5 0q-54 -6 -119 -84l-51 33q59 78 90 104q53 45 116 45q50 0 142 -43q88 -45 123 -45q60 0 127 86z" />
    <glyph glyph-name="ograve" unicode="&#xf2;" 
d="M588 983q220 0 370 -142.5t150 -357.5q0 -142 -69 -256.5t-188 -178.5t-263 -64t-263 64t-188 178.5t-69 256.5q0 215 150 357.5t370 142.5zM231 537q0 -87 25 -171.5t72 -154.5t122.5 -113t167.5 -43q89 0 153.5 29t101.5 82.5t54 119.5t17 148q0 88 -24.5 171.5
t-70 152.5t-119.5 111t-165 42q-104 0 -181 -52.5t-115 -136.5t-38 -185zM348 1343l45 89l424 -283l-37 -39z" />
    <glyph glyph-name="oacute" unicode="&#xf3;" 
d="M588 983q220 0 370 -142.5t150 -357.5q0 -142 -69 -256.5t-188 -178.5t-263 -64t-263 64t-188 178.5t-69 256.5q0 215 150 357.5t370 142.5zM231 537q0 -87 25 -171.5t72 -154.5t122.5 -113t167.5 -43q89 0 153.5 29t101.5 82.5t54 119.5t17 148q0 88 -24.5 171.5
t-70 152.5t-119.5 111t-165 42q-104 0 -181 -52.5t-115 -136.5t-38 -185zM418 1110l-35 39l424 283l53 -76z" />
    <glyph glyph-name="ocircumflex" unicode="&#xf4;" 
d="M588 983q220 0 370 -142.5t150 -357.5q0 -142 -69 -256.5t-188 -178.5t-263 -64t-263 64t-188 178.5t-69 256.5q0 215 150 357.5t370 142.5zM231 537q0 -87 25 -171.5t72 -154.5t122.5 -113t167.5 -43q89 0 153.5 29t101.5 82.5t54 119.5t17 148q0 88 -24.5 171.5
t-70 152.5t-119.5 111t-165 42q-104 0 -181 -52.5t-115 -136.5t-38 -185zM588 1425l332 -266l-41 -49l-287 193l-299 -193l-35 49z" />
    <glyph glyph-name="otilde" unicode="&#xf5;" 
d="M588 983q220 0 370 -142.5t150 -357.5q0 -142 -69 -256.5t-188 -178.5t-263 -64t-263 64t-188 178.5t-69 256.5q0 215 150 357.5t370 142.5zM231 537q0 -87 25 -171.5t72 -154.5t122.5 -113t167.5 -43q89 0 153.5 29t101.5 82.5t54 119.5t17 148q0 88 -24.5 171.5
t-70 152.5t-119.5 111t-165 42q-104 0 -181 -52.5t-115 -136.5t-38 -185zM877 1325l45 -33q-46 -72 -92 -111.5t-113 -39.5q-52 0 -156 47q-5 2 -16 7.5t-15.5 7.5t-14.5 6.5t-14 6t-13 5.5t-12 4.5t-10.5 2.5t-9 1t-7.5 0q-54 -6 -119 -84l-51 33q59 78 90 104
q53 45 116 45q50 0 142 -43q88 -45 123 -45q60 0 127 86z" />
    <glyph glyph-name="odieresis" unicode="&#xf6;" 
d="M588 983q220 0 370 -142.5t150 -357.5q0 -142 -69 -256.5t-188 -178.5t-263 -64t-263 64t-188 178.5t-69 256.5q0 215 150 357.5t370 142.5zM231 537q0 -87 25 -171.5t72 -154.5t122.5 -113t167.5 -43q89 0 153.5 29t101.5 82.5t54 119.5t17 148q0 88 -24.5 171.5
t-70 152.5t-119.5 111t-165 42q-104 0 -181 -52.5t-115 -136.5t-38 -185zM637 1223q0 33 21.5 55t56.5 22t56.5 -22t21.5 -55t-21.5 -55.5t-56.5 -22.5t-56.5 22.5t-21.5 55.5zM387 1223q0 33 21.5 55t56.5 22t56.5 -22t21.5 -55t-21.5 -55.5t-56.5 -22.5t-56.5 22.5
t-21.5 55.5z" />
    <glyph glyph-name="divide" unicode="&#xf7;" horiz-adv-x="1228" 
d="M1098 428h-967v111h967v-111zM496 881q0 47 34 80.5t80 33.5t80.5 -34t34.5 -80q0 -44 -34.5 -79.5t-78.5 -35.5q-47 0 -81.5 34t-34.5 81zM496 86q0 47 34 81t80 34t80.5 -34.5t34.5 -80.5q0 -43 -34.5 -79t-78.5 -36q-47 0 -81.5 34.5t-34.5 80.5z" />
    <glyph glyph-name="oslash" unicode="&#xf8;" 
d="M328 213l460 614q-94 84 -223 84q-104 0 -181 -52.5t-115 -136.5t-38 -185q0 -185 97 -324zM844 766l-461 -616q95 -95 235 -95q89 0 153.5 29t101.5 82.5t54 119.5t17 148q0 200 -100 332zM197 -98h-103l152 202q-84 65 -131 163.5t-47 215.5q0 215 150 357.5t370 142.5
q143 0 266 -68l100 136h103l-135 -181q88 -67 137 -167t49 -220q0 -142 -69 -256.5t-188 -178.5t-263 -64q-157 0 -275 73z" />
    <glyph glyph-name="ugrave" unicode="&#xf9;" 
d="M831 0v135q-176 -151 -354 -151q-83 0 -142.5 24.5t-91 68.5t-45.5 94.5t-14 113.5v573l-112 -39v72l266 92v-641q0 -75 13 -125t39 -75t56.5 -34.5t75.5 -9.5q171 0 309 144v616l-106 -35v72l260 88v-911h111v-72h-265zM348 1343l45 89l424 -283l-37 -39z" />
    <glyph glyph-name="uacute" unicode="&#xfa;" 
d="M831 0v135q-176 -151 -354 -151q-83 0 -142.5 24.5t-91 68.5t-45.5 94.5t-14 113.5v573l-112 -39v72l266 92v-641q0 -75 13 -125t39 -75t56.5 -34.5t75.5 -9.5q171 0 309 144v616l-106 -35v72l260 88v-911h111v-72h-265zM418 1110l-35 39l424 283l53 -76z" />
    <glyph glyph-name="ucircumflex" unicode="&#xfb;" 
d="M831 0v135q-176 -151 -354 -151q-83 0 -142.5 24.5t-91 68.5t-45.5 94.5t-14 113.5v573l-112 -39v72l266 92v-641q0 -75 13 -125t39 -75t56.5 -34.5t75.5 -9.5q171 0 309 144v616l-106 -35v72l260 88v-911h111v-72h-265zM588 1425l332 -266l-41 -49l-287 193l-299 -193
l-35 49z" />
    <glyph glyph-name="udieresis" unicode="&#xfc;" 
d="M831 0v135q-176 -151 -354 -151q-83 0 -142.5 24.5t-91 68.5t-45.5 94.5t-14 113.5v573l-112 -39v72l266 92v-641q0 -75 13 -125t39 -75t56.5 -34.5t75.5 -9.5q171 0 309 144v616l-106 -35v72l260 88v-911h111v-72h-265zM637 1223q0 33 21.5 55t56.5 22t56.5 -22
t21.5 -55t-21.5 -55.5t-56.5 -22.5t-56.5 22.5t-21.5 55.5zM387 1223q0 33 21.5 55t56.5 22t56.5 -22t21.5 -55t-21.5 -55.5t-56.5 -22.5t-56.5 22.5t-21.5 55.5z" />
    <glyph glyph-name="yacute" unicode="&#xfd;" horiz-adv-x="1062" 
d="M981 983l45 -37l-496 -1055q-64 -137 -101 -189q-85 -117 -196 -118q-78 0 -137 39l56 152q59 -19 94 -19q40 0 70 10.5t52 34.5t36.5 48.5t33.5 66.5l45 98l-389 842l-106 -49l-25 57l234 119q39 -111 59 -145q86 69 158 107t153 38q44 0 138 -20q68 -15 126 -15
q101 0 150 35zM287 778l274 -598l299 637q-5 0 -17 -3t-18 -3q-81 0 -166 29q-98 32 -159 32q-119 0 -213 -94zM360 1110l-34 39l424 283l53 -76z" />
    <glyph glyph-name="thorn" unicode="&#xfe;" horiz-adv-x="1138" 
d="M317 764v-397q0 -51 4.5 -90.5t20.5 -83.5t43 -72.5t75.5 -47t114.5 -18.5q70 0 126 22.5t93 61t61.5 91.5t35 111t10.5 124q0 74 -18 148t-54 140.5t-98 108t-141 41.5q-73 0 -136 -36.5t-137 -102.5zM51 -344h113v1618l-107 -37v72l365 123v-72l-105 -35v-465
q54 37 76 51t64 35.5t81.5 29t88.5 7.5q129 0 230.5 -69.5t154.5 -180t53 -237.5q0 -223 -131.5 -367.5t-347.5 -144.5q-142 0 -269 73v-401h119v-72h-385v72z" />
    <glyph glyph-name="ydieresis" unicode="&#xff;" horiz-adv-x="1062" 
d="M981 983l45 -37l-496 -1055q-64 -137 -101 -189q-85 -117 -196 -118q-78 0 -137 39l56 152q59 -19 94 -19q40 0 70 10.5t52 34.5t36.5 48.5t33.5 66.5l45 98l-389 842l-106 -49l-25 57l234 119q39 -111 59 -145q86 69 158 107t153 38q44 0 138 -20q68 -15 126 -15
q101 0 150 35zM287 778l274 -598l299 637q-5 0 -17 -3t-18 -3q-81 0 -166 29q-98 32 -159 32q-119 0 -213 -94zM580 1223q0 33 21 55t56 22t56.5 -22t21.5 -55t-21.5 -55.5t-56.5 -22.5q-34 0 -55.5 22.5t-21.5 55.5zM330 1223q0 33 21.5 55t56.5 22t56 -22t21 -55
t-21.5 -55.5t-55.5 -22.5q-35 0 -56.5 22.5t-21.5 55.5z" />
    <glyph glyph-name="Gbreve" unicode="&#x11e;" horiz-adv-x="1478" 
d="M1239 1270l59 55l60 -61l-273 -254l-63 55q51 48 51 113q0 71 -85 122.5t-204 51.5q-105 0 -195 -35t-154 -96t-109.5 -142t-67.5 -173.5t-22 -190.5q0 -170 80 -321t222.5 -244t311.5 -93q60 0 110.5 9.5t98 32.5t75 68t27.5 109v426h-381v91h328q118 0 209 16l49 -47
q-37 -26 -37 -78v-395q0 -78 10 -137q-287 -185 -532 -185q-218 0 -384.5 83.5t-260.5 245t-94 378.5q0 193 95.5 368t261 282.5t355.5 107.5q241 0 459 -162zM410 1778l39 34q114 -153 290 -153q159 0 295 153l35 -36q-52 -111 -137 -173.5t-201 -62.5q-105 0 -193 68
t-128 170z" />
    <glyph glyph-name="gbreve" unicode="&#x11f;" horiz-adv-x="1024" 
d="M225 621q0 -51 12 -102.5t36.5 -99t59 -84.5t82.5 -59t103 -22q120 0 194 78.5t74 197.5q0 71 -19 137.5t-55 121.5t-96 88.5t-135 33.5q-128 0 -192 -80t-64 -210zM739 -215q0 52 -28 91.5t-65 57t-65.5 26t-37.5 7.5q-42 -6 -75.5 -64.5t-33.5 -105.5q0 -68 48 -104.5
t118 -36.5q52 0 95.5 38.5t43.5 90.5zM104 -47l-59 94q36 11 68 29t67.5 49t52.5 47.5t56 56.5q-103 50 -160 145.5t-57 209.5q0 180 123.5 289.5t310.5 109.5q56 0 104 -11.5t131 -39.5q2 4 15 28t18 32t18.5 26t24 26t26.5 16t34 9h114l-22 -115q-50 13 -78 13t-46 -15
t-18 -39q0 -15 6 -31.5t11.5 -26.5t20 -32.5t20.5 -31.5q55 -92 55 -203q0 -97 -38 -176t-103.5 -128t-148.5 -75.5t-177 -26.5q-56 0 -88 11q-103 -103 -176 -144l4 -4q101 16 199 16q233 0 352 -54.5t119 -172.5q0 -105 -91 -177.5t-198 -72.5q-52 0 -99.5 9t-93 29
t-73 60.5t-27.5 96.5q0 94 156 194v4q-19 1 -61 3t-58 2q-35 0 -77 -5t-90 -13.5t-67 -10.5zM183 1356l38 35q54 -72 129 -113t162 -41q158 0 295 154l35 -37q-52 -111 -137 -173.5t-201 -62.5q-105 0 -193 68t-128 170z" />
    <glyph glyph-name="Idotaccent" unicode="&#x130;" horiz-adv-x="606" 
d="M96 1399h414v-80h-123v-1239h123v-80h-414v80h123v1239h-123v80zM225 1645q0 33 21.5 55t56.5 22t56.5 -22t21.5 -55t-21.5 -55.5t-56.5 -22.5t-56.5 22.5t-21.5 55.5z" />
    <glyph glyph-name="dotlessi" unicode="&#x131;" horiz-adv-x="530" 
d="M449 72v-72h-369v72h108v780l-108 -33v76l270 88q-8 -148 -8 -172v-739h107z" />
    <glyph glyph-name="Lslash" unicode="&#x141;" horiz-adv-x="1062" 
d="M98 1399h443v-80h-152v-483l240 145v-111l-240 -145v-645h197q46 0 82 5t80 21.5t80 45t73.5 79.5t69.5 121l67 -14l-116 -393h-82l16 55h-762v80h127v543l-147 -91v111l147 90v586h-123v80z" />
    <glyph glyph-name="lslash" unicode="&#x142;" horiz-adv-x="530" 
d="M78 0v72h110v639l-153 -54v88l153 54v473l-108 -35v72l366 123v-72l-104 -37v-473l154 55v-88l-154 -53v-692h104v-72h-368z" />
    <glyph glyph-name="OE" unicode="&#x152;" horiz-adv-x="2199" 
d="M1243 209v936q-183 207 -455 207q-159 0 -288 -83t-199 -218.5t-70 -292.5q0 -140 42.5 -268.5t119 -227t193.5 -157t256 -58.5q125 0 220.5 38.5t180.5 123.5zM1411 1319v-434h483v119h80v-349h-80v140h-483v-715h109q184 0 314 54t218 198l70 -25l-148 -311
q-74 4 -119 4h-612v72q-81 -47 -187 -76t-194 -29q-166 0 -312 51.5t-254 145t-170.5 234t-62.5 309.5q0 203 99 370t267.5 261t369.5 94q293 0 444 -111v78h735l109 -240l-59 -37q-129 197 -390 197h-227z" />
    <glyph glyph-name="oe" unicode="&#x153;" horiz-adv-x="1896" 
d="M1079 498l596 153q-32 113 -105 186.5t-181 73.5q-129 0 -215 -88t-97 -219q-3 -57 2 -106zM1784 244l47 -49q-75 -91 -188 -151t-226 -60q-136 0 -223 45.5t-178 156.5q-88 -105 -190.5 -153.5t-237.5 -48.5q-231 0 -375.5 142t-144.5 374q0 143 69 254t185.5 170
t259.5 59q265 0 440 -215q167 215 391 215q102 0 196.5 -51t154.5 -138.5t65 -187.5q-149 -17 -423 -93t-314 -85q27 -138 126 -230t234 -92q22 0 42.5 2t36.5 4t36.5 9t30.5 9.5t32 14.5t28 14.5t31 19t29 19t33 23t33 23.5zM946 451q0 85 -26 166.5t-73.5 147t-122 106
t-163.5 40.5q-161 0 -245.5 -103.5t-84.5 -266.5q0 -68 14 -136t44.5 -131.5t73.5 -112t105 -77.5t136 -29q172 0 257 108t85 288z" />
    <glyph glyph-name="Scedilla" unicode="&#x15e;" horiz-adv-x="1099" 
d="M12 178l127 127q46 -48 84.5 -82.5t91.5 -74.5t109 -61t111 -21q92 0 166.5 31t122.5 99t48 164q0 43 -12.5 80.5t-31 65.5t-52 54.5t-61.5 43.5t-75 37t-77 31t-83 29t-79 28q-51 19 -95.5 46t-82.5 64.5t-60 87.5t-22 107q0 120 62 212t160.5 139t214.5 47q33 0 67 -5
t55 -8.5t60 -18t50.5 -19t60.5 -25.5t57 -25l53 55l45 -47l-123 -159q-106 79 -197 123.5t-190 44.5q-97 0 -178.5 -69.5t-81.5 -164.5q0 -44 13.5 -80.5t42 -65t58.5 -50t77.5 -42t83.5 -34t92 -33t88 -31.5q134 -51 205 -131t71 -209q0 -194 -127.5 -328t-318.5 -143
l-11 -59q7 0 21.5 1t21.5 1q189 0 189 -156q0 -56 -37.5 -96t-88 -57t-104.5 -17q-119 0 -194 37l20 80q68 -41 162 -41q44 0 79.5 22.5t35.5 63.5q0 51 -33.5 68.5t-89.5 17.5q-12 0 -32.5 -1t-30.5 -1l26 139q-263 12 -463 209z" />
    <glyph glyph-name="scedilla" unicode="&#x15f;" horiz-adv-x="796" 
d="M297 -170l29 154q-160 10 -310 141l101 123q39 -39 66.5 -63.5t68 -53t83 -43t87.5 -14.5q66 0 116 44.5t50 110.5q0 35 -11 63.5t-24.5 47t-42.5 37t-48 27.5t-59 26.5t-59 26.5q-124 59 -162 88q-76 57 -83 155q-1 12 -1 25q0 124 88 191t215 67q133 0 279 -92l-76 -92
q-14 7 -73 44t-99 52.5t-82 15.5q-55 0 -95 -33.5t-40 -84.5q0 -32 10 -58.5t22.5 -42.5t39 -33t43 -24.5t52 -22t50.5 -20.5q127 -57 168 -85q99 -67 105 -176v-16q0 -134 -89.5 -225.5t-224.5 -103.5l-12 -78q7 0 21.5 1t21.5 1q188 0 188 -156q0 -56 -37.5 -96t-87.5 -57
t-104 -17q-120 0 -195 37l21 80q68 -41 162 -41q43 0 78.5 22.5t35.5 63.5q0 51 -33.5 68.5t-89.5 17.5q-12 0 -32.5 -1t-30.5 -1z" />
    <glyph glyph-name="Scaron" unicode="&#x160;" horiz-adv-x="1099" 
d="M12 178l127 127q46 -48 84.5 -82.5t91.5 -74.5t109 -61t111 -21q92 0 166.5 31t122.5 99t48 164q0 43 -12.5 80.5t-31 65.5t-52 54.5t-61.5 43.5t-75 37t-77 31t-83 29t-79 28q-51 19 -95.5 46t-82.5 64.5t-60 87.5t-22 107q0 120 62 212t160.5 139t214.5 47q33 0 67 -5
t55 -8.5t60 -18t50.5 -19t60.5 -25.5t57 -25l53 55l45 -47l-123 -159q-106 79 -197 123.5t-190 44.5q-97 0 -178.5 -69.5t-81.5 -164.5q0 -44 13.5 -80.5t42 -65t58.5 -50t77.5 -42t83.5 -34t92 -33t88 -31.5q134 -51 205 -131t71 -209q0 -201 -135.5 -336t-335.5 -135
q-290 0 -504 211zM561 1516l-332 266l41 49l287 -193l299 193l35 -49z" />
    <glyph glyph-name="scaron" unicode="&#x161;" horiz-adv-x="796" 
d="M16 125l101 123q39 -39 66.5 -63.5t68 -53t83 -43t87.5 -14.5q66 0 116 44.5t50 110.5q0 35 -11 63.5t-24.5 47t-42.5 37t-48 27.5t-59 26.5t-59 26.5q-124 59 -162 88q-76 57 -83 155q-1 12 -1 25q0 124 88 191t215 67q133 0 279 -92l-76 -92q-14 7 -73 44t-99 52.5
t-82 15.5q-55 0 -95 -33.5t-40 -84.5q0 -32 10 -58.5t22.5 -42.5t39 -33t43 -24.5t52 -22t50.5 -20.5q127 -57 168 -85q99 -67 105 -176v-16q0 -144 -102 -237.5t-249 -93.5q-98 0 -177 35t-161 106zM410 1110l-332 266l41 49l287 -192l299 192l34 -49z" />
    <glyph glyph-name="Ydieresis" unicode="&#x178;" 
d="M399 -23l-55 31l199 420l-482 891h-102v80h412v-80h-131l385 -717l342 717h-131v80h346v-80h-99l-569 -1200q51 22 84 22q44 0 84 -16q46 -16 86 -16q42 0 68.5 12t68.5 43l41 -17q-35 -81 -93.5 -130.5t-139.5 -49.5q-50 0 -107 21q-54 20 -112 20q-56 0 -95 -31z
M637 1628q0 33 21.5 55.5t56.5 22.5t56.5 -22.5t21.5 -55.5t-21.5 -55.5t-56.5 -22.5t-56.5 22.5t-21.5 55.5zM387 1628q0 33 21.5 55.5t56.5 22.5t56.5 -22.5t21.5 -55.5t-21.5 -55.5t-56.5 -22.5t-56.5 22.5t-21.5 55.5z" />
    <glyph glyph-name="Zcaron" unicode="&#x17d;" horiz-adv-x="1099" 
d="M1006 1286l-805 -1147h428q121 0 194.5 49.5t106.5 163.5h84l-45 -401h-95l5 49h-560q-131 0 -210 -8l-80 125l813 1143h-393q-104 0 -165 -42.5t-83 -146.5h-95l41 385h101l-6 -57h686zM561 1516l-332 266l41 49l287 -193l299 193l35 -49z" />
    <glyph glyph-name="zcaron" unicode="&#x17e;" horiz-adv-x="872" 
d="M774 864l-549 -725h314q140 0 180 135h76l-76 -333h-88l14 59h-541l-59 92l571 744h-262q-159 0 -186 -119l-74 4l74 307h82l-10 -61h487zM449 1110l-332 266l41 49l286 -192l299 192l35 -49z" />
    <glyph glyph-name="uni018f" unicode="&#x18f;" horiz-adv-x="1560" 
d="M770 -31q-146 0 -273 50t-223 142.5t-151 234t-55 313.5q0 35 2 53h1249q-16 132 -64 237q-49 110 -122 189q-69 75 -168 125q-95 45 -199 45q-134 0 -221 -66q-85 -62 -133 -170l-13 -30l-80 30l150 348l74 -26l-31 -76q69 33 115 47q65 19 139 19q159 0 295 -54
q143 -60 227 -151q101 -106 150 -232q51 -131 51 -295t-57 -296q-60 -135 -160 -232q-96 -93 -240 -151q-142 -54 -262 -54zM1282 414q43 113 43 252h-1083q6 -157 74 -297.5t188.5 -229t263.5 -88.5q101 0 219 49q101 43 178 123q73 79 117 191z" />
    <glyph glyph-name="florin" unicode="&#x192;" horiz-adv-x="985" 
d="M6 -391l14 61q42 -6 48 -6q46 0 80.5 12.5t53.5 29.5t31 44.5t16 47t7 48.5l84 725h-164l14 91h158q0 3 3 32.5t3.5 37.5t4 37t5 41t5.5 39t7 41.5t8 38t10 39t11 33.5t13 33q44 97 127.5 155t187.5 58q129 0 250 -151l-113 -105q-22 29 -36 46t-42.5 45.5t-57.5 43.5
t-58 15q-42 0 -76 -24t-53 -62t-29 -79t-10 -79q0 -235 246 -235l-13 -91h-249l-84 -721q-18 -151 -78 -208.5t-180 -57.5q-65 0 -144 25z" />
    <glyph glyph-name="uni0259" unicode="&#x259;" horiz-adv-x="1097" 
d="M854 598l-16 59q-20 58 -66 125q-50 64 -98 92q-53 39 -123 39q-78 0 -131 -36q-61 -39 -86 -105l-19 -41l-67 27l100 252l68 -25l-17 -43q50 24 72 31q45 10 80 10q112 0 197 -39q90 -38 151 -102q60 -63 96 -158q33 -101 33 -201q0 -110 -37 -200q-39 -95 -102 -158
q-67 -64 -160 -102q-89 -39 -188 -39q-189 0 -313.5 116t-151.5 299zM866 530l-608 -161q17 -66 39.5 -117.5t57.5 -98.5t87.5 -72.5t120.5 -25.5q70 0 133 37q66 37 101 92q38 52 57 129q16 78 16 152q0 7 -4 65z" />
    <glyph glyph-name="circumflex" unicode="&#x2c6;" horiz-adv-x="530" 
d="M264 1425l332 -266l-41 -49l-287 193l-299 -193l-35 49z" />
    <glyph glyph-name="breve" horiz-adv-x="530" 
d="M-63 1356l38 35q54 -72 129 -113t162 -41q158 0 295 154l35 -37q-52 -111 -137 -173.5t-201 -62.5q-105 0 -193 68t-128 170z" />
    <glyph glyph-name="dotaccent" horiz-adv-x="530" 
d="M188 1223q0 33 21.5 55t56.5 22t56.5 -22t21.5 -55t-21.5 -55.5t-56.5 -22.5t-56.5 22.5t-21.5 55.5z" />
    <glyph glyph-name="ring" unicode="&#x2da;" horiz-adv-x="530" 
d="M143 1280q0 -53 35 -89t88 -36q52 0 86.5 36t34.5 89q0 52 -34.5 87.5t-86.5 35.5q-53 0 -88 -35.5t-35 -87.5zM61 1280q-3 83 53.5 141t145.5 58q96 0 154 -57.5t55 -141.5q0 -85 -57 -143t-148 -58q-89 0 -146 58t-57 143z" />
    <glyph glyph-name="tilde" unicode="&#x2dc;" horiz-adv-x="530" 
d="M553 1325l45 -33q-46 -72 -92 -111.5t-113 -39.5q-51 0 -155 47q-95 45 -113 41q-54 -6 -119 -84l-51 33q30 39 43 55t41.5 43.5t58 39t64.5 11.5q49 0 141 -43q88 -45 123 -45q60 0 127 86z" />
    <glyph glyph-name="uni2010" unicode="&#x2010;" horiz-adv-x="681" 
d="M590 422h-498v131h498v-131z" />
    <glyph glyph-name="endash" unicode="&#x2013;" horiz-adv-x="1024" 
d="M0 440v97h1024v-97h-1024z" />
    <glyph glyph-name="emdash" unicode="&#x2014;" horiz-adv-x="2048" 
d="M2048 440h-2048v97h2048v-97z" />
    <glyph glyph-name="quoteleft" unicode="&#x2018;" horiz-adv-x="342" 
d="M223 1432l25 -56q-91 -47 -94 -121q4 2 12 2q45 0 73.5 -24.5t28.5 -69.5q0 -43 -25 -76.5t-69 -33.5q-52 0 -83.5 45.5t-31.5 95.5q0 79 48 147.5t116 90.5z" />
    <glyph glyph-name="quoteright" unicode="&#x2019;" horiz-adv-x="342" 
d="M119 1053l-25 55q91 47 94 121q-4 -2 -12 -2q-45 0 -73.5 24.5t-28.5 69.5q0 43 25 77t69 34q52 0 83.5 -46t31.5 -96q0 -79 -48 -147t-116 -90z" />
    <glyph glyph-name="quotesinglbase" unicode="&#x201a;" horiz-adv-x="342" 
d="M119 -190l-25 55q91 47 94 121q-4 -2 -12 -2q-45 0 -73.5 24.5t-28.5 69.5q0 43 25 76.5t69 33.5q52 0 83.5 -45.5t31.5 -95.5q0 -79 -48 -147t-116 -90z" />
    <glyph glyph-name="quotedblleft" unicode="&#x201c;" horiz-adv-x="757" 
d="M586 1432l24 -56q-91 -47 -94 -121q4 2 12 2q45 0 74 -24.5t29 -69.5q0 -43 -25 -76.5t-69 -33.5q-52 0 -83.5 45.5t-31.5 95.5q0 79 48 147.5t116 90.5zM281 1432l24 -56q-91 -47 -94 -121q4 2 12 2q45 0 74 -24.5t29 -69.5q0 -42 -25.5 -76t-69.5 -34q-52 0 -83 45.5
t-31 95.5q0 79 48 147.5t116 90.5z" />
    <glyph glyph-name="quotedblright" unicode="&#x201d;" horiz-adv-x="757" 
d="M172 1053l-25 55q93 47 95 121q-4 -2 -13 -2q-45 0 -73.5 24.5t-28.5 69.5q0 43 25 77t69 34q52 0 83.5 -46t31.5 -96q0 -79 -48 -147t-116 -90zM477 1053l-24 55q91 47 94 121q-4 -2 -12 -2q-45 0 -74 24.5t-29 69.5q0 43 25 77t69 34q52 0 83.5 -46t31.5 -96
q0 -79 -48 -147t-116 -90z" />
    <glyph glyph-name="quotedblbase" unicode="&#x201e;" horiz-adv-x="757" 
d="M172 -190l-25 55q93 47 95 121q-4 -2 -13 -2q-45 0 -73.5 24.5t-28.5 69.5q0 43 25 76.5t69 33.5q52 0 83.5 -45.5t31.5 -95.5q0 -79 -48 -147t-116 -90zM477 -190l-24 55q91 47 94 121q-4 -2 -12 -2q-45 0 -74 24.5t-29 69.5q0 43 25 76.5t69 33.5q52 0 83.5 -45.5
t31.5 -95.5q0 -79 -48 -147t-116 -90z" />
    <glyph glyph-name="dagger" unicode="&#x2020;" horiz-adv-x="1062" 
d="M78 856v148q61 -5 129.5 -15t129 -15t152.5 -3q0 128 -28 428h147q-4 -34 -12.5 -108.5t-12.5 -114.5t-7 -98.5t-1 -106.5q201 3 410 33v-152q-200 25 -410 39q-5 -200 62 -434q-23 -80 -37 -179.5t-18 -165t-8.5 -190.5t-6.5 -172h-67q-14 311 -27.5 460t-40.5 253
q0 1 7 23t16 60t18 87t14 118t2 140q-36 -2 -91.5 -5t-79.5 -4t-65 -4.5t-81 -8.5t-94 -13z" />
    <glyph glyph-name="daggerdbl" unicode="&#x2021;" horiz-adv-x="1062" 
d="M78 104v164q48 -6 110.5 -15t91.5 -12.5t83 -6.5t126 -3q-2 27 -6 88.5t-7 86t-14 72.5t-30 100q13 39 23 75t15 57.5t9 58t5 46.5t3 55t2 54q-28 0 -57 -1t-62 -4t-56 -5.5t-61.5 -7.5t-56 -7.5t-61.5 -9t-57 -8.5v161q89 -15 140 -22.5t128.5 -13.5t142.5 -2
q2 80 -8 194q-9 99 -24 201h155q-23 -189 -24 -201q-13 -110 -13 -194q17 1 89 3t95.5 3.5t73.5 5.5t84.5 10t67.5 16v-161q-246 50 -410 43q0 -151 58 -346q-58 -206 -58 -347q63 0 128 5.5t157 17t125 14.5v-155q-21 3 -104 16t-152 19t-154 4q3 -239 37 -398h-159
q41 251 36 398q-221 -9 -411 -48z" />
    <glyph glyph-name="bullet" unicode="&#x2022;" horiz-adv-x="1024" 
d="M512 367q-149 0 -249.5 100.5t-100.5 249.5t100.5 249.5t249.5 100.5t249.5 -100.5t100.5 -249.5t-100.5 -249.5t-249.5 -100.5z" />
    <glyph glyph-name="ellipsis" unicode="&#x2026;" horiz-adv-x="2048" 
d="M340 -16q-39 0 -70.5 29t-31.5 73t31.5 73t70.5 29t70.5 -29t31.5 -73t-31.5 -73t-70.5 -29zM1024 -16q-39 0 -70.5 29t-31.5 73t31.5 73t70.5 29t70.5 -29t31.5 -73t-31.5 -73t-70.5 -29zM1708 -16q-39 0 -70.5 29t-31.5 73t31.5 73t70.5 29t70.5 -29t31.5 -73
t-31.5 -73t-70.5 -29z" />
    <glyph glyph-name="perthousand" unicode="&#x2030;" horiz-adv-x="1857" 
d="M1333 379q0 -61 28.5 -133t85 -128.5t122.5 -56.5q39 0 68 13t46 34t28 52t14.5 62t3.5 69q0 64 -26.5 133.5t-81 122.5t-120.5 53q-84 0 -126 -65.5t-42 -155.5zM1022 1247l-713 -1278h-71l710 1278h74zM127 934q0 -44 16.5 -98t45.5 -103.5t74 -83t95 -33.5
q164 0 164 230q0 63 -27.5 133t-82.5 123t-121 53q-57 0 -95.5 -34t-53.5 -82t-15 -105zM1262 322q0 63 16 126t47 118.5t85.5 90.5t123.5 35t122.5 -31.5t83.5 -83.5t45 -112t15 -125q0 -48 -9 -98.5t-29.5 -99.5t-49.5 -87.5t-72.5 -62t-95.5 -23.5q-94 0 -159.5 52.5
t-94 130t-28.5 170.5zM55 877q0 63 16 126t47.5 118.5t86 90.5t123.5 35t122.5 -31.5t83.5 -83.5t45 -112t15 -125q0 -48 -9 -98.5t-29.5 -99.5t-49.5 -87.5t-72.5 -62t-95.5 -23.5q-71 0 -127 30t-89 81t-50 112.5t-17 129.5zM655 322q0 63 16 126t47.5 118.5t86 90.5
t123.5 35t122.5 -31.5t83.5 -83.5t45 -112t15 -125q0 -48 -9 -98.5t-29.5 -99.5t-49.5 -87.5t-72.5 -62t-95.5 -23.5q-71 0 -127 30t-89 81t-50 112.5t-17 129.5zM727 379q0 -44 16.5 -98t45.5 -103.5t74 -83t95 -33.5q164 0 164 230q0 63 -27.5 133t-82.5 123t-121 53
q-57 0 -95.5 -34t-53.5 -82t-15 -105z" />
    <glyph glyph-name="guilsinglleft" unicode="&#x2039;" horiz-adv-x="493" 
d="M106 492l175 376h75l-120 -379l110 -383h-72z" />
    <glyph glyph-name="guilsinglright" unicode="&#x203a;" horiz-adv-x="493" 
d="M387 483l-174 -377h-76l121 379l-111 383h72z" />
    <glyph glyph-name="fraction" unicode="&#x2044;" horiz-adv-x="342" 
d="M-342 -31l932 1278h94l-930 -1278h-96z" />
    <glyph glyph-name="Euro" unicode="&#x20ac;" horiz-adv-x="985" 
d="M735 547l-18 -90h-408q33 -165 121.5 -269t220.5 -104q165 0 279 129l47 -59q-69 -98 -164.5 -141.5t-187.5 -43.5q-188 0 -311 133.5t-158 354.5h-148l19 90h118q-2 23 -2 67q0 40 2 60h-137l19 90h131q39 205 168 344t295 139q91 0 159 -32.5t140 -104.5l30 35l43 -51
l-180 -203l-45 47q17 21 22 39t5 53q0 70 -48.5 103.5t-128.5 33.5q-135 0 -216.5 -106.5t-102.5 -296.5h475l-18 -90h-463v-41q0 -28 4 -86h438z" />
    <glyph glyph-name="afii61289" unicode="&#x2113;" horiz-adv-x="704" 
d="M641 186l31 -26q-96 -187 -279 -187q-112 0 -172 70q-30 38 -43.5 95t-13.5 161v156l-109 -82l-20 37l127 106v223q0 231 18 328t74 162q61 76 139 76q72 0 111 -67t39 -167q0 -148 -69 -277t-191 -257v-175q0 -116 20.5 -184.5t55 -93.5t87.5 -25q112 0 195 127z
M283 848v-236q81 97 130.5 219.5t49.5 237.5q0 81 -22.5 132.5t-63.5 51.5q-51 0 -72.5 -93t-21.5 -312z" />
    <glyph glyph-name="trademark" unicode="&#x2122;" horiz-adv-x="2027" 
d="M485 1360v-635q0 -77 13 -92q8 -10 26 -14t64 -9v-39h-334v39q46 5 64 9t26 14q12 14 12 92v635h-104q-106 0 -139 -141h-39v180h694v-180h-39q-33 141 -139 141h-105zM1368 565l-311 637h-4v-461q0 -68 21 -96t85 -35v-39h-266v39q65 7 86.5 35t21.5 96v516q0 43 -47 73
t-94 30v39h236l321 -645l336 645h201v-39q-64 -3 -90.5 -32t-26.5 -85v-518q0 -78 12 -92q8 -10 26 -14t64 -9v-39h-333v39q80 9 92 23q2 3 4 6.5t3 6.5t1.5 9t1 10t0.5 12.5v13.5v16v18v483h-4l-318 -643h-18z" />
    <glyph glyph-name="minus" unicode="&#x2212;" horiz-adv-x="1228" 
d="M1098 428h-967v111h967v-111z" />
    <glyph glyph-name="uni2215" unicode="&#x2215;" horiz-adv-x="342" 
d="M-342 -31l932 1278h94l-930 -1278h-96z" />
    </font>
</defs>
</svg>
